<?xml version="1.0" standalone="no"?>
<!DOCTYPE svg PUBLIC "-//W3C//DTD SVG 1.1//EN" "http://www.w3.org/Graphics/SVG/1.1/DTD/svg11.dtd" >
<svg xmlns="http://www.w3.org/2000/svg" xmlns:xlink="http://www.w3.org/1999/xlink" version="1.1">
<metadata>
Created by FontForge 20190801 at Wed Apr  3 11:32:38 2019
 By root
Modern and elegant sans serif font.
</metadata>
<defs>
<font id="Hero-Light" horiz-adv-x="0" >
  <font-face 
    font-family="Hero Light"
    font-weight="200"
    font-stretch="normal"
    units-per-em="1000"
    panose-1="0 0 3 0 0 0 0 0 0 0"
    ascent="750"
    descent="-250"
    x-height="509"
    cap-height="636"
    bbox="-490 -255 1139.68 851"
    underline-thickness="50"
    underline-position="-100"
    unicode-range="U+0020-2122"
  />
<missing-glyph horiz-adv-x="200" 
 />
    <glyph glyph-name=".notdef" horiz-adv-x="200" 
 />
    <glyph glyph-name="space" unicode=" " horiz-adv-x="273" 
 />
    <glyph glyph-name="A" unicode="A" horiz-adv-x="697" 
d="M361 645l319 -627q2 -3 2 -9q0 -7 -5 -11.5t-12 -4.5q-9 0 -14 9l-89 177h-430l-89 -177q-4 -9 -14 -9q-7 0 -12 4.5t-5 11.5q0 6 2 9l318 627q5 9 15 9t14 -9zM147 209h399l-199 396z" />
    <glyph glyph-name="Aacute" unicode="&#xc1;" horiz-adv-x="697" 
d="M361 645l319 -627q2 -3 2 -9q0 -7 -5 -11.5t-12 -4.5q-9 0 -14 9l-89 177h-430l-89 -177q-4 -9 -14 -9q-7 0 -12 4.5t-5 11.5q0 6 2 9l318 627q5 9 15 9t14 -9zM147 209h399l-199 396zM416 834q8 0 14 -5.5t6 -13.5q0 -7 -5 -12l-90 -91q-6 -6 -12 -6t-10 4.5t-4 10.5
q0 5 3 9l86 98q4 6 12 6z" />
    <glyph glyph-name="Abreve" unicode="&#x102;" horiz-adv-x="697" 
d="M361 645l319 -627q2 -3 2 -9q0 -7 -5 -11.5t-12 -4.5q-9 0 -14 9l-89 177h-430l-89 -177q-4 -9 -14 -9q-7 0 -12 4.5t-5 11.5q0 6 2 9l318 627q5 9 15 9t14 -9zM147 209h399l-199 396zM440 817q8 0 13 -7t2 -16q-13 -44 -38 -64.5t-69 -20.5t-69 20.5t-38 64.5q-3 9 2 16
t13 7q11 0 17 -16q12 -35 29 -49t46 -13q29 -1 46 13t29 49q6 16 17 16z" />
    <glyph glyph-name="Acircumflex" unicode="&#xc2;" horiz-adv-x="697" 
d="M361 645l319 -627q2 -3 2 -9q0 -7 -5 -11.5t-12 -4.5q-9 0 -14 9l-89 177h-430l-89 -177q-4 -9 -14 -9q-7 0 -12 4.5t-5 11.5q0 6 2 9l318 627q5 9 15 9t14 -9zM147 209h399l-199 396zM467 721q0 -5 -4 -9.5t-10 -4.5t-11 5l-95 83l-95 -83q-7 -5 -11 -5q-6 0 -10 4.5
t-4 9.5q0 8 6 12l102 90q7 7 12 7q4 0 12 -7l102 -90q6 -6 6 -12z" />
    <glyph glyph-name="Adieresis" unicode="&#xc4;" horiz-adv-x="697" 
d="M361 645l319 -627q2 -3 2 -9q0 -7 -5 -11.5t-12 -4.5q-9 0 -14 9l-89 177h-430l-89 -177q-4 -9 -14 -9q-7 0 -12 4.5t-5 11.5q0 6 2 9l318 627q5 9 15 9t14 -9zM147 209h399l-199 396zM271.5 789.5q9.5 -8.5 9.5 -21.5q0 -15 -9.5 -23t-20.5 -8q-13 0 -22 8.5t-9 22.5
q0 13 9 21.5t22 8.5q11 0 20.5 -8.5zM464.5 789.5q9.5 -8.5 9.5 -21.5q0 -15 -9 -23t-22 -8q-11 0 -20.5 8.5t-9.5 22.5q0 13 9.5 21.5t20.5 8.5q12 0 21.5 -8.5z" />
    <glyph glyph-name="Agrave" unicode="&#xc0;" horiz-adv-x="697" 
d="M361 645l319 -627q2 -3 2 -9q0 -7 -5 -11.5t-12 -4.5q-9 0 -14 9l-89 177h-430l-89 -177q-4 -9 -14 -9q-7 0 -12 4.5t-5 11.5q0 6 2 9l318 627q5 9 15 9t14 -9zM147 209h399l-199 396zM381 735q3 -3 3 -8q0 -6 -4 -11t-10 -5t-12 6l-90 91q-5 5 -5 13q0 7 5.5 12.5
t13.5 5.5q7 0 13 -6z" />
    <glyph glyph-name="Amacron" unicode="&#x100;" horiz-adv-x="697" 
d="M361 645l319 -627q2 -3 2 -9q0 -7 -5 -11.5t-12 -4.5q-9 0 -14 9l-89 177h-430l-89 -177q-4 -9 -14 -9q-7 0 -12 4.5t-5 11.5q0 6 2 9l318 627q5 9 15 9t14 -9zM147 209h399l-199 396zM450.5 760.5q6.5 -4.5 6.5 -10.5q0 -7 -6.5 -11.5t-19.5 -4.5h-179q-13 0 -20 4.5
t-7 10.5q0 7 7 11.5t20 4.5h179q13 0 19.5 -4.5z" />
    <glyph glyph-name="Aogonek" unicode="&#x104;" horiz-adv-x="697" 
d="M708 -135q5 0 8 -3t3 -8q0 -8 -7 -18q-13 -20 -28 -29.5t-38 -9.5q-33 0 -51 18.5t-18 50.5q0 34 20.5 67.5t52.5 69.5l-88 176h-430l-89 -177q-4 -9 -14 -9q-7 0 -12 4.5t-5 11.5q0 6 2 9l318 627q5 9 15 9t14 -9l319 -627q2 -3 2 -9t-4 -10q-1 -5 -8 -14
q-24 -27 -43 -59.5t-19 -58.5q0 -19 11 -30t26 -11q25 0 40 23q10 16 23 16zM546 209l-199 396l-200 -396h399z" />
    <glyph glyph-name="Aring" unicode="&#xc5;" horiz-adv-x="697" 
d="M682 9q0 -7 -5 -11.5t-12 -4.5q-9 0 -14 9l-89 177h-430l-89 -177q-4 -9 -14 -9q-7 0 -12 4.5t-5 11.5q0 6 2 9l310 611q-23 7 -36.5 25t-13.5 43q0 30 21 50.5t52 20.5q30 0 51 -20.5t21 -50.5q0 -24 -14 -42.5t-36 -26.5l311 -610q2 -3 2 -9zM316 666.5
q13 -12.5 31 -12.5q17 0 30 12.5t13 30.5q0 17 -13 29.5t-30 12.5q-18 0 -31 -12.5t-13 -29.5q0 -18 13 -30.5zM546 209l-199 396l-200 -396h399z" />
    <glyph glyph-name="Atilde" unicode="&#xc3;" horiz-adv-x="697" 
d="M361 645l319 -627q2 -3 2 -9q0 -7 -5 -11.5t-12 -4.5q-9 0 -14 9l-89 177h-430l-89 -177q-4 -9 -14 -9q-7 0 -12 4.5t-5 11.5q0 6 2 9l318 627q5 9 15 9t14 -9zM147 209h399l-199 396zM243 807.5q19 14.5 45 14.5q17 0 31.5 -9.5t35.5 -28.5q19 -18 31.5 -26.5t26.5 -8.5
q24 0 36.5 14.5t21.5 36.5q4 10 12 10q5 0 8.5 -4t3.5 -10t-3 -12q-12 -27 -30.5 -44t-51.5 -17q-18 0 -33.5 10.5t-36.5 30.5q-18 17 -29 25t-22 8q-21 1 -31.5 -10t-16.5 -33q-3 -9 -13 -9q-7 0 -11 5t-1 15q8 28 27 42.5z" />
    <glyph glyph-name="AE" unicode="&#xc6;" horiz-adv-x="953" 
d="M893 631.5q4 -4.5 4 -10.5t-4 -10.5t-12 -4.5h-381v-276h361q8 0 12 -4.5t4 -10.5t-4 -10.5t-12 -4.5h-361v-268h381q8 0 12 -4.5t4 -11.5t-4 -11.5t-12 -4.5h-387q-12 0 -19.5 8t-7.5 19v152h-282l-141 -179q-6 -9 -17 -9q-6 0 -10.5 4t-4.5 10t5 13l454 606
q10 12 23 12h388q7 0 11 -4.5zM210 209h257v357z" />
    <glyph glyph-name="B" unicode="B" horiz-adv-x="687" 
d="M458.5 621.5q54.5 -14.5 94 -51t39.5 -98.5q0 -48 -26 -82t-74 -49q67 -14 107.5 -54t40.5 -106q0 -98 -73 -139.5t-181 -41.5h-276q-7 0 -12.5 5.5t-5.5 12.5v600q0 8 5.5 13t12.5 5h242q52 0 106.5 -14.5zM126 606v-256h239q86 0 139 28.5t53 93.5q0 50 -34.5 79.5
t-81 41.5t-89.5 13h-226zM126 318v-288h260q94 0 156.5 33.5t62.5 117.5q0 70 -51.5 103.5t-135.5 33.5h-292z" />
    <glyph glyph-name="C" unicode="C" horiz-adv-x="667" 
d="M512.5 623.5q55.5 -22.5 104.5 -75.5q5 -7 5 -12q0 -6 -4.5 -10t-10.5 -4q-7 0 -13 6q-45 47 -91 66.5t-103 19.5q-30 0 -73 -5q-108 -17 -173.5 -93.5t-65.5 -197.5q0 -81 40 -149t106.5 -107t142.5 -39q72 0 133 32q56 26 93 76q5 8 14 8q7 0 11.5 -4.5t4.5 -11.5
q0 -6 -4 -11q-39 -55 -105 -87q-69 -35 -148 -35q-85 0 -158.5 43t-117.5 118t-44 166q0 85 33.5 154t93.5 113.5t139 57.5q31 4 67 4q68 0 123.5 -22.5z" />
    <glyph glyph-name="Cacute" unicode="&#x106;" horiz-adv-x="667" 
d="M512.5 623.5q55.5 -22.5 104.5 -75.5q5 -7 5 -12q0 -6 -4.5 -10t-10.5 -4q-7 0 -13 6q-45 47 -91 66.5t-103 19.5q-30 0 -73 -5q-108 -17 -173.5 -93.5t-65.5 -197.5q0 -81 40 -149t106.5 -107t142.5 -39q72 0 133 32q56 26 93 76q5 8 14 8q7 0 11.5 -4.5t4.5 -11.5
q0 -6 -4 -11q-39 -55 -105 -87q-69 -35 -148 -35q-85 0 -158.5 43t-117.5 118t-44 166q0 85 33.5 154t93.5 113.5t139 57.5q31 4 67 4q68 0 123.5 -22.5zM458 834q8 0 14 -5.5t6 -13.5q0 -7 -5 -12l-90 -91q-6 -6 -12 -6t-10 4.5t-4 10.5q0 5 3 9l86 98q4 6 12 6z" />
    <glyph glyph-name="Ccaron" unicode="&#x10c;" horiz-adv-x="667" 
d="M512.5 623.5q55.5 -22.5 104.5 -75.5q5 -7 5 -12q0 -6 -4.5 -10t-10.5 -4q-7 0 -13 6q-45 47 -91 66.5t-103 19.5q-30 0 -73 -5q-108 -17 -173.5 -93.5t-65.5 -197.5q0 -81 40 -149t106.5 -107t142.5 -39q72 0 133 32q56 26 93 76q5 8 14 8q7 0 11.5 -4.5t4.5 -11.5
q0 -6 -4 -11q-39 -55 -105 -87q-69 -35 -148 -35q-85 0 -158.5 43t-117.5 118t-44 166q0 85 33.5 154t93.5 113.5t139 57.5q31 4 67 4q68 0 123.5 -22.5zM398 714q-2 -2 -6 -4.5t-6 -2.5q-3 0 -12 7l-102 90q-6 6 -6 12q0 5 4 9.5t10 4.5t11 -5l95 -83l95 83q7 5 11 5
q6 0 10 -4.5t4 -9.5q0 -7 -6 -12z" />
    <glyph glyph-name="Ccedilla" unicode="&#xc7;" horiz-adv-x="667" 
d="M617 139q7 0 11.5 -4.5t4.5 -11.5q0 -6 -4 -11q-39 -55 -105 -87q-62 -31 -127 -34l-27 -51q5 1 16 1q32 0 53.5 -19t21.5 -50q0 -35 -26 -55.5t-63 -20.5q-22 0 -42.5 8t-35.5 23q-6 6 -6 13q0 5 3.5 8.5t8.5 3.5q9 0 17 -7q27 -21 57 -21q24 0 40 13t16 34
q0 24 -15 34.5t-36 10.5q-10 0 -14 -1q-3 -1 -8 -1q-16 0 -16 12q0 3 4 15l23 49q-84 2 -155.5 45.5t-114 117.5t-42.5 164q0 85 33.5 154t93.5 113.5t139 57.5q31 4 67 4q68 0 123.5 -22.5t104.5 -75.5q5 -7 5 -12q0 -6 -4.5 -10t-10.5 -4q-7 0 -13 6q-45 47 -91 66.5
t-103 19.5q-30 0 -73 -5q-108 -17 -173.5 -93.5t-65.5 -197.5q0 -81 40 -149t106.5 -107t142.5 -39q72 0 133 32q56 26 93 76q5 8 14 8z" />
    <glyph glyph-name="Cdotaccent" unicode="&#x10a;" horiz-adv-x="667" 
d="M512.5 623.5q55.5 -22.5 104.5 -75.5q5 -7 5 -12q0 -6 -4.5 -10t-10.5 -4q-7 0 -13 6q-45 47 -91 66.5t-103 19.5q-30 0 -73 -5q-108 -17 -173.5 -93.5t-65.5 -197.5q0 -81 40 -149t106.5 -107t142.5 -39q72 0 133 32q56 26 93 76q5 8 14 8q7 0 11.5 -4.5t4.5 -11.5
q0 -6 -4 -11q-39 -55 -105 -87q-69 -35 -148 -35q-85 0 -158.5 43t-117.5 118t-44 166q0 85 33.5 154t93.5 113.5t139 57.5q31 4 67 4q68 0 123.5 -22.5zM413.5 793.5q11.5 -10.5 11.5 -25.5q0 -18 -11 -27.5t-25 -9.5q-15 0 -26 10.5t-11 26.5q0 15 11 25.5t26 10.5
q13 0 24.5 -10.5z" />
    <glyph glyph-name="D" unicode="D" horiz-adv-x="657" 
d="M80 0q-11 0 -19 7.5t-8 18.5v585q0 10 8 17.5t19 7.5h232q94 0 160.5 -45t100 -118t33.5 -155t-33.5 -155t-100 -118t-160.5 -45h-232zM312 31q83 0 142 40.5t89 106.5t30 141q0 74 -30 140t-89 106.5t-142 40.5h-226v-575h226z" />
    <glyph glyph-name="Eth" unicode="&#xd0;" horiz-adv-x="657" 
d="M472.5 591q66.5 -45 100 -118t33.5 -155t-33.5 -155t-100 -118t-160.5 -45h-232q-11 0 -19 7.5t-8 18.5v277h-57q-8 0 -12.5 3.5t-4.5 8.5t4.5 9t12.5 4h57v283q0 10 8 17.5t19 7.5h232q94 0 160.5 -45zM454 71.5q59 40.5 89 106.5t30 141q0 74 -30 140t-89 106.5
t-142 40.5h-226v-278h184q8 0 12 -3.5t4 -8.5q0 -6 -4 -9.5t-12 -3.5h-184v-272h226q83 0 142 40.5z" />
    <glyph glyph-name="Dcaron" unicode="&#x10e;" horiz-adv-x="657" 
d="M80 0q-11 0 -19 7.5t-8 18.5v585q0 10 8 17.5t19 7.5h232q94 0 160.5 -45t100 -118t33.5 -155t-33.5 -155t-100 -118t-160.5 -45h-232zM312 31q83 0 142 40.5t89 106.5t30 141q0 74 -30 140t-89 106.5t-142 40.5h-226v-575h226zM321 714q-7 -7 -12 -7t-12 7l-107 105
q-3 3 -3 8t4 9.5t10 4.5q7 0 13 -6l95 -93l95 93q6 6 13 6q6 0 10.5 -4.5t4.5 -9.5q0 -4 -4 -8z" />
    <glyph glyph-name="Dcroat" unicode="&#x110;" horiz-adv-x="657" 
d="M472.5 591q66.5 -45 100 -118t33.5 -155t-33.5 -155t-100 -118t-160.5 -45h-232q-11 0 -19 7.5t-8 18.5v277h-57q-8 0 -12.5 3.5t-4.5 8.5t4.5 9t12.5 4h57v283q0 10 8 17.5t19 7.5h232q94 0 160.5 -45zM454 71.5q59 40.5 89 106.5t30 141q0 74 -30 140t-89 106.5
t-142 40.5h-226v-278h184q8 0 12 -3.5t4 -8.5q0 -6 -4 -9.5t-12 -3.5h-184v-272h226q83 0 142 40.5z" />
    <glyph glyph-name="E" unicode="E" horiz-adv-x="639" 
d="M567 32q8 0 12 -4.5t4 -11.5t-4 -11.5t-12 -4.5h-448q-12 0 -19.5 8t-7.5 19v583q0 11 7.5 18.5t19.5 7.5h449q7 0 11 -4.5t4 -10.5t-4 -10.5t-12 -4.5h-442v-276h422q8 0 12 -4.5t4 -10.5t-4 -10.5t-12 -4.5h-422v-268h442z" />
    <glyph glyph-name="Eacute" unicode="&#xc9;" horiz-adv-x="639" 
d="M567 32q8 0 12 -4.5t4 -11.5t-4 -11.5t-12 -4.5h-448q-12 0 -19.5 8t-7.5 19v583q0 11 7.5 18.5t19.5 7.5h449q7 0 11 -4.5t4 -10.5t-4 -10.5t-12 -4.5h-442v-276h422q8 0 12 -4.5t4 -10.5t-4 -10.5t-12 -4.5h-422v-268h442zM416 834q8 0 14 -5.5t6 -13.5q0 -7 -5 -12
l-90 -91q-6 -6 -12 -6t-10 4.5t-4 10.5q0 5 3 9l86 98q4 6 12 6z" />
    <glyph glyph-name="Ecaron" unicode="&#x11a;" horiz-adv-x="639" 
d="M567 32q8 0 12 -4.5t4 -11.5t-4 -11.5t-12 -4.5h-448q-12 0 -19.5 8t-7.5 19v583q0 11 7.5 18.5t19.5 7.5h449q7 0 11 -4.5t4 -10.5t-4 -10.5t-12 -4.5h-442v-276h422q8 0 12 -4.5t4 -10.5t-4 -10.5t-12 -4.5h-422v-268h442zM356 714q-2 -2 -6 -4.5t-6 -2.5q-3 0 -12 7
l-102 90q-6 6 -6 12q0 5 4 9.5t10 4.5t11 -5l95 -83l95 83q7 5 11 5q6 0 10 -4.5t4 -9.5q0 -7 -6 -12z" />
    <glyph glyph-name="Ecircumflex" unicode="&#xca;" horiz-adv-x="639" 
d="M567 32q8 0 12 -4.5t4 -11.5t-4 -11.5t-12 -4.5h-448q-12 0 -19.5 8t-7.5 19v583q0 11 7.5 18.5t19.5 7.5h449q7 0 11 -4.5t4 -10.5t-4 -10.5t-12 -4.5h-442v-276h422q8 0 12 -4.5t4 -10.5t-4 -10.5t-12 -4.5h-422v-268h442zM467 721q0 -5 -4 -9.5t-10 -4.5t-11 5l-95 83
l-95 -83q-7 -5 -11 -5q-6 0 -10 4.5t-4 9.5q0 8 6 12l102 90q7 7 12 7q4 0 12 -7l102 -90q6 -6 6 -12z" />
    <glyph glyph-name="Edieresis" unicode="&#xcb;" horiz-adv-x="639" 
d="M567 32q8 0 12 -4.5t4 -11.5t-4 -11.5t-12 -4.5h-448q-12 0 -19.5 8t-7.5 19v583q0 11 7.5 18.5t19.5 7.5h449q7 0 11 -4.5t4 -10.5t-4 -10.5t-12 -4.5h-442v-276h422q8 0 12 -4.5t4 -10.5t-4 -10.5t-12 -4.5h-422v-268h442zM271.5 789.5q9.5 -8.5 9.5 -21.5
q0 -15 -9.5 -23t-20.5 -8q-13 0 -22 8.5t-9 22.5q0 13 9 21.5t22 8.5q11 0 20.5 -8.5zM464.5 789.5q9.5 -8.5 9.5 -21.5q0 -15 -9 -23t-22 -8q-11 0 -20.5 8.5t-9.5 22.5q0 13 9.5 21.5t20.5 8.5q12 0 21.5 -8.5z" />
    <glyph glyph-name="Edotaccent" unicode="&#x116;" horiz-adv-x="639" 
d="M567 32q8 0 12 -4.5t4 -11.5t-4 -11.5t-12 -4.5h-448q-12 0 -19.5 8t-7.5 19v583q0 11 7.5 18.5t19.5 7.5h449q7 0 11 -4.5t4 -10.5t-4 -10.5t-12 -4.5h-442v-276h422q8 0 12 -4.5t4 -10.5t-4 -10.5t-12 -4.5h-422v-268h442zM371.5 793.5q11.5 -10.5 11.5 -25.5
q0 -18 -11 -27.5t-25 -9.5q-15 0 -26 10.5t-11 26.5q0 15 11 25.5t26 10.5q13 0 24.5 -10.5z" />
    <glyph glyph-name="Egrave" unicode="&#xc8;" horiz-adv-x="639" 
d="M567 32q8 0 12 -4.5t4 -11.5t-4 -11.5t-12 -4.5h-448q-12 0 -19.5 8t-7.5 19v583q0 11 7.5 18.5t19.5 7.5h449q7 0 11 -4.5t4 -10.5t-4 -10.5t-12 -4.5h-442v-276h422q8 0 12 -4.5t4 -10.5t-4 -10.5t-12 -4.5h-422v-268h442zM381 735q3 -3 3 -8q0 -6 -4 -11t-10 -5t-12 6
l-90 91q-5 5 -5 13q0 7 5.5 12.5t13.5 5.5q7 0 13 -6z" />
    <glyph glyph-name="Emacron" unicode="&#x112;" horiz-adv-x="639" 
d="M567 32q8 0 12 -4.5t4 -11.5t-4 -11.5t-12 -4.5h-448q-12 0 -19.5 8t-7.5 19v583q0 11 7.5 18.5t19.5 7.5h449q7 0 11 -4.5t4 -10.5t-4 -10.5t-12 -4.5h-442v-276h422q8 0 12 -4.5t4 -10.5t-4 -10.5t-12 -4.5h-422v-268h442zM450 760.5q7 -4.5 7 -10.5t-7 -11t-19 -5
h-179q-13 0 -20 4.5t-7 10.5q0 7 7 11.5t20 4.5h179q12 0 19 -4.5z" />
    <glyph glyph-name="Eogonek" unicode="&#x118;" horiz-adv-x="639" 
d="M610 -135q5 0 8 -3t3 -8q0 -8 -7 -18q-13 -20 -28 -29.5t-38 -9.5q-33 0 -51 18.5t-18 50.5q0 33 20 66.5t50 67.5h-430q-12 0 -19.5 8t-7.5 19v583q0 11 7.5 18.5t19.5 7.5h449q7 0 11 -4.5t4 -10.5t-4 -10.5t-12 -4.5h-442v-276h422q8 0 12 -4.5t4 -10.5t-4 -10.5
t-12 -4.5h-422v-268h442q8 0 12 -4.5t4 -10.5q0 -5 -3 -10l1 -4q0 -9 -9 -18q-24 -27 -43 -59.5t-19 -58.5q0 -19 11 -30t26 -11q25 0 40 23q10 16 23 16z" />
    <glyph glyph-name="F" unicode="F" horiz-adv-x="617" 
d="M101.5 628.5q7.5 7.5 17.5 7.5h437q8 0 12 -4.5t4 -10.5t-4 -10.5t-12 -4.5h-430v-303h410q8 0 12 -4t4 -10t-4 -10.5t-12 -4.5h-410v-257q0 -8 -5 -12.5t-11 -4.5t-11 4.5t-5 11.5v594q0 11 7.5 18.5z" />
    <glyph glyph-name="G" unicode="G" horiz-adv-x="705" 
d="M506 21.5q-67 -31.5 -140 -31.5q-84 0 -157 42.5t-116.5 116.5t-43.5 165q0 78 33.5 148.5t94 118.5t137.5 61q23 4 52 4q68 0 131 -23t103 -68q5 -5 5 -13q0 -7 -4.5 -11.5t-11.5 -4.5t-13 6q-36 40 -91.5 60.5t-116.5 20.5q-17 0 -49 -4q-69 -11 -123 -54t-84.5 -107
t-30.5 -133q0 -81 39.5 -148t105 -105.5t141.5 -38.5q67 0 128.5 29t97.5 81v167h-213q-6 0 -10 4.5t-4 10.5t4 10.5t10 4.5h225q18 0 18 -19v-178q0 -16 -7 -23q-43 -57 -110 -88.5z" />
    <glyph glyph-name="Gbreve" unicode="&#x11e;" horiz-adv-x="705" 
d="M506 21.5q-67 -31.5 -140 -31.5q-84 0 -157 42.5t-116.5 116.5t-43.5 165q0 78 33.5 148.5t94 118.5t137.5 61q23 4 52 4q68 0 131 -23t103 -68q5 -5 5 -13q0 -7 -4.5 -11.5t-11.5 -4.5t-13 6q-36 40 -91.5 60.5t-116.5 20.5q-17 0 -49 -4q-69 -11 -123 -54t-84.5 -107
t-30.5 -133q0 -81 39.5 -148t105 -105.5t141.5 -38.5q67 0 128.5 29t97.5 81v167h-213q-6 0 -10 4.5t-4 10.5t4 10.5t10 4.5h225q18 0 18 -19v-178q0 -16 -7 -23q-43 -57 -110 -88.5zM459 817q8 0 13 -7t2 -16q-13 -44 -38 -64.5t-69 -20.5t-69 20.5t-38 64.5q-3 9 2 16
t13 7q11 0 17 -16q12 -35 29 -49t46 -13q29 -1 46 13t29 49q6 16 17 16z" />
    <glyph glyph-name="uni0122" unicode="&#x122;" horiz-adv-x="705" 
d="M506 21.5q-67 -31.5 -140 -31.5q-84 0 -157 42.5t-116.5 116.5t-43.5 165q0 78 33.5 148.5t94 118.5t137.5 61q23 4 52 4q68 0 131 -23t103 -68q5 -5 5 -13q0 -7 -4.5 -11.5t-11.5 -4.5t-13 6q-36 40 -91.5 60.5t-116.5 20.5q-17 0 -49 -4q-69 -11 -123 -54t-84.5 -107
t-30.5 -133q0 -81 39.5 -148t105 -105.5t141.5 -38.5q67 0 128.5 29t97.5 81v167h-213q-6 0 -10 4.5t-4 10.5t4 10.5t10 4.5h225q18 0 18 -19v-178q0 -16 -7 -23q-43 -57 -110 -88.5zM338 -249q-6 -6 -12 -6q-4 0 -6.5 3t-2.5 8l2 9l31 105q6 19 18 19q5 0 9 -5t4 -14
q0 -8 -2 -13l-31 -89q-4 -11 -10 -17z" />
    <glyph glyph-name="Gdotaccent" unicode="&#x120;" horiz-adv-x="705" 
d="M506 21.5q-67 -31.5 -140 -31.5q-84 0 -157 42.5t-116.5 116.5t-43.5 165q0 78 33.5 148.5t94 118.5t137.5 61q23 4 52 4q68 0 131 -23t103 -68q5 -5 5 -13q0 -7 -4.5 -11.5t-11.5 -4.5t-13 6q-36 40 -91.5 60.5t-116.5 20.5q-17 0 -49 -4q-69 -11 -123 -54t-84.5 -107
t-30.5 -133q0 -81 39.5 -148t105 -105.5t141.5 -38.5q67 0 128.5 29t97.5 81v167h-213q-6 0 -10 4.5t-4 10.5t4 10.5t10 4.5h225q18 0 18 -19v-178q0 -16 -7 -23q-43 -57 -110 -88.5zM390.5 793.5q11.5 -10.5 11.5 -25.5q0 -18 -11 -27.5t-25 -9.5q-15 0 -26 10.5t-11 26.5
q0 15 11 25.5t26 10.5q13 0 24.5 -10.5z" />
    <glyph glyph-name="H" unicode="H" horiz-adv-x="683" 
d="M557 320v297q0 9 5 14t12 5t12 -5t5 -14v-600q0 -8 -5 -12.5t-12 -4.5t-12 4.5t-5 12.5v273l-434 1v-274q0 -8 -5 -12.5t-11 -4.5q-7 0 -12 4.5t-5 12.5v600q0 9 5 14t12 5t11.5 -5t4.5 -14v-297h434z" />
    <glyph glyph-name="Hbar" unicode="&#x126;" horiz-adv-x="683" 
d="M659 476.5q4 -3.5 4 -8.5q0 -6 -4 -9.5t-12 -3.5h-56v-438q0 -8 -5 -12.5t-12 -4.5t-12 4.5t-5 12.5v273l-434 1v-274q0 -8 -5 -12.5t-11 -4.5q-7 0 -12 4.5t-5 12.5v438h-55q-8 0 -12.5 3.5t-4.5 8.5t4.5 9t12.5 4h55v137q0 9 5 14t12 5t11.5 -5t4.5 -14v-137h434v137
q0 9 5 14t12 5t12 -5t5 -14v-137h56q8 0 12 -3.5zM557 455h-434v-135h434v135z" />
    <glyph glyph-name="I" unicode="I" horiz-adv-x="220" 
d="M97.5 631q5.5 5 12.5 5t12.5 -5t5.5 -14v-600q0 -8 -5.5 -12.5t-12.5 -4.5t-12.5 4.5t-5.5 12.5v600q0 9 5.5 14z" />
    <glyph glyph-name="IJ" unicode="&#x132;" horiz-adv-x="799" 
d="M97.5 631q5.5 5 12.5 5t12.5 -5t5.5 -14v-600q0 -8 -5.5 -12.5t-12.5 -4.5t-12.5 4.5t-5.5 12.5v600q0 9 5.5 14zM452 603q-8 0 -12.5 5t-4.5 12q0 6 4.5 11t12.5 5h240q6 0 10.5 -5t5.5 -12v-400q0 -64 -35.5 -116.5t-94 -82.5t-122.5 -30q-69 0 -127 35
q-46 28 -73.5 73.5t-29.5 96.5q0 7 5.5 12t12.5 5t11.5 -4.5t4.5 -12.5q2 -43 25 -81.5t60 -60.5q50 -30 111 -30q56 0 107.5 26t83 71t31.5 99v384h-226z" />
    <glyph glyph-name="Iacute" unicode="&#xcd;" horiz-adv-x="220" 
d="M97.5 631q5.5 5 12.5 5t12.5 -5t5.5 -14v-600q0 -8 -5.5 -12.5t-12.5 -4.5t-12.5 4.5t-5.5 12.5v600q0 9 5.5 14zM179 834q8 0 14 -5.5t6 -13.5q0 -7 -5 -12l-90 -91q-6 -6 -12 -6t-10 4.5t-4 10.5q0 5 3 9l86 98q4 6 12 6z" />
    <glyph glyph-name="Icircumflex" unicode="&#xce;" horiz-adv-x="220" 
d="M97.5 631q5.5 5 12.5 5t12.5 -5t5.5 -14v-600q0 -8 -5.5 -12.5t-12.5 -4.5t-12.5 4.5t-5.5 12.5v600q0 9 5.5 14zM230 721q0 -5 -4 -9.5t-10 -4.5t-11 5l-95 83l-95 -83q-7 -5 -11 -5q-6 0 -10 4.5t-4 9.5q0 8 6 12l102 90q7 7 12 7q4 0 12 -7l102 -90q6 -6 6 -12z" />
    <glyph glyph-name="Idieresis" unicode="&#xcf;" horiz-adv-x="220" 
d="M65.5 789.5q9.5 -8.5 9.5 -21.5q0 -15 -9.5 -23t-20.5 -8q-13 0 -22 8.5t-9 22.5q0 13 9 21.5t22 8.5q11 0 20.5 -8.5zM197.5 789.5q9.5 -8.5 9.5 -21.5q0 -15 -9 -23t-22 -8q-11 0 -20.5 8.5t-9.5 22.5q0 13 9.5 21.5t20.5 8.5q12 0 21.5 -8.5zM97.5 631q5.5 5 12.5 5
t12.5 -5t5.5 -14v-600q0 -8 -5.5 -12.5t-12.5 -4.5t-12.5 4.5t-5.5 12.5v600q0 9 5.5 14z" />
    <glyph glyph-name="Idotaccent" unicode="&#x130;" horiz-adv-x="220" 
d="M97.5 631q5.5 5 12.5 5t12.5 -5t5.5 -14v-600q0 -8 -5.5 -12.5t-12.5 -4.5t-12.5 4.5t-5.5 12.5v600q0 9 5.5 14zM134.5 793.5q11.5 -10.5 11.5 -25.5q0 -18 -11 -27.5t-25 -9.5q-15 0 -26 10.5t-11 26.5q0 15 11 25.5t26 10.5q13 0 24.5 -10.5z" />
    <glyph glyph-name="Igrave" unicode="&#xcc;" horiz-adv-x="220" 
d="M97.5 631q5.5 5 12.5 5t12.5 -5t5.5 -14v-600q0 -8 -5.5 -12.5t-12.5 -4.5t-12.5 4.5t-5.5 12.5v600q0 9 5.5 14zM144 735q3 -3 3 -8q0 -6 -4 -11t-10 -5t-12 6l-90 91q-5 5 -5 13q0 7 5.5 12.5t13.5 5.5q7 0 13 -6z" />
    <glyph glyph-name="Imacron" unicode="&#x12a;" horiz-adv-x="220" 
d="M97.5 631q5.5 5 12.5 5t12.5 -5t5.5 -14v-600q0 -8 -5.5 -12.5t-12.5 -4.5t-12.5 4.5t-5.5 12.5v600q0 9 5.5 14zM213 760.5q7 -4.5 7 -10.5t-7 -11t-19 -5h-179q-13 0 -20 4.5t-7 10.5q0 7 7 11.5t20 4.5h179q12 0 19 -4.5z" />
    <glyph glyph-name="Iogonek" unicode="&#x12e;" horiz-adv-x="220" 
d="M151 -135q5 0 8 -3t3 -8q0 -8 -7 -18q-13 -20 -28 -29.5t-38 -9.5q-33 0 -51 18.5t-18 50.5q0 34 20.5 67.5t52.5 69.5l3 3q-4 6 -4 11v600q0 9 5.5 14t12.5 5t12.5 -5t5.5 -14v-600q0 -7 -6 -13q0 -9 -9 -19q-24 -27 -43 -59.5t-19 -58.5q0 -19 11 -30t26 -11
q25 0 40 23q10 16 23 16z" />
    <glyph glyph-name="J" unicode="J" horiz-adv-x="579" 
d="M232 603q-8 0 -12.5 5t-4.5 12q0 6 4.5 11t12.5 5h240q6 0 10.5 -5t5.5 -12v-400q0 -64 -35.5 -116.5t-94 -82.5t-122.5 -30q-69 0 -127 35q-46 28 -73.5 73.5t-29.5 96.5q0 7 5.5 12t12.5 5t11.5 -4.5t4.5 -12.5q2 -43 25 -81.5t60 -60.5q50 -30 111 -30q56 0 107.5 26
t83 71t31.5 99v384h-226z" />
    <glyph glyph-name="K" unicode="K" horiz-adv-x="627" 
d="M557 636q7 0 13 -5.5t6 -11.5q0 -7 -5 -11l-289 -256l310 -324q6 -6 6 -12t-5.5 -11t-12.5 -5q-6 0 -12 6l-310 325l-133 -118v-197q0 -7 -5 -11.5t-12 -4.5t-12 4.5t-5 11.5v603q0 7 5 12t12 5t12 -5t5 -12v-367l420 379q7 5 12 5z" />
    <glyph glyph-name="uni0136" unicode="&#x136;" horiz-adv-x="627" 
d="M557 636q7 0 13 -5.5t6 -11.5q0 -7 -5 -11l-289 -256l310 -324q6 -6 6 -12t-5.5 -11t-12.5 -5q-6 0 -12 6l-310 325l-133 -118v-197q0 -7 -5 -11.5t-12 -4.5t-12 4.5t-5 11.5v603q0 7 5 12t12 5t12 -5t5 -12v-367l420 379q7 5 12 5zM301 -249q-6 -6 -12 -6q-4 0 -6.5 3
t-2.5 8l2 9l31 105q6 19 18 19q5 0 9 -5t4 -14q0 -8 -2 -13l-31 -89q-4 -11 -10 -17z" />
    <glyph glyph-name="L" unicode="L" horiz-adv-x="576" 
d="M93 19v598q0 9 5 14t12 5t12 -5t5 -14v-586h420q8 0 12.5 -4.5t4.5 -10.5t-4.5 -11t-12.5 -5h-436q-18 0 -18 19z" />
    <glyph glyph-name="Lacute" unicode="&#x139;" horiz-adv-x="576" 
d="M93 19v598q0 9 5 14t12 5t12 -5t5 -14v-586h420q8 0 12.5 -4.5t4.5 -10.5t-4.5 -11t-12.5 -5h-436q-18 0 -18 19zM179 834q8 0 14 -5.5t6 -13.5q0 -7 -5 -12l-90 -91q-6 -6 -12 -6t-10 4.5t-4 10.5q0 5 3 9l86 98q4 6 12 6z" />
    <glyph glyph-name="Lcaron" unicode="&#x13d;" horiz-adv-x="576" 
d="M93 19v598q0 9 5 14t12 5t12 -5t5 -14v-586h420q8 0 12.5 -4.5t4.5 -10.5t-4.5 -11t-12.5 -5h-436q-18 0 -18 19zM445 478q-7 0 -12 4t-5 11q0 5 2 8l45 101q7 15 19 15q6 0 11 -5t5 -12q0 -5 -3 -11l-48 -102q-4 -9 -14 -9z" />
    <glyph glyph-name="uni013B" unicode="&#x13b;" horiz-adv-x="576" 
d="M93 19v598q0 9 5 14t12 5t12 -5t5 -14v-586h420q8 0 12.5 -4.5t4.5 -10.5t-4.5 -11t-12.5 -5h-436q-18 0 -18 19zM317 -249q-6 -6 -12 -6q-4 0 -6.5 3t-2.5 8l2 9l31 105q6 19 18 19q5 0 9 -5t4 -14q0 -8 -2 -13l-31 -89q-4 -11 -10 -17z" />
    <glyph glyph-name="Ldot" unicode="&#x13f;" horiz-adv-x="576" 
d="M93 19v598q0 9 5 14t12 5t12 -5t5 -14v-586h420q8 0 12.5 -4.5t4.5 -10.5t-4.5 -11t-12.5 -5h-436q-18 0 -18 19zM331 321.5q7 -7.5 7 -18.5t-7 -18t-18 -7t-18.5 7t-7.5 18t7.5 18.5t18.5 7.5t18 -7.5z" />
    <glyph glyph-name="Lslash" unicode="&#x141;" horiz-adv-x="576" 
d="M559.5 26.5q4.5 -4.5 4.5 -10.5t-4.5 -11t-12.5 -5h-436q-18 0 -18 19v267l-75 -27l-8 -2q-5 0 -8.5 3t-3.5 8q0 10 12 14l83 30v305q0 9 5 14t12 5t12 -5t5 -14v-292l131 48q2 1 7 1q6 0 9.5 -3.5t3.5 -8.5q0 -8 -12 -13l-139 -50v-268h420q8 0 12.5 -4.5z" />
    <glyph glyph-name="M" unicode="M" horiz-adv-x="802" 
d="M695 636q7 0 11.5 -4.5t4.5 -13.5v-600q0 -8 -5 -13t-12 -5t-12 4.5t-5 13.5v546l-258 -405q-6 -11 -17 -11q-12 0 -18 11l-258 403v-544q0 -9 -5 -13.5t-12 -4.5t-12 5t-5 13v600q0 9 5 13.5t11 4.5q10 0 16 -10l278 -433l276 433q7 10 17 10z" />
    <glyph glyph-name="N" unicode="N" horiz-adv-x="687" 
d="M565 631q5 5 12 5t12 -5t5 -14v-597q0 -9 -4.5 -14t-10.5 -5q-11 0 -20 11l-435 563v-557q0 -8 -4.5 -13t-11.5 -5t-12 4.5t-5 13.5v597q0 10 4.5 15.5t11.5 5.5q11 0 19 -11l434 -563v555q0 9 5 14z" />
    <glyph glyph-name="Nacute" unicode="&#x143;" horiz-adv-x="687" 
d="M565 631q5 5 12 5t12 -5t5 -14v-597q0 -9 -4.5 -14t-10.5 -5q-11 0 -20 11l-435 563v-557q0 -8 -4.5 -13t-11.5 -5t-12 4.5t-5 13.5v597q0 10 4.5 15.5t11.5 5.5q11 0 19 -11l434 -563v555q0 9 5 14zM416 834q8 0 14 -5.5t6 -13.5q0 -7 -5 -12l-90 -91q-6 -6 -12 -6
t-10 4.5t-4 10.5q0 5 3 9l86 98q4 6 12 6z" />
    <glyph glyph-name="Ncaron" unicode="&#x147;" horiz-adv-x="687" 
d="M565 631q5 5 12 5t12 -5t5 -14v-597q0 -9 -4.5 -14t-10.5 -5q-11 0 -20 11l-435 563v-557q0 -8 -4.5 -13t-11.5 -5t-12 4.5t-5 13.5v597q0 10 4.5 15.5t11.5 5.5q11 0 19 -11l434 -563v555q0 9 5 14zM356 714q-2 -2 -6 -4.5t-6 -2.5q-3 0 -12 7l-102 90q-6 6 -6 12
q0 5 4 9.5t10 4.5t11 -5l95 -83l95 83q7 5 11 5q6 0 10 -4.5t4 -9.5q0 -7 -6 -12z" />
    <glyph glyph-name="uni0145" unicode="&#x145;" horiz-adv-x="687" 
d="M565 631q5 5 12 5t12 -5t5 -14v-597q0 -9 -4.5 -14t-10.5 -5q-11 0 -20 11l-435 563v-557q0 -8 -4.5 -13t-11.5 -5t-12 4.5t-5 13.5v597q0 10 4.5 15.5t11.5 5.5q11 0 19 -11l434 -563v555q0 9 5 14zM320 -249q-6 -6 -12 -6q-4 0 -6.5 3t-2.5 8l2 9l31 105q6 19 18 19
q5 0 9 -5t4 -14q0 -8 -2 -13l-31 -89q-4 -11 -10 -17z" />
    <glyph glyph-name="Eng" unicode="&#x14a;" horiz-adv-x="687" 
d="M589 631q5 -5 5 -14v-597q0 -77 -19 -127t-80 -84q-10 -4 -17 2t-7 15q0 11 12 16q34 21 50.5 45.5t21.5 52.5t5 71l-436 564v-557q0 -8 -4.5 -13t-11.5 -5t-12 4.5t-5 13.5v597q0 10 4.5 15.5t11.5 5.5q11 0 19 -11l434 -563v555q0 9 5 14t12 5t12 -5z" />
    <glyph glyph-name="Ntilde" unicode="&#xd1;" horiz-adv-x="687" 
d="M565 631q5 5 12 5t12 -5t5 -14v-597q0 -9 -4.5 -14t-10.5 -5q-11 0 -20 11l-435 563v-557q0 -8 -4.5 -13t-11.5 -5t-12 4.5t-5 13.5v597q0 10 4.5 15.5t11.5 5.5q11 0 19 -11l434 -563v555q0 9 5 14zM243 807.5q19 14.5 45 14.5q17 0 31.5 -9.5t35.5 -28.5
q19 -18 31.5 -26.5t26.5 -8.5q24 0 36.5 14.5t21.5 36.5q4 10 12 10q5 0 8.5 -4t3.5 -10t-3 -12q-12 -27 -30.5 -44t-51.5 -17q-18 0 -33.5 10.5t-36.5 30.5q-18 17 -29 25t-22 8q-21 1 -31.5 -10t-16.5 -33q-3 -9 -13 -9q-7 0 -11 5t-1 15q8 28 27 42.5z" />
    <glyph glyph-name="O" unicode="O" horiz-adv-x="745" 
d="M212 34.5q-74 44.5 -117 122.5t-41 172q3 107 50 178t117.5 105t144.5 34q75 0 149.5 -36t124.5 -110.5t50 -181.5q0 -92 -43.5 -167t-116.5 -118t-158 -43q-86 0 -160 44.5zM127 168.5q39 -68.5 104.5 -108t140.5 -39.5q76 0 141.5 39.5t104.5 108t39 150.5
q0 99 -45 165.5t-112.5 98t-133.5 31.5q-69 0 -132.5 -31.5t-104.5 -98t-41 -165.5q0 -82 39 -150.5z" />
    <glyph glyph-name="Oacute" unicode="&#xd3;" horiz-adv-x="745" 
d="M212 34.5q-74 44.5 -117 122.5t-41 172q3 107 50 178t117.5 105t144.5 34q75 0 149.5 -36t124.5 -110.5t50 -181.5q0 -92 -43.5 -167t-116.5 -118t-158 -43q-86 0 -160 44.5zM127 168.5q39 -68.5 104.5 -108t140.5 -39.5q76 0 141.5 39.5t104.5 108t39 150.5
q0 99 -45 165.5t-112.5 98t-133.5 31.5q-69 0 -132.5 -31.5t-104.5 -98t-41 -165.5q0 -82 39 -150.5zM435 834q8 0 14 -5.5t6 -13.5q0 -7 -5 -12l-90 -91q-6 -6 -12 -6t-10 4.5t-4 10.5q0 5 3 9l86 98q4 6 12 6z" />
    <glyph glyph-name="Ocircumflex" unicode="&#xd4;" horiz-adv-x="745" 
d="M212 34.5q-74 44.5 -117 122.5t-41 172q3 107 50 178t117.5 105t144.5 34q75 0 149.5 -36t124.5 -110.5t50 -181.5q0 -92 -43.5 -167t-116.5 -118t-158 -43q-86 0 -160 44.5zM127 168.5q39 -68.5 104.5 -108t140.5 -39.5q76 0 141.5 39.5t104.5 108t39 150.5
q0 99 -45 165.5t-112.5 98t-133.5 31.5q-69 0 -132.5 -31.5t-104.5 -98t-41 -165.5q0 -82 39 -150.5zM486 721q0 -5 -4 -9.5t-10 -4.5t-11 5l-95 83l-95 -83q-7 -5 -11 -5q-6 0 -10 4.5t-4 9.5q0 8 6 12l102 90q7 7 12 7q4 0 12 -7l102 -90q6 -6 6 -12z" />
    <glyph glyph-name="Odieresis" unicode="&#xd6;" horiz-adv-x="745" 
d="M212 34.5q-74 44.5 -117 122.5t-41 172q3 107 50 178t117.5 105t144.5 34q75 0 149.5 -36t124.5 -110.5t50 -181.5q0 -92 -43.5 -167t-116.5 -118t-158 -43q-86 0 -160 44.5zM127 168.5q39 -68.5 104.5 -108t140.5 -39.5q76 0 141.5 39.5t104.5 108t39 150.5
q0 99 -45 165.5t-112.5 98t-133.5 31.5q-69 0 -132.5 -31.5t-104.5 -98t-41 -165.5q0 -82 39 -150.5zM290.5 789.5q9.5 -8.5 9.5 -21.5q0 -15 -9.5 -23t-20.5 -8q-13 0 -22 8.5t-9 22.5q0 13 9 21.5t22 8.5q11 0 20.5 -8.5zM483.5 789.5q9.5 -8.5 9.5 -21.5q0 -15 -9 -23
t-22 -8q-11 0 -20.5 8.5t-9.5 22.5q0 13 9.5 21.5t20.5 8.5q12 0 21.5 -8.5z" />
    <glyph glyph-name="Ograve" unicode="&#xd2;" horiz-adv-x="745" 
d="M212 34.5q-74 44.5 -117 122.5t-41 172q3 107 50 178t117.5 105t144.5 34q75 0 149.5 -36t124.5 -110.5t50 -181.5q0 -92 -43.5 -167t-116.5 -118t-158 -43q-86 0 -160 44.5zM127 168.5q39 -68.5 104.5 -108t140.5 -39.5q76 0 141.5 39.5t104.5 108t39 150.5
q0 99 -45 165.5t-112.5 98t-133.5 31.5q-69 0 -132.5 -31.5t-104.5 -98t-41 -165.5q0 -82 39 -150.5zM400 735q3 -3 3 -8q0 -6 -4 -11t-10 -5t-12 6l-90 91q-5 5 -5 13q0 7 5.5 12.5t13.5 5.5q7 0 13 -6z" />
    <glyph glyph-name="Ohungarumlaut" unicode="&#x150;" horiz-adv-x="745" 
d="M212 34.5q-74 44.5 -117 122.5t-41 172q3 107 50 178t117.5 105t144.5 34q75 0 149.5 -36t124.5 -110.5t50 -181.5q0 -92 -43.5 -167t-116.5 -118t-158 -43q-86 0 -160 44.5zM127 168.5q39 -68.5 104.5 -108t140.5 -39.5q76 0 141.5 39.5t104.5 108t39 150.5
q0 99 -45 165.5t-112.5 98t-133.5 31.5q-69 0 -132.5 -31.5t-104.5 -98t-41 -165.5q0 -82 39 -150.5zM364 841q8 0 13.5 -5t5.5 -12q0 -6 -4 -11l-66 -93q-6 -7 -12 -7q-8 0 -12.5 7.5t-0.5 14.5l62 99q4 7 14 7zM472 841q8 0 14 -5t6 -12q0 -3 -4 -11l-67 -93q-6 -7 -12 -7
q-8 0 -12.5 7.5t-0.5 14.5l62 99q4 7 14 7z" />
    <glyph glyph-name="Omacron" unicode="&#x14c;" horiz-adv-x="745" 
d="M212 34.5q-74 44.5 -117 122.5t-41 172q3 107 50 178t117.5 105t144.5 34q75 0 149.5 -36t124.5 -110.5t50 -181.5q0 -92 -43.5 -167t-116.5 -118t-158 -43q-86 0 -160 44.5zM127 168.5q39 -68.5 104.5 -108t140.5 -39.5q76 0 141.5 39.5t104.5 108t39 150.5
q0 99 -45 165.5t-112.5 98t-133.5 31.5q-69 0 -132.5 -31.5t-104.5 -98t-41 -165.5q0 -82 39 -150.5zM469 760.5q7 -4.5 7 -10.5t-7 -11t-19 -5h-179q-13 0 -20 4.5t-7 10.5q0 7 7 11.5t20 4.5h179q12 0 19 -4.5z" />
    <glyph glyph-name="Oslash" unicode="&#xd8;" horiz-adv-x="745" 
d="M646.5 151q-43.5 -75 -116.5 -118t-158 -43q-78 0 -149 38l-49 -88q-6 -10 -13 -10q-5 0 -8 3.5t-3 8.5t3 10l50 89q-70 45 -110.5 120.5t-38.5 167.5q3 107 50 178t117.5 105t144.5 34q82 0 154 -39l50 89q5 9 13 9q5 0 8 -3.5t3 -8.5q0 -4 -3 -9l-50 -89
q67 -40 108 -110t41 -167q0 -92 -43.5 -167zM121 178q35 -69 97 -110l286 510q-66 36 -138 36q-67 0 -130 -30.5t-104 -95t-44 -160.5q-2 -81 33 -150zM513.5 60.5q65.5 39.5 104.5 108t39 150.5q0 74 -36 139.5t-97 106.5l-285 -510q60 -34 133 -34q76 0 141.5 39.5z" />
    <glyph glyph-name="Otilde" unicode="&#xd5;" horiz-adv-x="745" 
d="M212 34.5q-74 44.5 -117 122.5t-41 172q3 107 50 178t117.5 105t144.5 34q75 0 149.5 -36t124.5 -110.5t50 -181.5q0 -92 -43.5 -167t-116.5 -118t-158 -43q-86 0 -160 44.5zM127 168.5q39 -68.5 104.5 -108t140.5 -39.5q76 0 141.5 39.5t104.5 108t39 150.5
q0 99 -45 165.5t-112.5 98t-133.5 31.5q-69 0 -132.5 -31.5t-104.5 -98t-41 -165.5q0 -82 39 -150.5zM262 807.5q19 14.5 45 14.5q17 0 31.5 -9.5t35.5 -28.5q19 -18 31.5 -26.5t26.5 -8.5q24 0 36.5 14.5t21.5 36.5q4 10 12 10q5 0 8.5 -4t3.5 -10t-3 -12
q-12 -27 -30.5 -44t-51.5 -17q-18 0 -33.5 10.5t-36.5 30.5q-18 17 -29 25t-22 8q-21 1 -31.5 -10t-16.5 -33q-3 -9 -13 -9q-7 0 -11 5t-1 15q8 28 27 42.5z" />
    <glyph glyph-name="OE" unicode="&#x152;" horiz-adv-x="1082" 
d="M1010 32q8 0 12 -4.5t4 -11.5t-4 -11.5t-12 -4.5h-406q-12 0 -19.5 8t-7.5 19v38q-42 -37 -95 -56t-110 -19q-84 0 -157.5 43.5t-117 119t-43.5 167.5q0 108 47 181.5t119 109t146 35.5q59 0 111.5 -16t99.5 -57v37q0 11 7.5 18.5t19.5 7.5h407q7 0 11 -4.5t4 -10.5
t-4 -10.5t-12 -4.5h-400v-276h380q8 0 12 -4.5t4 -10.5t-4 -10.5t-12 -4.5h-380v-268h400zM127 168.5q39 -68.5 104.5 -108t140.5 -39.5q61 0 113.5 20.5t91.5 62.5v429q-84 81 -210 81q-69 0 -133 -32t-105 -98.5t-41 -164.5q0 -82 39 -150.5z" />
    <glyph glyph-name="P" unicode="P" horiz-adv-x="640" 
d="M125 17q0 -8 -5 -12.5t-12 -4.5q-6 0 -11 4.5t-5 11.5v603q0 7 5 12t12 5h227q81 0 138.5 -32t87 -84t29.5 -111q0 -60 -28.5 -108t-85.5 -76t-140 -28h-212v-180zM337 228q73 0 122.5 25t73.5 65t24 87q0 51 -26.5 97t-76.5 74.5t-117 28.5h-212v-377h212z" />
    <glyph glyph-name="Thorn" unicode="&#xde;" horiz-adv-x="634" 
d="M97 631.5q5 4.5 11 4.5q7 0 12 -4.5t5 -12.5v-81h211q81 0 138.5 -32t87 -84t29.5 -111q0 -60 -28.5 -108t-85.5 -76t-140 -28h-212v-82q0 -8 -5 -12.5t-12 -4.5q-6 0 -11 4.5t-5 11.5v604q0 7 5 11.5zM337 130q73 0 122.5 25t73.5 65t24 87q0 51 -26.5 97t-76.5 74.5
t-117 28.5h-212v-377h212z" />
    <glyph glyph-name="Q" unicode="Q" horiz-adv-x="753" 
d="M670 29q6 -6 6 -13t-4.5 -11.5t-10.5 -4.5q-7 0 -13 6l-64 67q-43 -40 -98 -61.5t-114 -21.5q-86 0 -160 44.5t-117 122.5t-41 172q3 107 50 178t117.5 105t144.5 34q75 0 149.5 -36t124.5 -110.5t50 -182.5q0 -64 -22 -121t-62 -101zM474 41q49 20 88 56l-74 77
q-6 6 -6 12q0 7 4.5 11.5t10.5 4.5q7 0 13 -7l73 -76q35 41 54.5 92.5t19.5 108.5q0 99 -45.5 165t-112.5 97.5t-133 31.5q-69 0 -132.5 -31.5t-104.5 -98t-41 -165.5q0 -82 39 -150.5t104.5 -108t140.5 -39.5q53 0 102 20z" />
    <glyph glyph-name="R" unicode="R" horiz-adv-x="657" 
d="M125 17q0 -8 -5 -12.5t-12 -4.5q-6 0 -11 4.5t-5 11.5v603q0 8 5 12.5t12 4.5h252q82 0 139.5 -28t86.5 -75t29 -105q0 -83 -55.5 -135t-162.5 -60l200 -204q6 -6 6 -13t-4.5 -11.5t-10.5 -4.5t-12 6l-218 228h-234v-217zM362 263q109 0 164.5 45t55.5 116
q0 50 -26.5 91.5t-76 65.5t-117.5 24h-237v-342h237z" />
    <glyph glyph-name="Racute" unicode="&#x154;" horiz-adv-x="657" 
d="M125 17q0 -8 -5 -12.5t-12 -4.5q-6 0 -11 4.5t-5 11.5v603q0 8 5 12.5t12 4.5h252q82 0 139.5 -28t86.5 -75t29 -105q0 -83 -55.5 -135t-162.5 -60l200 -204q6 -6 6 -13t-4.5 -11.5t-10.5 -4.5t-12 6l-218 228h-234v-217zM362 263q109 0 164.5 45t55.5 116
q0 50 -26.5 91.5t-76 65.5t-117.5 24h-237v-342h237zM410 834q8 0 14 -5.5t6 -13.5q0 -7 -5 -12l-90 -91q-6 -6 -12 -6t-10 4.5t-4 10.5q0 5 3 9l86 98q4 6 12 6z" />
    <glyph glyph-name="Rcaron" unicode="&#x158;" horiz-adv-x="657" 
d="M125 17q0 -8 -5 -12.5t-12 -4.5q-6 0 -11 4.5t-5 11.5v603q0 8 5 12.5t12 4.5h252q82 0 139.5 -28t86.5 -75t29 -105q0 -83 -55.5 -135t-162.5 -60l200 -204q6 -6 6 -13t-4.5 -11.5t-10.5 -4.5t-12 6l-218 228h-234v-217zM362 263q109 0 164.5 45t55.5 116
q0 50 -26.5 91.5t-76 65.5t-117.5 24h-237v-342h237zM350 714q-2 -2 -6 -4.5t-6 -2.5q-3 0 -12 7l-102 90q-6 6 -6 12q0 5 4 9.5t10 4.5t11 -5l95 -83l95 83q7 5 11 5q6 0 10 -4.5t4 -9.5q0 -7 -6 -12z" />
    <glyph glyph-name="uni0156" unicode="&#x156;" horiz-adv-x="657" 
d="M125 17q0 -8 -5 -12.5t-12 -4.5q-6 0 -11 4.5t-5 11.5v603q0 8 5 12.5t12 4.5h252q82 0 139.5 -28t86.5 -75t29 -105q0 -83 -55.5 -135t-162.5 -60l200 -204q6 -6 6 -13t-4.5 -11.5t-10.5 -4.5t-12 6l-218 228h-234v-217zM362 263q109 0 164.5 45t55.5 116
q0 50 -26.5 91.5t-76 65.5t-117.5 24h-237v-342h237zM323 -249q-6 -6 -12 -6q-4 0 -6.5 3t-2.5 8l2 9l31 105q6 19 18 19q5 0 9 -5t4 -14q0 -8 -2 -13l-31 -89q-4 -11 -10 -17z" />
    <glyph glyph-name="S" unicode="S" horiz-adv-x="646" 
d="M36.5 148q5.5 6 12.5 6q5 0 9.5 -3t5.5 -9q14 -49 62 -76.5t102 -37.5t95 -10q57 0 114.5 15t97.5 50t40 93q0 51 -33.5 78t-82.5 36t-132 16q-92 7 -147.5 18.5t-94 45.5t-38.5 99q0 63 45 103t106.5 57t113.5 17q91 0 168.5 -28t103.5 -98q2 -6 2 -9q0 -6 -4 -9.5
t-10 -3.5q-12 0 -16 11q-39 107 -243 107q-56 0 -110 -17.5t-88.5 -51.5t-34.5 -79q0 -52 33.5 -79t83 -36.5t134.5 -16.5q92 -8 146.5 -19.5t92.5 -44t38 -95.5q0 -69 -43.5 -110.5t-108 -59t-133.5 -17.5q-97 0 -182 33t-107 111q-3 8 2.5 14z" />
    <glyph glyph-name="Sacute" unicode="&#x15a;" horiz-adv-x="646" 
d="M36.5 148q5.5 6 12.5 6q5 0 9.5 -3t5.5 -9q14 -49 62 -76.5t102 -37.5t95 -10q57 0 114.5 15t97.5 50t40 93q0 51 -33.5 78t-82.5 36t-132 16q-92 7 -147.5 18.5t-94 45.5t-38.5 99q0 63 45 103t106.5 57t113.5 17q91 0 168.5 -28t103.5 -98q2 -6 2 -9q0 -6 -4 -9.5
t-10 -3.5q-12 0 -16 11q-39 107 -243 107q-56 0 -110 -17.5t-88.5 -51.5t-34.5 -79q0 -52 33.5 -79t83 -36.5t134.5 -16.5q92 -8 146.5 -19.5t92.5 -44t38 -95.5q0 -69 -43.5 -110.5t-108 -59t-133.5 -17.5q-97 0 -182 33t-107 111q-3 8 2.5 14zM403 834q8 0 14 -5.5
t6 -13.5q0 -7 -5 -12l-90 -91q-6 -6 -12 -6t-10 4.5t-4 10.5q0 5 3 9l86 98q4 6 12 6z" />
    <glyph glyph-name="Scaron" unicode="&#x160;" horiz-adv-x="646" 
d="M36.5 148q5.5 6 12.5 6q5 0 9.5 -3t5.5 -9q14 -49 62 -76.5t102 -37.5t95 -10q57 0 114.5 15t97.5 50t40 93q0 51 -33.5 78t-82.5 36t-132 16q-92 7 -147.5 18.5t-94 45.5t-38.5 99q0 63 45 103t106.5 57t113.5 17q91 0 168.5 -28t103.5 -98q2 -6 2 -9q0 -6 -4 -9.5
t-10 -3.5q-12 0 -16 11q-39 107 -243 107q-56 0 -110 -17.5t-88.5 -51.5t-34.5 -79q0 -52 33.5 -79t83 -36.5t134.5 -16.5q92 -8 146.5 -19.5t92.5 -44t38 -95.5q0 -69 -43.5 -110.5t-108 -59t-133.5 -17.5q-97 0 -182 33t-107 111q-3 8 2.5 14zM343 714q-2 -2 -6 -4.5
t-6 -2.5q-3 0 -12 7l-102 90q-6 6 -6 12q0 5 4 9.5t10 4.5t11 -5l95 -83l95 83q7 5 11 5q6 0 10 -4.5t4 -9.5q0 -7 -6 -12z" />
    <glyph glyph-name="Scedilla" unicode="&#x15e;" horiz-adv-x="646" 
d="M525 35.5q-83 -43.5 -193 -45.5l-27 -50q5 1 16 1q32 0 53.5 -19t21.5 -50q0 -35 -26 -55.5t-63 -20.5q-22 0 -42.5 8t-35.5 23q-6 6 -6 13q0 5 3.5 8.5t8.5 3.5q9 0 17 -7q27 -21 57 -21q24 0 40 13t16 34q0 24 -15 34.5t-36 10.5q-10 0 -14 -1q-3 -1 -8 -1
q-16 0 -16 12q0 3 4 15l23 49q-94 4 -171.5 37t-97.5 107q-3 8 2.5 14t12.5 6q5 0 9.5 -3t5.5 -9q14 -49 62 -76.5t102 -37.5t95 -10h3h3q57 1 113 16t94.5 50t38.5 92q0 51 -33.5 78t-82.5 36t-132 16q-92 7 -147.5 18.5t-94 45.5t-38.5 99q0 63 45 103t106.5 57t113.5 17
q91 0 168.5 -28t103.5 -98q2 -6 2 -9q0 -6 -4 -9.5t-10 -3.5q-12 0 -16 11q-39 107 -243 107q-56 0 -110 -17.5t-88.5 -51.5t-34.5 -79q0 -52 33.5 -79t83 -36.5t134.5 -16.5q92 -8 146.5 -19.5t92.5 -44t38 -95.5q0 -98 -83 -141.5z" />
    <glyph glyph-name="uni0218" unicode="&#x218;" horiz-adv-x="646" 
d="M36.5 148q5.5 6 12.5 6q5 0 9.5 -3t5.5 -9q14 -49 62 -76.5t102 -37.5t95 -10q57 0 114.5 15t97.5 50t40 93q0 51 -33.5 78t-82.5 36t-132 16q-92 7 -147.5 18.5t-94 45.5t-38.5 99q0 63 45 103t106.5 57t113.5 17q91 0 168.5 -28t103.5 -98q2 -6 2 -9q0 -6 -4 -9.5
t-10 -3.5q-12 0 -16 11q-39 107 -243 107q-56 0 -110 -17.5t-88.5 -51.5t-34.5 -79q0 -52 33.5 -79t83 -36.5t134.5 -16.5q92 -8 146.5 -19.5t92.5 -44t38 -95.5q0 -69 -43.5 -110.5t-108 -59t-133.5 -17.5q-97 0 -182 33t-107 111q-3 8 2.5 14zM299 -249q-6 -6 -12 -6
q-4 0 -6.5 3t-2.5 8l2 9l31 105q6 19 18 19q5 0 9 -5t4 -14q0 -8 -2 -13l-31 -89q-4 -11 -10 -17z" />
    <glyph glyph-name="T" unicode="T" horiz-adv-x="589" 
d="M567 636q9 0 13.5 -4.5t4.5 -10.5t-5 -10.5t-13 -4.5h-259l1 -587q0 -9 -5.5 -14t-12.5 -5t-12 5t-5 14v587h-258q-8 0 -13 4.5t-5 10.5t4.5 10.5t13.5 4.5h551z" />
    <glyph glyph-name="Tbar" unicode="&#x166;" horiz-adv-x="589" 
d="M580.5 631.5q4.5 -4.5 4.5 -10.5t-5 -10.5t-13 -4.5h-259v-241h142q8 0 12 -3.5t4 -8.5q0 -6 -4 -9.5t-12 -3.5h-142l1 -321q0 -9 -5.5 -14t-12.5 -5t-12 5t-5 14v321h-140q-8 0 -12.5 3.5t-4.5 8.5t4.5 9t12.5 4h140v241h-258q-8 0 -13 4.5t-5 10.5t4.5 10.5t13.5 4.5
h551q9 0 13.5 -4.5z" />
    <glyph glyph-name="Tcaron" unicode="&#x164;" horiz-adv-x="589" 
d="M567 636q9 0 13.5 -4.5t4.5 -10.5t-5 -10.5t-13 -4.5h-259l1 -587q0 -9 -5.5 -14t-12.5 -5t-12 5t-5 14v587h-258q-8 0 -13 4.5t-5 10.5t4.5 10.5t13.5 4.5h551zM300 714q-2 -2 -6 -4.5t-6 -2.5q-3 0 -12 7l-102 90q-6 6 -6 12q0 5 4 9.5t10 4.5t11 -5l95 -83l95 83
q7 5 11 5q6 0 10 -4.5t4 -9.5q0 -7 -6 -12z" />
    <glyph glyph-name="uni0162" unicode="&#x162;" horiz-adv-x="589" 
d="M580.5 631.5q4.5 -4.5 4.5 -10.5t-5 -10.5t-13 -4.5h-259l1 -587q0 -10 -7 -15q0 -6 -4 -13l-27 -51q5 1 16 1q32 0 53.5 -19t21.5 -50q0 -35 -26 -55.5t-63 -20.5q-22 0 -42.5 8t-35.5 23q-6 6 -6 13q0 5 3.5 8.5t8.5 3.5q9 0 17 -7q27 -21 57 -21q24 0 40 13t16 34
q0 24 -15 34.5t-36 10.5q-10 0 -14 -1q-3 -1 -8 -1q-16 0 -16 12q0 3 4 15l26 56l6 10q-4 4 -4 12v587h-258q-8 0 -13 4.5t-5 10.5t4.5 10.5t13.5 4.5h551q9 0 13.5 -4.5z" />
    <glyph glyph-name="uni021A" unicode="&#x21a;" horiz-adv-x="589" 
d="M567 636q9 0 13.5 -4.5t4.5 -10.5t-5 -10.5t-13 -4.5h-259l1 -587q0 -9 -5.5 -14t-12.5 -5t-12 5t-5 14v587h-258q-8 0 -13 4.5t-5 10.5t4.5 10.5t13.5 4.5h551zM265 -249q-6 -6 -12 -6q-4 0 -6.5 3t-2.5 8l2 9l31 105q6 19 18 19q5 0 9 -5t4 -14q0 -8 -2 -13l-31 -89
q-4 -11 -10 -17z" />
    <glyph glyph-name="U" unicode="U" horiz-adv-x="759" 
d="M636 619q0 8 5 12.5t12 4.5q6 0 11 -4.5t5 -11.5v-343q0 -91 -40.5 -156t-106.5 -98t-141 -33t-141 33t-107 98t-41 156v343q0 7 5 11.5t11 4.5t11 -4.5t5 -12.5v-342q0 -81 36 -138t95 -86t125 -29t125 29t95 86t36 138v342z" />
    <glyph glyph-name="Uacute" unicode="&#xda;" horiz-adv-x="759" 
d="M636 619q0 8 5 12.5t12 4.5q6 0 11 -4.5t5 -11.5v-343q0 -91 -40.5 -156t-106.5 -98t-141 -33t-141 33t-107 98t-41 156v343q0 7 5 11.5t11 4.5t11 -4.5t5 -12.5v-342q0 -81 36 -138t95 -86t125 -29t125 29t95 86t36 138v342zM449 834q8 0 14 -5.5t6 -13.5q0 -7 -5 -12
l-90 -91q-6 -6 -12 -6t-10 4.5t-4 10.5q0 5 3 9l86 98q4 6 12 6z" />
    <glyph glyph-name="Ucircumflex" unicode="&#xdb;" horiz-adv-x="759" 
d="M636 619q0 8 5 12.5t12 4.5q6 0 11 -4.5t5 -11.5v-343q0 -91 -40.5 -156t-106.5 -98t-141 -33t-141 33t-107 98t-41 156v343q0 7 5 11.5t11 4.5t11 -4.5t5 -12.5v-342q0 -81 36 -138t95 -86t125 -29t125 29t95 86t36 138v342zM500 721q0 -5 -4 -9.5t-10 -4.5t-11 5
l-95 83l-95 -83q-7 -5 -11 -5q-6 0 -10 4.5t-4 9.5q0 8 6 12l102 90q7 7 12 7q4 0 12 -7l102 -90q6 -6 6 -12z" />
    <glyph glyph-name="Udieresis" unicode="&#xdc;" horiz-adv-x="759" 
d="M636 619q0 8 5 12.5t12 4.5q6 0 11 -4.5t5 -11.5v-343q0 -91 -40.5 -156t-106.5 -98t-141 -33t-141 33t-107 98t-41 156v343q0 7 5 11.5t11 4.5t11 -4.5t5 -12.5v-342q0 -81 36 -138t95 -86t125 -29t125 29t95 86t36 138v342zM304.5 789.5q9.5 -8.5 9.5 -21.5
q0 -15 -9.5 -23t-20.5 -8q-13 0 -22 8.5t-9 22.5q0 13 9 21.5t22 8.5q11 0 20.5 -8.5zM497.5 789.5q9.5 -8.5 9.5 -21.5q0 -15 -9 -23t-22 -8q-11 0 -20.5 8.5t-9.5 22.5q0 13 9.5 21.5t20.5 8.5q12 0 21.5 -8.5z" />
    <glyph glyph-name="Ugrave" unicode="&#xd9;" horiz-adv-x="759" 
d="M636 619q0 8 5 12.5t12 4.5q6 0 11 -4.5t5 -11.5v-343q0 -91 -40.5 -156t-106.5 -98t-141 -33t-141 33t-107 98t-41 156v343q0 7 5 11.5t11 4.5t11 -4.5t5 -12.5v-342q0 -81 36 -138t95 -86t125 -29t125 29t95 86t36 138v342zM414 735q3 -3 3 -8q0 -6 -4 -11t-10 -5
t-12 6l-90 91q-5 5 -5 13q0 7 5.5 12.5t13.5 5.5q7 0 13 -6z" />
    <glyph glyph-name="Uhungarumlaut" unicode="&#x170;" horiz-adv-x="759" 
d="M636 619q0 8 5 12.5t12 4.5q6 0 11 -4.5t5 -11.5v-343q0 -91 -40.5 -156t-106.5 -98t-141 -33t-141 33t-107 98t-41 156v343q0 7 5 11.5t11 4.5t11 -4.5t5 -12.5v-342q0 -81 36 -138t95 -86t125 -29t125 29t95 86t36 138v342zM378 841q8 0 13.5 -5t5.5 -12q0 -6 -4 -11
l-66 -93q-6 -7 -12 -7q-8 0 -12.5 7.5t-0.5 14.5l62 99q4 7 14 7zM486 841q8 0 14 -5t6 -12q0 -3 -4 -11l-67 -93q-6 -7 -12 -7q-8 0 -12.5 7.5t-0.5 14.5l62 99q4 7 14 7z" />
    <glyph glyph-name="Umacron" unicode="&#x16a;" horiz-adv-x="759" 
d="M636 619q0 8 5 12.5t12 4.5q6 0 11 -4.5t5 -11.5v-343q0 -91 -40.5 -156t-106.5 -98t-141 -33t-141 33t-107 98t-41 156v343q0 7 5 11.5t11 4.5t11 -4.5t5 -12.5v-342q0 -81 36 -138t95 -86t125 -29t125 29t95 86t36 138v342zM483 760.5q7 -4.5 7 -10.5t-7 -11t-19 -5
h-179q-13 0 -20 4.5t-7 10.5q0 7 7 11.5t20 4.5h179q12 0 19 -4.5z" />
    <glyph glyph-name="Uogonek" unicode="&#x172;" horiz-adv-x="759" 
d="M664 631.5q5 -4.5 5 -11.5v-343q0 -106 -53.5 -176t-138.5 -96q-41 -50 -58.5 -82.5t-17.5 -55.5q0 -20 11 -31t26 -11q25 0 40 24q10 16 23 16q5 0 8 -3t3 -8q0 -8 -7 -18q-13 -20 -28 -29.5t-38 -9.5q-33 0 -51 18.5t-18 50.5q0 54 66 129q-30 -5 -55 -5q-75 0 -141 33
t-107 98t-41 156v343q0 7 5 11.5t11 4.5t11 -4.5t5 -12.5v-342q0 -81 36 -138t95 -86t125 -29t125 29t95 86t36 138v342q0 8 5 12.5t12 4.5q6 0 11 -4.5z" />
    <glyph glyph-name="Uring" unicode="&#x16e;" horiz-adv-x="759" 
d="M636 619q0 8 5 12.5t12 4.5q6 0 11 -4.5t5 -11.5v-343q0 -91 -40.5 -156t-106.5 -98t-141 -33t-141 33t-107 98t-41 156v343q0 7 5 11.5t11 4.5t11 -4.5t5 -12.5v-342q0 -81 36 -138t95 -86t125 -29t125 29t95 86t36 138v342zM431 826.5q21 -20.5 21 -50.5
q0 -31 -21 -51.5t-51 -20.5q-31 0 -52 20.5t-21 51.5q0 30 21 50.5t52 20.5q30 0 51 -20.5zM349 805.5q-13 -12.5 -13 -29.5q0 -18 13 -30.5t31 -12.5q17 0 30 12.5t13 30.5q0 17 -13 29.5t-30 12.5q-18 0 -31 -12.5z" />
    <glyph glyph-name="V" unicode="V" horiz-adv-x="684" 
d="M20 619q0 7 6 12t13 5q11 0 17 -12l289 -573l284 573q2 6 7 9t11 3q7 0 11.5 -4t4.5 -11q0 -6 -2 -9l-302 -609q-5 -10 -14 -10t-15 9l-308 610q-2 4 -2 7z" />
    <glyph glyph-name="W" unicode="W" horiz-adv-x="1170" 
d="M568 561q2 5 7 8t11 3q11 0 17 -10l252 -511l251 574q4 11 16 11q9 0 14.5 -7.5t1.5 -16.5l-268 -608q-4 -10 -15 -10t-17 10l-253 516l-253 -516q-4 -10 -16 -10t-16 10l-267 608q-2 6 -2 7q0 7 5.5 12t12.5 5q11 0 15 -11l252 -574z" />
    <glyph glyph-name="Wacute" unicode="&#x1e82;" horiz-adv-x="1170" 
d="M568 561q2 5 7 8t11 3q11 0 17 -10l252 -511l251 574q4 11 16 11q9 0 14.5 -7.5t1.5 -16.5l-268 -608q-4 -10 -15 -10t-17 10l-253 516l-253 -516q-4 -10 -16 -10t-16 10l-267 608q-2 6 -2 7q0 7 5.5 12t12.5 5q11 0 15 -11l252 -574zM654 834q8 0 14 -5.5t6 -13.5
q0 -7 -5 -12l-90 -91q-6 -6 -12 -6t-10 4.5t-4 10.5q0 5 3 9l86 98q4 6 12 6z" />
    <glyph glyph-name="Wcircumflex" unicode="&#x174;" horiz-adv-x="1170" 
d="M568 561q2 5 7 8t11 3q11 0 17 -10l252 -511l251 574q4 11 16 11q9 0 14.5 -7.5t1.5 -16.5l-268 -608q-4 -10 -15 -10t-17 10l-253 516l-253 -516q-4 -10 -16 -10t-16 10l-267 608q-2 6 -2 7q0 7 5.5 12t12.5 5q11 0 15 -11l252 -574zM708 721q0 -5 -4.5 -9.5t-10.5 -4.5
q-7 0 -13 6l-95 93l-95 -93q-6 -6 -12 -6t-10.5 4.5t-4.5 9.5t3 8l107 105q7 7 12 7t12 -7l107 -105q4 -4 4 -8z" />
    <glyph glyph-name="Wdieresis" unicode="&#x1e84;" horiz-adv-x="1170" 
d="M568 561q2 5 7 8t11 3q11 0 17 -10l252 -511l251 574q4 11 16 11q9 0 14.5 -7.5t1.5 -16.5l-268 -608q-4 -10 -15 -10t-17 10l-253 516l-253 -516q-4 -10 -16 -10t-16 10l-267 608q-2 6 -2 7q0 7 5.5 12t12.5 5q11 0 15 -11l252 -574zM504.5 789.5q9.5 -8.5 9.5 -21.5
q0 -15 -9.5 -23t-20.5 -8q-13 0 -22 8.5t-9 22.5q0 13 9 21.5t22 8.5q11 0 20.5 -8.5zM697.5 789.5q9.5 -8.5 9.5 -21.5q0 -15 -9 -23t-22 -8q-11 0 -20.5 8.5t-9.5 22.5q0 13 9.5 21.5t20.5 8.5q12 0 21.5 -8.5z" />
    <glyph glyph-name="Wgrave" unicode="&#x1e80;" horiz-adv-x="1170" 
d="M568 561q2 5 7 8t11 3q11 0 17 -10l252 -511l251 574q4 11 16 11q9 0 14.5 -7.5t1.5 -16.5l-268 -608q-4 -10 -15 -10t-17 10l-253 516l-253 -516q-4 -10 -16 -10t-16 10l-267 608q-2 6 -2 7q0 7 5.5 12t12.5 5q11 0 15 -11l252 -574zM615 730q2 -2 2 -7q0 -6 -4.5 -11
t-9.5 -5q-6 0 -12 7l-82 99q-4 5 -4 11q0 7 5.5 12.5t13.5 5.5t14 -7z" />
    <glyph glyph-name="X" unicode="X" horiz-adv-x="642" 
d="M565 629q6 7 14 7q6 0 11 -4.5t5 -11.5q0 -5 -5 -12l-249 -283l260 -296q5 -6 5 -14q0 -7 -4 -11t-10 -4q-9 0 -16 8l-255 295l-255 -295q-7 -8 -16 -8q-6 0 -10.5 4t-4.5 11t6 14l258 296l-247 284q-5 5 -5 12t4.5 11t10.5 4q8 0 14 -7l245 -282z" />
    <glyph glyph-name="Y" unicode="Y" horiz-adv-x="617" 
d="M29 608q-6 8 -6 14t4 10t11 4q9 0 16 -8l254 -341l253 341q7 8 16 8q7 0 10.5 -4t3.5 -10q0 -8 -5 -14l-261 -349v-240q0 -9 -5 -14t-12 -5t-12 5t-5 14v240z" />
    <glyph glyph-name="Yacute" unicode="&#xdd;" horiz-adv-x="617" 
d="M29 608q-6 8 -6 14t4 10t11 4q9 0 16 -8l254 -341l253 341q7 8 16 8q7 0 10.5 -4t3.5 -10q0 -8 -5 -14l-261 -349v-240q0 -9 -5 -14t-12 -5t-12 5t-5 14v240zM374 842q8 0 13.5 -5.5t5.5 -12.5q0 -6 -4 -11l-82 -99q-6 -7 -12 -7q-8 0 -12.5 8t0.5 15l77 105q6 7 14 7z
" />
    <glyph glyph-name="Ycircumflex" unicode="&#x176;" horiz-adv-x="617" 
d="M29 608q-6 8 -6 14t4 10t11 4q9 0 16 -8l254 -341l253 341q7 8 16 8q7 0 10.5 -4t3.5 -10q0 -8 -5 -14l-261 -349v-240q0 -9 -5 -14t-12 -5t-12 5t-5 14v240zM431 721q0 -5 -4.5 -9.5t-10.5 -4.5q-7 0 -13 6l-95 93l-95 -93q-6 -6 -12 -6t-10.5 4.5t-4.5 9.5t3 8l107 105
q7 7 12 7t12 -7l107 -105q4 -4 4 -8z" />
    <glyph glyph-name="Ydieresis" unicode="&#x178;" horiz-adv-x="617" 
d="M29 608q-6 8 -6 14t4 10t11 4q9 0 16 -8l254 -341l253 341q7 8 16 8q7 0 10.5 -4t3.5 -10q0 -8 -5 -14l-261 -349v-240q0 -9 -5 -14t-12 -5t-12 5t-5 14v240zM227.5 789.5q9.5 -8.5 9.5 -21.5q0 -15 -9.5 -23t-20.5 -8q-13 0 -22 8.5t-9 22.5q0 13 9 21.5t22 8.5
q11 0 20.5 -8.5zM420.5 789.5q9.5 -8.5 9.5 -21.5q0 -15 -9 -23t-22 -8q-11 0 -20.5 8.5t-9.5 22.5q0 13 9.5 21.5t20.5 8.5q12 0 21.5 -8.5z" />
    <glyph glyph-name="Ygrave" unicode="&#x1ef2;" horiz-adv-x="617" 
d="M29 608q-6 8 -6 14t4 10t11 4q9 0 16 -8l254 -341l253 341q7 8 16 8q7 0 10.5 -4t3.5 -10q0 -8 -5 -14l-261 -349v-240q0 -9 -5 -14t-12 -5t-12 5t-5 14v240zM342 735q3 -3 3 -8q0 -6 -4 -11t-10 -5t-12 6l-90 91q-5 5 -5 13q0 7 5.5 12.5t13.5 5.5q7 0 13 -6z" />
    <glyph glyph-name="Z" unicode="Z" horiz-adv-x="614" 
d="M576 33q7 0 12 -4.5t5 -11.5t-4.5 -12t-12.5 -5h-525q-9 0 -14.5 4.5t-5.5 10.5q0 8 6 15l504 574h-475q-7 0 -11.5 5t-4.5 12q0 6 4.5 10.5t11.5 4.5h506q9 0 14 -4.5t5 -10.5q0 -8 -6 -16l-500 -572h491z" />
    <glyph glyph-name="Zacute" unicode="&#x179;" horiz-adv-x="614" 
d="M576 33q7 0 12 -4.5t5 -11.5t-4.5 -12t-12.5 -5h-525q-9 0 -14.5 4.5t-5.5 10.5q0 8 6 15l504 574h-475q-7 0 -11.5 5t-4.5 12q0 6 4.5 10.5t11.5 4.5h506q9 0 14 -4.5t5 -10.5q0 -8 -6 -16l-500 -572h491zM403 834q8 0 14 -5.5t6 -13.5q0 -7 -5 -12l-90 -91
q-6 -6 -12 -6t-10 4.5t-4 10.5q0 5 3 9l86 98q4 6 12 6z" />
    <glyph glyph-name="Zcaron" unicode="&#x17d;" horiz-adv-x="614" 
d="M576 33q7 0 12 -4.5t5 -11.5t-4.5 -12t-12.5 -5h-525q-9 0 -14.5 4.5t-5.5 10.5q0 8 6 15l504 574h-475q-7 0 -11.5 5t-4.5 12q0 6 4.5 10.5t11.5 4.5h506q9 0 14 -4.5t5 -10.5q0 -8 -6 -16l-500 -572h491zM343 714q-2 -2 -6 -4.5t-6 -2.5q-3 0 -12 7l-102 90q-6 6 -6 12
q0 5 4 9.5t10 4.5t11 -5l95 -83l95 83q7 5 11 5q6 0 10 -4.5t4 -9.5q0 -7 -6 -12z" />
    <glyph glyph-name="Zdotaccent" unicode="&#x17b;" horiz-adv-x="614" 
d="M576 33q7 0 12 -4.5t5 -11.5t-4.5 -12t-12.5 -5h-525q-9 0 -14.5 4.5t-5.5 10.5q0 8 6 15l504 574h-475q-7 0 -11.5 5t-4.5 12q0 6 4.5 10.5t11.5 4.5h506q9 0 14 -4.5t5 -10.5q0 -8 -6 -16l-500 -572h491zM358.5 793.5q11.5 -10.5 11.5 -25.5q0 -18 -11 -27.5t-25 -9.5
q-15 0 -26 10.5t-11 26.5q0 15 11 25.5t26 10.5q13 0 24.5 -10.5z" />
    <glyph glyph-name="a" unicode="a" horiz-adv-x="616" 
d="M427 485.5q50 -33.5 73 -94.5v100q0 18 17 18q8 0 13 -5t5 -13v-473q0 -8 -5 -13t-13 -5q-17 0 -17 18v96q-23 -61 -75 -92.5t-122 -31.5q-68 0 -126 31.5t-93 92t-35 142.5t36 142t95.5 90.5t126.5 30.5q70 0 120 -33.5zM500 296q0 58 -26 101t-70 65t-95 22
q-70 0 -121 -30.5t-77.5 -82.5t-26.5 -115q0 -65 28 -118t76 -83t107 -30q53 0 100 21t76 62.5t29 100.5v87z" />
    <glyph glyph-name="aacute" unicode="&#xe1;" horiz-adv-x="616" 
d="M427 485.5q50 -33.5 73 -94.5v100q0 18 17 18q8 0 13 -5t5 -13v-473q0 -8 -5 -13t-13 -5q-17 0 -17 18v96q-23 -61 -75 -92.5t-122 -31.5q-68 0 -126 31.5t-93 92t-35 142.5t36 142t95.5 90.5t126.5 30.5q70 0 120 -33.5zM500 296q0 58 -26 101t-70 65t-95 22
q-70 0 -121 -30.5t-77.5 -82.5t-26.5 -115q0 -65 28 -118t76 -83t107 -30q53 0 100 21t76 62.5t29 100.5v87zM373 725q8 0 13.5 -5.5t5.5 -12.5q0 -6 -4 -11l-82 -99q-6 -7 -12 -7q-8 0 -12.5 8t0.5 15l77 105q6 7 14 7z" />
    <glyph glyph-name="abreve" unicode="&#x103;" horiz-adv-x="616" 
d="M427 485.5q50 -33.5 73 -94.5v100q0 18 17 18q8 0 13 -5t5 -13v-473q0 -8 -5 -13t-13 -5q-17 0 -17 18v96q-23 -61 -75 -92.5t-122 -31.5q-68 0 -126 31.5t-93 92t-35 142.5t36 142t95.5 90.5t126.5 30.5q70 0 120 -33.5zM500 296q0 58 -26 101t-70 65t-95 22
q-70 0 -121 -30.5t-77.5 -82.5t-26.5 -115q0 -65 28 -118t76 -83t107 -30q53 0 100 21t76 62.5t29 100.5v87zM402 701q8 0 13 -7t2 -16q-13 -45 -38.5 -66t-70.5 -21t-70.5 21t-38.5 66q-3 9 2 16t13 7q11 0 17 -16q13 -36 30 -50t47 -13q30 -1 48 13.5t29 49.5q6 16 17 16z
" />
    <glyph glyph-name="acircumflex" unicode="&#xe2;" horiz-adv-x="616" 
d="M427 485.5q50 -33.5 73 -94.5v100q0 18 17 18q8 0 13 -5t5 -13v-473q0 -8 -5 -13t-13 -5q-17 0 -17 18v96q-23 -61 -75 -92.5t-122 -31.5q-68 0 -126 31.5t-93 92t-35 142.5t36 142t95.5 90.5t126.5 30.5q70 0 120 -33.5zM500 296q0 58 -26 101t-70 65t-95 22
q-70 0 -121 -30.5t-77.5 -82.5t-26.5 -115q0 -65 28 -118t76 -83t107 -30q53 0 100 21t76 62.5t29 100.5v87zM430 604q0 -5 -4.5 -9.5t-10.5 -4.5q-7 0 -13 6l-95 93l-95 -93q-6 -6 -12 -6t-10.5 4.5t-4.5 9.5t3 8l107 105q7 7 12 7t12 -7l107 -105q4 -4 4 -8z" />
    <glyph glyph-name="adieresis" unicode="&#xe4;" horiz-adv-x="616" 
d="M427 485.5q50 -33.5 73 -94.5v100q0 18 17 18q8 0 13 -5t5 -13v-473q0 -8 -5 -13t-13 -5q-17 0 -17 18v96q-23 -61 -75 -92.5t-122 -31.5q-68 0 -126 31.5t-93 92t-35 142.5t36 142t95.5 90.5t126.5 30.5q70 0 120 -33.5zM500 296q0 58 -26 101t-70 65t-95 22
q-70 0 -121 -30.5t-77.5 -82.5t-26.5 -115q0 -65 28 -118t76 -83t107 -30q53 0 100 21t76 62.5t29 100.5v87zM226.5 672.5q9.5 -8.5 9.5 -21.5q0 -15 -9.5 -23t-20.5 -8q-13 0 -22 8.5t-9 22.5q0 13 9 21.5t22 8.5q11 0 20.5 -8.5zM419.5 672.5q9.5 -8.5 9.5 -21.5
q0 -15 -9 -23t-22 -8q-11 0 -20.5 8.5t-9.5 22.5q0 13 9.5 21.5t20.5 8.5q12 0 21.5 -8.5z" />
    <glyph glyph-name="agrave" unicode="&#xe0;" horiz-adv-x="616" 
d="M427 485.5q50 -33.5 73 -94.5v100q0 18 17 18q8 0 13 -5t5 -13v-473q0 -8 -5 -13t-13 -5q-17 0 -17 18v96q-23 -61 -75 -92.5t-122 -31.5q-68 0 -126 31.5t-93 92t-35 142.5t36 142t95.5 90.5t126.5 30.5q70 0 120 -33.5zM500 296q0 58 -26 101t-70 65t-95 22
q-70 0 -121 -30.5t-77.5 -82.5t-26.5 -115q0 -65 28 -118t76 -83t107 -30q53 0 100 21t76 62.5t29 100.5v87zM337 613q2 -2 2 -7q0 -6 -4.5 -11t-9.5 -5q-6 0 -12 7l-82 99q-4 5 -4 11q0 7 5.5 12.5t13.5 5.5t14 -7z" />
    <glyph glyph-name="amacron" unicode="&#x101;" horiz-adv-x="616" 
d="M427 485.5q50 -33.5 73 -94.5v100q0 18 17 18q8 0 13 -5t5 -13v-473q0 -8 -5 -13t-13 -5q-17 0 -17 18v96q-23 -61 -75 -92.5t-122 -31.5q-68 0 -126 31.5t-93 92t-35 142.5t36 142t95.5 90.5t126.5 30.5q70 0 120 -33.5zM500 296q0 58 -26 101t-70 65t-95 22
q-70 0 -121 -30.5t-77.5 -82.5t-26.5 -115q0 -65 28 -118t76 -83t107 -30q53 0 100 21t76 62.5t29 100.5v87zM410 643.5q7 -4.5 7 -10.5t-7 -11t-19 -5h-179q-13 0 -20 4.5t-7 10.5q0 7 7 11.5t20 4.5h179q12 0 19 -4.5z" />
    <glyph glyph-name="aogonek" unicode="&#x105;" horiz-adv-x="616" 
d="M557 -135q5 0 8 -3t3 -8q0 -8 -7 -18q-13 -20 -28 -29.5t-38 -9.5q-33 0 -51 18.5t-18 50.5q0 34 20.5 67.5t52.5 69.5l4 4q-3 5 -3 11v96q-23 -61 -75 -92.5t-122 -31.5q-68 0 -126 31.5t-93 92t-35 142.5t36 142t95.5 90.5t126.5 30.5q70 0 120 -33.5t73 -94.5v100
q0 18 17 18q8 0 13 -5t5 -13v-473q0 -10 -7 -15q-2 -10 -9 -18q-24 -27 -43 -59.5t-19 -58.5q0 -19 11 -30t26 -11q25 0 40 23q10 16 23 16zM500 296q0 58 -26 101t-70 65t-95 22q-70 0 -121 -30.5t-77.5 -82.5t-26.5 -115q0 -65 28 -118t76 -83t107 -30q53 0 100 21
t76 62.5t29 100.5v87z" />
    <glyph glyph-name="aring" unicode="&#xe5;" horiz-adv-x="616" 
d="M427 485.5q50 -33.5 73 -94.5v100q0 18 17 18q8 0 13 -5t5 -13v-473q0 -8 -5 -13t-13 -5q-17 0 -17 18v96q-23 -61 -75 -92.5t-122 -31.5q-68 0 -126 31.5t-93 92t-35 142.5t36 142t95.5 90.5t126.5 30.5q70 0 120 -33.5zM500 296q0 58 -26 101t-70 65t-95 22
q-70 0 -121 -30.5t-77.5 -82.5t-26.5 -115q0 -65 28 -118t76 -83t107 -30q53 0 100 21t76 62.5t29 100.5v87zM358 709.5q21 -20.5 21 -50.5q0 -31 -21 -51.5t-51 -20.5q-31 0 -52 20.5t-21 51.5q0 30 21 50.5t52 20.5q30 0 51 -20.5zM276 688.5q-13 -12.5 -13 -29.5
q0 -18 13 -30.5t31 -12.5q17 0 30 12.5t13 30.5q0 17 -13 29.5t-30 12.5q-18 0 -31 -12.5z" />
    <glyph glyph-name="atilde" unicode="&#xe3;" horiz-adv-x="616" 
d="M427 485.5q50 -33.5 73 -94.5v100q0 18 17 18q8 0 13 -5t5 -13v-473q0 -8 -5 -13t-13 -5q-17 0 -17 18v96q-23 -61 -75 -92.5t-122 -31.5q-68 0 -126 31.5t-93 92t-35 142.5t36 142t95.5 90.5t126.5 30.5q70 0 120 -33.5zM500 296q0 58 -26 101t-70 65t-95 22
q-70 0 -121 -30.5t-77.5 -82.5t-26.5 -115q0 -65 28 -118t76 -83t107 -30q53 0 100 21t76 62.5t29 100.5v87zM203.5 690.5q18.5 14.5 44.5 14.5q17 0 31.5 -9.5t35.5 -28.5q19 -18 31.5 -26.5t26.5 -8.5q24 0 36.5 14.5t21.5 36.5q4 10 12 10q5 0 8.5 -4t3.5 -10t-3 -12
q-12 -27 -30.5 -44t-51.5 -17q-18 0 -33.5 10.5t-36.5 30.5q-18 17 -29 25t-22 8q-21 1 -31.5 -10t-16.5 -33q-3 -9 -13 -9q-7 0 -11 5t-1 15q9 28 27.5 42.5z" />
    <glyph glyph-name="ae" unicode="&#xe6;" horiz-adv-x="1068" 
d="M424.5 486.5q54.5 -32.5 77.5 -95.5v100q0 9 5 13.5t11 4.5q7 0 11.5 -4.5t4.5 -13.5v-100q37 66 97.5 97t128.5 31t126.5 -29.5t95 -89t37.5 -144.5q1 -13 -6 -23t-25 -10h-453q6 -55 37.5 -100.5t81 -72t110.5 -26.5q86 0 152 50q7 5 13 5q8 0 13 -5.5t4 -13.5
q-2 -6 -7 -11q-32 -30 -77 -44.5t-95 -14.5q-72 0 -136 34.5t-97 96.5v-103q0 -8 -4.5 -13t-11.5 -5q-6 0 -11 5t-5 13v96q-23 -60 -76 -92t-123 -32q-67 0 -125.5 32.5t-93.5 93t-35 141.5q0 79 34 138.5t91.5 91.5t124.5 32q71 0 125.5 -32.5zM502 296q-5 90 -61 139
t-138 49q-68 0 -117.5 -31t-75.5 -83.5t-26 -114.5q0 -66 28.5 -117t76.5 -80t106 -33q53 -2 99 19.5t75.5 64t32.5 100.5v87zM534 256h451q-1 75 -33 127t-82.5 77t-107.5 25q-59 0 -110 -26t-83 -76.5t-35 -119.5v-7z" />
    <glyph glyph-name="b" unicode="b" horiz-adv-x="618" 
d="M526.5 405q40.5 -67 40.5 -148q0 -86 -40.5 -151t-118.5 -97q-45 -19 -95 -19q-67 0 -121 31.5t-76 88.5v-92q0 -18 -17 -18q-8 0 -13 5t-5 13v618q0 8 5 13t13 5q17 0 17 -18v-237q25 59 79.5 89.5t121.5 30.5q53 0 98 -19q71 -28 111.5 -95zM377.5 36q36.5 11 66.5 34
q88 70 88 185q0 57 -18 99q-25 61 -82 96t-123 34q-55 -2 -99 -26.5t-69 -66t-25 -92.5v-90q0 -58 28.5 -99.5t74.5 -63t96 -21.5q26 0 62.5 11z" />
    <glyph glyph-name="c" unicode="c" horiz-adv-x="531" 
d="M300 486q-59 0 -109 -28t-79.5 -81t-29.5 -125q0 -65 28 -117t79 -81.5t115 -29.5q49 0 93 20t74 58q5 7 12 8h2q13 0 18 -16q0 -10 -4 -14q-35 -44 -87 -67t-109 -23q-75 0 -133.5 34.5t-91 94.5t-32.5 134q0 78 32 138.5t91.5 94t139.5 33.5q53 0 97 -20.5t83 -65.5
q4 -5 4 -10v-2q0 -7 -4 -12t-11 -6h-3q-9 0 -13 7q-66 76 -162 76z" />
    <glyph glyph-name="cacute" unicode="&#x107;" horiz-adv-x="531" 
d="M300 486q-59 0 -109 -28t-79.5 -81t-29.5 -125q0 -65 28 -117t79 -81.5t115 -29.5q49 0 93 20t74 58q5 7 12 8h2q13 0 18 -16q0 -10 -4 -14q-35 -44 -87 -67t-109 -23q-75 0 -133.5 34.5t-91 94.5t-32.5 134q0 78 32 138.5t91.5 94t139.5 33.5q53 0 97 -20.5t83 -65.5
q4 -5 4 -10v-2q0 -7 -4 -12t-11 -6h-3q-9 0 -13 7q-66 76 -162 76zM364 725q8 0 13.5 -5.5t5.5 -12.5q0 -6 -4 -11l-82 -99q-6 -7 -12 -7q-8 0 -12.5 8t0.5 15l77 105q6 7 14 7z" />
    <glyph glyph-name="ccaron" unicode="&#x10d;" horiz-adv-x="531" 
d="M300 486q-59 0 -109 -28t-79.5 -81t-29.5 -125q0 -65 28 -117t79 -81.5t115 -29.5q49 0 93 20t74 58q5 7 12 8h2q13 0 18 -16q0 -10 -4 -14q-35 -44 -87 -67t-109 -23q-75 0 -133.5 34.5t-91 94.5t-32.5 134q0 78 32 138.5t91.5 94t139.5 33.5q53 0 97 -20.5t83 -65.5
q4 -5 4 -10v-2q0 -7 -4 -12t-11 -6h-3q-9 0 -13 7q-66 76 -162 76zM307 597q-7 -7 -12 -7t-12 7l-107 105q-3 3 -3 8t4 9.5t10 4.5q7 0 13 -6l95 -93l95 93q6 6 13 6q6 0 10.5 -4.5t4.5 -9.5q0 -4 -4 -8z" />
    <glyph glyph-name="ccedilla" unicode="&#xe7;" horiz-adv-x="531" 
d="M485 110q13 0 18 -16q0 -10 -4 -14q-33 -41 -80.5 -64t-99.5 -26l-27 -50q5 1 16 1q32 0 53.5 -19t21.5 -50q0 -35 -26 -55.5t-63 -20.5q-22 0 -42.5 8t-35.5 23q-6 6 -6 13q0 5 3.5 8.5t8.5 3.5q9 0 17 -7q27 -21 57 -21q24 0 40 13t16 34q0 24 -15 34.5t-36 10.5
q-10 0 -14 -1q-3 -1 -8 -1q-16 0 -16 12q0 3 4 15l23 49q-71 3 -126.5 38.5t-86.5 94t-31 130.5q0 78 32 138.5t91.5 94t139.5 33.5q53 0 97 -20.5t83 -65.5q4 -5 4 -10v-2q0 -7 -4 -12t-11 -6h-3q-9 0 -13 7q-66 76 -162 76q-59 0 -109 -28t-79.5 -81t-29.5 -125
q0 -65 28 -117t79 -81.5t115 -29.5q49 0 93 20t74 58q5 7 12 8h2z" />
    <glyph glyph-name="cdotaccent" unicode="&#x10b;" horiz-adv-x="531" 
d="M300 486q-59 0 -109 -28t-79.5 -81t-29.5 -125q0 -65 28 -117t79 -81.5t115 -29.5q49 0 93 20t74 58q5 7 12 8h2q13 0 18 -16q0 -10 -4 -14q-35 -44 -87 -67t-109 -23q-75 0 -133.5 34.5t-91 94.5t-32.5 134q0 78 32 138.5t91.5 94t139.5 33.5q53 0 97 -20.5t83 -65.5
q4 -5 4 -10v-2q0 -7 -4 -12t-11 -6h-3q-9 0 -13 7q-66 76 -162 76zM322.5 676.5q11.5 -10.5 11.5 -25.5q0 -18 -11 -27.5t-25 -9.5q-15 0 -26 10.5t-11 26.5q0 15 11 25.5t26 10.5q13 0 24.5 -10.5z" />
    <glyph glyph-name="d" unicode="d" horiz-adv-x="617" 
d="M309 519q67 0 119 -33t74 -91v241q0 18 17 18q8 0 13 -5t5 -13v-623q0 -8 -5 -13t-13 -5q-17 0 -17 18v99q-20 -52 -73 -88q-57 -34 -124 -34q-50 0 -95 19q-78 32 -118.5 97t-40.5 151q0 81 40.5 148t111.5 95q45 19 106 19zM475 113q27 42 27 96v87q0 60 -27 102.5
t-72 64t-98 21.5q-68 0 -117.5 -31t-75.5 -83t-26 -114q0 -65 27.5 -116t75.5 -81t108 -34q49 -1 101 22q50 24 77 66z" />
    <glyph glyph-name="eth" unicode="&#xf0;" horiz-adv-x="580" 
d="M470 696q6 0 10.5 -4t4.5 -10q0 -7 -5 -12l-41 -44q66 -57 77 -148q5 -31 5 -73l-1 -63v-145q-1 -53 -26 -99t-73 -75q-52 -33 -124 -33q-82 0 -140 40q-56 36 -87.5 97.5t-31.5 129.5q0 54 21 103q29 67 90 104t132 37q64 0 119.5 -30t87.5 -87q0 64 -4 91
q-11 79 -67 126l-52 -57q-5 -6 -14 -6q-6 0 -10.5 4t-4.5 10q0 7 5 12l51 56l-4 3q-53 30 -113 30q-46 0 -88.5 -17t-74.5 -49q-7 -6 -14 -6t-11.5 4.5t-4.5 11.5t6 14q62 62 159 73q8 1 25 1q80 0 142 -40l0.5 -0.5l0.5 -0.5l41 45q6 7 14 7zM75 257q0 -35 7 -63
q24 -88 93 -134q56 -38 122 -38q57 0 108 30q38 22 59.5 61.5t23.5 83.5v108q-10 51 -42 87.5t-76.5 55.5t-92.5 19q-61 0 -111.5 -30.5t-74.5 -90.5q-16 -41 -16 -89z" />
    <glyph glyph-name="dcaron" unicode="&#x10f;" horiz-adv-x="617" 
d="M309 519q67 0 119 -33t74 -91v241q0 18 17 18q8 0 13 -5t5 -13v-623q0 -8 -5 -13t-13 -5q-17 0 -17 18v99q-20 -52 -73 -88q-57 -34 -124 -34q-50 0 -95 19q-78 32 -118.5 97t-40.5 151q0 81 40.5 148t111.5 95q45 19 106 19zM583 513q-6 -6 -12 -6q-4 0 -6.5 3t-2.5 8
l2 9l31 105q6 19 18 19q6 0 10 -5t4 -14q0 -5 -3 -13l-31 -89q-4 -11 -10 -17zM475 113q27 42 27 96v87q0 60 -27 102.5t-72 64t-98 21.5q-68 0 -117.5 -31t-75.5 -83t-26 -114q0 -65 27.5 -116t75.5 -81t108 -34q49 -1 101 22q50 24 77 66z" />
    <glyph glyph-name="dcroat" unicode="&#x111;" horiz-adv-x="617" 
d="M595.5 570.5q6.5 -4.5 6.5 -10.5q0 -7 -6.5 -11.5t-19.5 -4.5h-39v-531q0 -8 -5 -13t-13 -5q-17 0 -17 18v99q-20 -52 -73 -88q-57 -34 -124 -34q-50 0 -95 19q-78 32 -118.5 97t-40.5 151q0 81 40.5 148t111.5 95q45 19 106 19q67 0 119 -33t74 -91v149h-105
q-13 0 -20 4.5t-7 10.5q0 7 7 11.5t20 4.5h105v61q0 18 17 18q8 0 13 -5t5 -13v-61h39q13 0 19.5 -4.5zM502 296q0 60 -27 102.5t-72 64t-98 21.5q-68 0 -117.5 -31t-75.5 -83t-26 -114q0 -65 27.5 -116t75.5 -81t108 -34q49 -1 101 22q50 24 77 66t27 96v87z" />
    <glyph glyph-name="e" unicode="e" horiz-adv-x="619" 
d="M562 233q-7 -10 -25 -10h-450q7 -55 37 -100.5t79.5 -72t109.5 -26.5q40 0 79.5 13t72.5 38q7 5 13 5q7 0 12 -4.5t5 -10.5q0 -8 -7 -15q-32 -30 -77 -45t-95 -15q-76 0 -137 35t-95 96t-34 136q0 84 37.5 143t97 89t124.5 30q68 0 126.5 -29.5t95 -89t37.5 -144.5
q1 -13 -6 -23zM534 256q-1 75 -33 127t-82.5 77t-107.5 25q-60 0 -111.5 -27.5t-82.5 -79.5t-31 -122h448z" />
    <glyph glyph-name="eacute" unicode="&#xe9;" horiz-adv-x="619" 
d="M562 233q-7 -10 -25 -10h-450q7 -55 37 -100.5t79.5 -72t109.5 -26.5q40 0 79.5 13t72.5 38q7 5 13 5q7 0 12 -4.5t5 -10.5q0 -8 -7 -15q-32 -30 -77 -45t-95 -15q-76 0 -137 35t-95 96t-34 136q0 84 37.5 143t97 89t124.5 30q68 0 126.5 -29.5t95 -89t37.5 -144.5
q1 -13 -6 -23zM534 256q-1 75 -33 127t-82.5 77t-107.5 25q-60 0 -111.5 -27.5t-82.5 -79.5t-31 -122h448zM376 715q8 0 13.5 -5.5t5.5 -12.5q0 -6 -4 -11l-82 -99q-6 -7 -12 -7q-8 0 -12.5 8t0.5 15l77 105q6 7 14 7z" />
    <glyph glyph-name="ecaron" unicode="&#x11b;" horiz-adv-x="619" 
d="M562 233q-7 -10 -25 -10h-450q7 -55 37 -100.5t79.5 -72t109.5 -26.5q40 0 79.5 13t72.5 38q7 5 13 5q7 0 12 -4.5t5 -10.5q0 -8 -7 -15q-32 -30 -77 -45t-95 -15q-76 0 -137 35t-95 96t-34 136q0 84 37.5 143t97 89t124.5 30q68 0 126.5 -29.5t95 -89t37.5 -144.5
q1 -13 -6 -23zM534 256q-1 75 -33 127t-82.5 77t-107.5 25q-60 0 -111.5 -27.5t-82.5 -79.5t-31 -122h448zM319 587q-7 -7 -12 -7t-12 7l-107 105q-3 3 -3 8t4 9.5t10 4.5q7 0 13 -6l95 -93l95 93q6 6 13 6q6 0 10.5 -4.5t4.5 -9.5q0 -4 -4 -8z" />
    <glyph glyph-name="ecircumflex" unicode="&#xea;" horiz-adv-x="619" 
d="M562 233q-7 -10 -25 -10h-450q7 -55 37 -100.5t79.5 -72t109.5 -26.5q40 0 79.5 13t72.5 38q7 5 13 5q7 0 12 -4.5t5 -10.5q0 -8 -7 -15q-32 -30 -77 -45t-95 -15q-76 0 -137 35t-95 96t-34 136q0 84 37.5 143t97 89t124.5 30q68 0 126.5 -29.5t95 -89t37.5 -144.5
q1 -13 -6 -23zM534 256q-1 75 -33 127t-82.5 77t-107.5 25q-60 0 -111.5 -27.5t-82.5 -79.5t-31 -122h448zM433 594q0 -5 -4.5 -9.5t-10.5 -4.5q-7 0 -13 6l-95 93l-95 -93q-6 -6 -12 -6q-7 0 -11 4.5t-4 9.5t3 8l107 105q7 7 12 7t12 -7l107 -105q4 -4 4 -8z" />
    <glyph glyph-name="edieresis" unicode="&#xeb;" horiz-adv-x="619" 
d="M562 233q-7 -10 -25 -10h-450q7 -55 37 -100.5t79.5 -72t109.5 -26.5q40 0 79.5 13t72.5 38q7 5 13 5q7 0 12 -4.5t5 -10.5q0 -8 -7 -15q-32 -30 -77 -45t-95 -15q-76 0 -137 35t-95 96t-34 136q0 84 37.5 143t97 89t124.5 30q68 0 126.5 -29.5t95 -89t37.5 -144.5
q1 -13 -6 -23zM534 256q-1 75 -33 127t-82.5 77t-107.5 25q-60 0 -111.5 -27.5t-82.5 -79.5t-31 -122h448zM229.5 662.5q9.5 -8.5 9.5 -21.5q0 -15 -9.5 -23t-20.5 -8q-13 0 -22 8.5t-9 22.5q0 13 9 21.5t22 8.5q11 0 20.5 -8.5zM422.5 662.5q9.5 -8.5 9.5 -21.5
q0 -15 -9 -23t-22 -8q-11 0 -20.5 8.5t-9.5 22.5q0 13 9.5 21.5t20.5 8.5q12 0 21.5 -8.5z" />
    <glyph glyph-name="edotaccent" unicode="&#x117;" horiz-adv-x="619" 
d="M562 233q-7 -10 -25 -10h-450q7 -55 37 -100.5t79.5 -72t109.5 -26.5q40 0 79.5 13t72.5 38q7 5 13 5q7 0 12 -4.5t5 -10.5q0 -8 -7 -15q-32 -30 -77 -45t-95 -15q-76 0 -137 35t-95 96t-34 136q0 84 37.5 143t97 89t124.5 30q68 0 126.5 -29.5t95 -89t37.5 -144.5
q1 -13 -6 -23zM534 256q-1 75 -33 127t-82.5 77t-107.5 25q-60 0 -111.5 -27.5t-82.5 -79.5t-31 -122h448zM334.5 666.5q11.5 -10.5 11.5 -25.5q0 -18 -11 -27.5t-25 -9.5q-15 0 -26 10.5t-11 26.5q0 15 11 25.5t26 10.5q13 0 24.5 -10.5z" />
    <glyph glyph-name="egrave" unicode="&#xe8;" horiz-adv-x="619" 
d="M562 233q-7 -10 -25 -10h-450q7 -55 37 -100.5t79.5 -72t109.5 -26.5q40 0 79.5 13t72.5 38q7 5 13 5q7 0 12 -4.5t5 -10.5q0 -8 -7 -15q-32 -30 -77 -45t-95 -15q-76 0 -137 35t-95 96t-34 136q0 84 37.5 143t97 89t124.5 30q68 0 126.5 -29.5t95 -89t37.5 -144.5
q1 -13 -6 -23zM534 256q-1 75 -33 127t-82.5 77t-107.5 25q-60 0 -111.5 -27.5t-82.5 -79.5t-31 -122h448zM340 603q2 -2 2 -7q0 -6 -4.5 -11t-9.5 -5q-6 0 -12 7l-82 99q-4 5 -4 11q0 7 5.5 12.5t13.5 5.5t14 -7z" />
    <glyph glyph-name="emacron" unicode="&#x113;" horiz-adv-x="619" 
d="M562 233q-7 -10 -25 -10h-450q7 -55 37 -100.5t79.5 -72t109.5 -26.5q40 0 79.5 13t72.5 38q7 5 13 5q7 0 12 -4.5t5 -10.5q0 -8 -7 -15q-32 -30 -77 -45t-95 -15q-76 0 -137 35t-95 96t-34 136q0 84 37.5 143t97 89t124.5 30q68 0 126.5 -29.5t95 -89t37.5 -144.5
q1 -13 -6 -23zM534 256q-1 75 -33 127t-82.5 77t-107.5 25q-60 0 -111.5 -27.5t-82.5 -79.5t-31 -122h448zM413 633.5q7 -4.5 7 -10.5t-7 -11t-19 -5h-179q-13 0 -20 4.5t-7 10.5q0 7 7 11.5t20 4.5h179q12 0 19 -4.5z" />
    <glyph glyph-name="eogonek" unicode="&#x119;" horiz-adv-x="619" 
d="M562 233q-7 -10 -25 -10h-450q7 -55 37 -100.5t79.5 -72t109.5 -26.5q40 0 79.5 13t72.5 38q7 5 13 5q7 0 12 -4.5t5 -10.5q0 -8 -7 -15q-32 -29 -70 -42l1 -5q0 -8 -9 -18q-24 -27 -43 -59.5t-19 -58.5q0 -19 11 -30t26 -11q25 0 40 23q10 16 23 16q5 0 8 -3t3 -8
q0 -8 -7 -18q-13 -20 -28 -29.5t-38 -9.5q-33 0 -51 18.5t-18 50.5t19 64.5t49 67.5q-32 -8 -74 -8q-75 1 -134.5 36.5t-93 96t-33.5 134.5q0 84 37.5 143t97 89t124.5 30q68 0 126.5 -29.5t95 -89t37.5 -144.5q1 -13 -6 -23zM534 256q-1 75 -33 127t-82.5 77t-107.5 25
q-60 0 -111.5 -27.5t-82.5 -79.5t-31 -122h448z" />
    <glyph glyph-name="f" unicode="f" horiz-adv-x="350" 
d="M149 21q0 -9 -5.5 -14.5t-12.5 -5.5t-12 5.5t-5 14.5v454h-80q-8 0 -12 4t-4 10t4.5 10.5t12.5 4.5h79v6q0 71 32.5 114.5t106.5 43.5q59 0 93 -26q8 -5 8 -13q0 -6 -4.5 -11t-10.5 -5q-5 0 -12 5q-20 18 -73 18q-60 0 -82.5 -32.5t-22.5 -93.5v-6h125q8 0 12.5 -4
t4.5 -10t-4 -10.5t-13 -4.5h-125v-454z" />
    <glyph glyph-name="g" unicode="g" horiz-adv-x="618" 
d="M506 -103.5q-32 -49.5 -87.5 -74.5t-124.5 -25q-60 0 -105.5 15t-84.5 51q-7 7 -7 14t5 11t12 4q8 0 13 -4q43 -33 79.5 -45t87.5 -12q57 0 104.5 20.5t76 62.5t28.5 102v93q-24 -57 -76.5 -88t-116.5 -31q-68 0 -127 30t-95 88.5t-36 139.5q0 87 41 153.5t118 98.5
q45 19 95 19q65 0 124 -35q53 -35 73 -89v99q0 18 17 18q8 0 13 -5t5 -13v-478q0 -70 -32 -119.5zM298 484q-71 -5 -123 -45q-45 -35 -66.5 -84t-21.5 -105q0 -63 26 -114t76.5 -81t120.5 -30q55 0 99 25t69 67t25 92v87q0 55 -27 98t-77 67t-101 23z" />
    <glyph glyph-name="gbreve" unicode="&#x11f;" horiz-adv-x="618" 
d="M506 -103.5q-32 -49.5 -87.5 -74.5t-124.5 -25q-60 0 -105.5 15t-84.5 51q-7 7 -7 14t5 11t12 4q8 0 13 -4q43 -33 79.5 -45t87.5 -12q57 0 104.5 20.5t76 62.5t28.5 102v93q-24 -57 -76.5 -88t-116.5 -31q-68 0 -127 30t-95 88.5t-36 139.5q0 87 41 153.5t118 98.5
q45 19 95 19q65 0 124 -35q53 -35 73 -89v99q0 18 17 18q8 0 13 -5t5 -13v-478q0 -70 -32 -119.5zM298 484q-71 -5 -123 -45q-45 -35 -66.5 -84t-21.5 -105q0 -63 26 -114t76.5 -81t120.5 -30q55 0 99 25t69 67t25 92v87q0 55 -27 98t-77 67t-101 23zM412 701q8 0 13 -7
t2 -16q-13 -45 -38.5 -66t-70.5 -21t-70.5 21t-38.5 66q-3 9 2 16t13 7q11 0 17 -16q13 -36 30 -50t47 -13q30 -1 48 13.5t29 49.5q6 16 17 16z" />
    <glyph glyph-name="uni0123" unicode="&#x123;" horiz-adv-x="618" 
d="M347 721q9 0 15 -7.5t2 -16.5l-48 -100q-5 -11 -16 -11q-9 0 -14.5 7.5t-1.5 16.5l48 102q4 9 15 9zM506 -103.5q-32 -49.5 -87.5 -74.5t-124.5 -25q-60 0 -105.5 15t-84.5 51q-7 7 -7 14t5 11t12 4q8 0 13 -4q43 -33 79.5 -45t87.5 -12q57 0 104.5 20.5t76 62.5
t28.5 102v93q-24 -57 -76.5 -88t-116.5 -31q-68 0 -127 30t-95 88.5t-36 139.5q0 87 41 153.5t118 98.5q45 19 95 19q65 0 124 -35q53 -35 73 -89v99q0 18 17 18q8 0 13 -5t5 -13v-478q0 -70 -32 -119.5zM298 484q-71 -5 -123 -45q-45 -35 -66.5 -84t-21.5 -105
q0 -63 26 -114t76.5 -81t120.5 -30q55 0 99 25t69 67t25 92v87q0 55 -27 98t-77 67t-101 23z" />
    <glyph glyph-name="gdotaccent" unicode="&#x121;" horiz-adv-x="618" 
d="M506 -103.5q-32 -49.5 -87.5 -74.5t-124.5 -25q-60 0 -105.5 15t-84.5 51q-7 7 -7 14t5 11t12 4q8 0 13 -4q43 -33 79.5 -45t87.5 -12q57 0 104.5 20.5t76 62.5t28.5 102v93q-24 -57 -76.5 -88t-116.5 -31q-68 0 -127 30t-95 88.5t-36 139.5q0 87 41 153.5t118 98.5
q45 19 95 19q65 0 124 -35q53 -35 73 -89v99q0 18 17 18q8 0 13 -5t5 -13v-478q0 -70 -32 -119.5zM298 484q-71 -5 -123 -45q-45 -35 -66.5 -84t-21.5 -105q0 -63 26 -114t76.5 -81t120.5 -30q55 0 99 25t69 67t25 92v87q0 55 -27 98t-77 67t-101 23zM341.5 676.5
q11.5 -10.5 11.5 -25.5q0 -18 -11 -27.5t-25 -9.5q-15 0 -26 10.5t-11 26.5q0 15 11 25.5t26 10.5q13 0 24.5 -10.5z" />
    <glyph glyph-name="h" unicode="h" horiz-adv-x="645" 
d="M505 394q-26 43 -69.5 67t-93.5 24q-52 0 -104.5 -29t-86.5 -82.5t-34 -123.5v-232q0 -18 -17 -18q-8 0 -13 5t-5 13v619q0 8 5 12.5t12 4.5t12.5 -4.5t5.5 -13.5v-281q15 56 52 92.5t83.5 54t90.5 17.5q58 0 109.5 -26.5t82.5 -76.5t31 -119v-279q0 -18 -17 -18
q-8 0 -13 5t-5 13v279q0 54 -26 97z" />
    <glyph glyph-name="hbar" unicode="&#x127;" horiz-adv-x="645" 
d="M452.5 492.5q51.5 -26.5 82.5 -76.5t31 -119v-279q0 -18 -17 -18q-8 0 -13 5t-5 13v279q0 54 -26 97t-69.5 67t-93.5 24q-52 0 -104.5 -29t-86.5 -82.5t-34 -123.5v-232q0 -18 -17 -18q-8 0 -13 5t-5 13v531h-32q-13 0 -20 4.5t-7 10.5q0 7 7 11.5t20 4.5h32v57
q0 8 5 12.5t12 4.5t12.5 -4.5t5.5 -13.5v-56h112q13 0 19.5 -4.5t6.5 -10.5q0 -7 -6.5 -11.5t-19.5 -4.5h-112v-194q15 56 52 92.5t83.5 54t90.5 17.5q58 0 109.5 -26.5z" />
    <glyph glyph-name="i" unicode="i" horiz-adv-x="197" 
d="M112.5 601q-5.5 -4 -12.5 -4q-8 0 -13.5 4t-5.5 12v16q0 8 5.5 12.5t13.5 4.5q7 0 12.5 -4.5t5.5 -12.5v-16q0 -8 -5.5 -12zM87.5 504.5q5.5 4.5 12.5 4.5t12 -4.5t5 -12.5v-474q0 -8 -5 -13t-12 -5t-12.5 5t-5.5 13v473q0 9 5.5 13.5z" />
    <glyph glyph-name="dotlessi" unicode="&#x131;" horiz-adv-x="196" 
d="M87.5 504.5q5.5 4.5 12.5 4.5t12 -4.5t5 -12.5v-474q0 -8 -5 -13t-12 -5t-12.5 5t-5.5 13v473q0 9 5.5 13.5z" />
    <glyph glyph-name="iacute" unicode="&#xed;" horiz-adv-x="196" 
d="M87.5 504.5q5.5 4.5 12.5 4.5t12 -4.5t5 -12.5v-474q0 -8 -5 -13t-12 -5t-12.5 5t-5.5 13v473q0 9 5.5 13.5zM166 715q8 0 13.5 -5.5t5.5 -12.5q0 -6 -4 -11l-82 -99q-6 -7 -12 -7q-8 0 -12.5 8t0.5 15l77 105q6 7 14 7z" />
    <glyph glyph-name="icircumflex" unicode="&#xee;" horiz-adv-x="196" 
d="M192 594q0 -6 -4.5 -11t-10.5 -5q-7 0 -12 8l-65 93l-65 -93q-6 -7 -12 -7q-8 0 -12 8t0 15l77 105q6 8 12 8t12 -8l77 -105q3 -4 3 -8zM87.5 504.5q5.5 4.5 12.5 4.5t12 -4.5t5 -12.5v-474q0 -8 -5 -13t-12 -5t-12.5 5t-5.5 13v473q0 9 5.5 13.5z" />
    <glyph glyph-name="idieresis" unicode="&#xef;" horiz-adv-x="196" 
d="M49.5 662.5q9.5 -8.5 9.5 -21.5q0 -15 -9.5 -23t-20.5 -8q-13 0 -22 8.5t-9 22.5q0 13 9 21.5t22 8.5q11 0 20.5 -8.5zM182.5 662.5q9.5 -8.5 9.5 -21.5q0 -15 -9 -23t-22 -8q-11 0 -20.5 8.5t-9.5 22.5q0 13 9.5 21.5t20.5 8.5q12 0 21.5 -8.5zM87.5 504.5
q5.5 4.5 12.5 4.5t12 -4.5t5 -12.5v-474q0 -8 -5 -13t-12 -5t-12.5 5t-5.5 13v473q0 9 5.5 13.5z" />
    <glyph glyph-name="i.loclTRK" horiz-adv-x="196" 
d="M87.5 504.5q5.5 4.5 12.5 4.5t12 -4.5t5 -12.5v-474q0 -8 -5 -13t-12 -5t-12.5 5t-5.5 13v473q0 9 5.5 13.5zM124.5 666.5q11.5 -10.5 11.5 -25.5q0 -18 -11 -27.5t-25 -9.5q-15 0 -26 10.5t-11 26.5q0 15 11 25.5t26 10.5q13 0 24.5 -10.5z" />
    <glyph glyph-name="igrave" unicode="&#xec;" horiz-adv-x="196" 
d="M87.5 504.5q5.5 4.5 12.5 4.5t12 -4.5t5 -12.5v-474q0 -8 -5 -13t-12 -5t-12.5 5t-5.5 13v473q0 9 5.5 13.5zM130 603q2 -2 2 -7q0 -6 -4.5 -11t-9.5 -5q-6 0 -12 7l-82 99q-4 5 -4 11q0 7 5.5 12.5t13.5 5.5t14 -7z" />
    <glyph glyph-name="ij" unicode="&#x133;" horiz-adv-x="406" 
d="M112.5 601q-5.5 -4 -12.5 -4q-8 0 -13.5 4t-5.5 12v16q0 8 5.5 12.5t13.5 4.5q7 0 12.5 -4.5t5.5 -12.5v-16q0 -8 -5.5 -12zM87.5 504.5q5.5 4.5 12.5 4.5t12 -4.5t5 -12.5v-474q0 -8 -5 -13t-12 -5t-12.5 5t-5.5 13v473q0 9 5.5 13.5zM319.5 601q-5.5 -4 -12.5 -4
q-8 0 -13.5 4t-5.5 12v16q0 8 5.5 12.5t13.5 4.5q7 0 12.5 -4.5t5.5 -12.5v-16q0 -8 -5.5 -12zM208 -189q-7 6 -7 15q0 11 12 16q34 21 50.5 46.5t21 54t4.5 74.5v30v445q0 7 5 12t13 5q7 0 12 -5t5 -12v-445q0 -63 -5 -101.5t-26.5 -74.5t-67.5 -62q-10 -4 -17 2z" />
    <glyph glyph-name="imacron" unicode="&#x12b;" horiz-adv-x="196" 
d="M163.5 633.5q6.5 -4.5 6.5 -10.5q0 -7 -6.5 -11.5t-19.5 -4.5h-89q-13 0 -20 4.5t-7 10.5q0 7 7 11.5t20 4.5h89q13 0 19.5 -4.5zM87.5 504.5q5.5 4.5 12.5 4.5t12 -4.5t5 -12.5v-474q0 -8 -5 -13t-12 -5t-12.5 5t-5.5 13v473q0 9 5.5 13.5z" />
    <glyph glyph-name="iogonek" unicode="&#x12f;" horiz-adv-x="196" 
d="M86.5 601q-5.5 4 -5.5 12v16q0 8 5.5 12.5t13.5 4.5q7 0 12.5 -4.5t5.5 -12.5v-16q0 -8 -5.5 -12t-12.5 -4q-8 0 -13.5 4zM142 -135q5 0 8 -3t3 -8q0 -8 -7 -18q-13 -20 -28 -29.5t-38 -9.5q-33 0 -51 18.5t-18 50.5q0 34 20.5 67.5t52.5 69.5q2 2 2 3q-4 6 -4 12v473
q0 9 5.5 13.5t12.5 4.5t12 -4.5t5 -12.5v-474q0 -6 -4 -12q0 -11 -9 -21q-24 -27 -43 -59.5t-19 -58.5q0 -19 11 -30t26 -11q25 0 40 23q10 16 23 16z" />
    <glyph glyph-name="j" unicode="j" horiz-adv-x="209" 
d="M122.5 601q-5.5 -4 -12.5 -4q-8 0 -13.5 4t-5.5 12v16q0 8 5.5 12.5t13.5 4.5q7 0 12.5 -4.5t5.5 -12.5v-16q0 -8 -5.5 -12zM11 -189q-7 6 -7 15q0 11 12 16q34 21 50.5 46.5t21 54t4.5 74.5v30v445q0 7 5 12t13 5q7 0 12 -5t5 -12v-445q0 -63 -5 -101.5t-26.5 -74.5
t-67.5 -62q-10 -4 -17 2z" />
    <glyph glyph-name="k" unicode="k" horiz-adv-x="493" 
d="M434 509q7 0 12 -4.5t5 -11.5q0 -8 -7 -15l-211 -186l231 -263q4 -5 4 -12t-5 -12t-12 -5q-6 0 -12 6l-233 264l-88 -77v-175q0 -8 -5 -13t-12 -5t-12.5 5t-5.5 13v620q0 9 5 13.5t12 4.5t12.5 -4.5t5.5 -13.5v-403l300 267q7 7 16 7z" />
    <glyph glyph-name="uni0137" unicode="&#x137;" horiz-adv-x="493" 
d="M434 509q7 0 12 -4.5t5 -11.5q0 -8 -7 -15l-211 -186l231 -263q4 -5 4 -12t-5 -12t-12 -5q-6 0 -12 6l-233 264l-88 -77v-175q0 -8 -5 -13t-12 -5t-12.5 5t-5.5 13v620q0 9 5 13.5t12 4.5t12.5 -4.5t5.5 -13.5v-403l300 267q7 7 16 7zM237 -249q-6 -6 -12 -6q-4 0 -6.5 3
t-2.5 8l2 9l31 105q6 19 18 19q5 0 9 -5t4 -14q0 -8 -2 -13l-31 -89q-4 -11 -10 -17z" />
    <glyph glyph-name="l" unicode="l" horiz-adv-x="196" 
d="M112 5q-5 -5 -12 -5q-8 0 -13 5t-5 12v619q0 7 5 12t13 5q7 0 12 -5t5 -12v-619q0 -7 -5 -12z" />
    <glyph glyph-name="lacute" unicode="&#x13a;" horiz-adv-x="196" 
d="M112 5q-5 -5 -12 -5q-8 0 -13 5t-5 12v619q0 7 5 12t13 5q7 0 12 -5t5 -12v-619q0 -7 -5 -12zM169 851q8 0 14 -5.5t6 -13.5q0 -7 -5 -12l-90 -91q-6 -6 -12 -6t-10 4.5t-4 10.5q0 5 3 9l86 98q4 6 12 6z" />
    <glyph glyph-name="lcaron" unicode="&#x13e;" horiz-adv-x="196" 
d="M180 513q-6 -6 -12 -6q-4 0 -6.5 3t-2.5 8l2 9l31 105q6 19 18 19q6 0 10 -5t4 -14q0 -5 -3 -13l-31 -89q-4 -11 -10 -17zM112 5q-5 -5 -12 -5q-8 0 -13 5t-5 12v619q0 7 5 12t13 5q7 0 12 -5t5 -12v-619q0 -7 -5 -12z" />
    <glyph glyph-name="uni013C" unicode="&#x13c;" horiz-adv-x="196" 
d="M112 5q-5 -5 -12 -5q-8 0 -13 5t-5 12v619q0 7 5 12t13 5q7 0 12 -5t5 -12v-619q0 -7 -5 -12zM70 -241q-6 -6 -12 -6q-4 0 -6.5 3t-2.5 8l2 9l31 105q6 19 18 19q5 0 9 -5t4 -14q0 -8 -2 -13l-31 -89q-4 -11 -10 -17z" />
    <glyph glyph-name="ldot" unicode="&#x140;" horiz-adv-x="196" 
d="M112 5q-5 -5 -12 -5q-8 0 -13 5t-5 12v619q0 7 5 12t13 5q7 0 12 -5t5 -12v-619q0 -7 -5 -12zM203 322.5q7 -7.5 7 -19.5q0 -11 -7 -18.5t-19 -7.5q-11 0 -19 7.5t-8 18.5q0 12 8 19.5t19 7.5q12 0 19 -7.5z" />
    <glyph glyph-name="lslash" unicode="&#x142;" horiz-adv-x="196" 
d="M193 364q7 0 10.5 -3t3.5 -8q0 -12 -17 -22l-73 -42v-272q0 -7 -5 -12t-12 -5q-8 0 -13 5t-5 12v252l-47 -27q-12 -6 -20 -6q-13 0 -13 11q0 5 4.5 11t13.5 11l62 36v331q0 7 5 12t13 5q7 0 12 -5t5 -12v-311l58 33q11 6 18 6z" />
    <glyph glyph-name="m" unicode="m" horiz-adv-x="1094" 
d="M954.5 397.5q-25.5 41.5 -69 64.5t-94.5 23q-54 0 -106 -28.5t-85.5 -82.5t-33.5 -124v-232q0 -8 -5 -13t-13 -5t-13 5t-5 13v269q0 61 -25 105.5t-68 68t-96 23.5t-105 -29t-85.5 -82.5t-33.5 -122.5v-232q0 -8 -5 -13t-12 -5t-12.5 5t-5.5 13v474q0 7 5 12t12 5
q8 0 13 -5t5 -12v-138q16 58 53.5 95t82.5 53.5t87 16.5q81 0 142.5 -45.5t74.5 -134.5q25 94 90.5 137t139.5 43q58 0 110.5 -25t85 -73t32.5 -113v-290q0 -8 -5 -13t-13 -5q-17 0 -17 18v287q0 51 -25.5 92.5z" />
    <glyph glyph-name="n" unicode="n" horiz-adv-x="645" 
d="M505 394q-26 43 -69.5 67t-93.5 24q-52 0 -104.5 -29t-86.5 -82.5t-34 -123.5v-232q0 -18 -17 -18q-8 0 -13 5t-5 13v474q0 7 5 12t13 5q17 0 17 -18v-136q15 56 52 92.5t83.5 54t90.5 17.5q58 0 109.5 -26.5t82.5 -76.5t31 -119v-286q0 -18 -17 -18q-8 0 -13 5t-5 13
v286q0 54 -26 97z" />
    <glyph glyph-name="nacute" unicode="&#x144;" horiz-adv-x="645" 
d="M505 394q-26 43 -69.5 67t-93.5 24q-52 0 -104.5 -29t-86.5 -82.5t-34 -123.5v-232q0 -18 -17 -18q-8 0 -13 5t-5 13v474q0 7 5 12t13 5q17 0 17 -18v-136q15 56 52 92.5t83.5 54t90.5 17.5q58 0 109.5 -26.5t82.5 -76.5t31 -119v-286q0 -18 -17 -18q-8 0 -13 5t-5 13
v286q0 54 -26 97zM398 725q8 0 13.5 -5.5t5.5 -12.5q0 -6 -4 -11l-82 -99q-6 -7 -12 -7q-8 0 -12.5 8t0.5 15l77 105q6 7 14 7z" />
    <glyph glyph-name="ncaron" unicode="&#x148;" horiz-adv-x="645" 
d="M505 394q-26 43 -69.5 67t-93.5 24q-52 0 -104.5 -29t-86.5 -82.5t-34 -123.5v-232q0 -18 -17 -18q-8 0 -13 5t-5 13v474q0 7 5 12t13 5q17 0 17 -18v-136q15 56 52 92.5t83.5 54t90.5 17.5q58 0 109.5 -26.5t82.5 -76.5t31 -119v-286q0 -18 -17 -18q-8 0 -13 5t-5 13
v286q0 54 -26 97zM341 597q-7 -7 -12 -7t-12 7l-107 105q-3 3 -3 8t4 9.5t10 4.5q7 0 13 -6l95 -93l95 93q6 6 13 6q6 0 10.5 -4.5t4.5 -9.5q0 -4 -4 -8z" />
    <glyph glyph-name="uni0146" unicode="&#x146;" horiz-adv-x="645" 
d="M505 394q-26 43 -69.5 67t-93.5 24q-52 0 -104.5 -29t-86.5 -82.5t-34 -123.5v-232q0 -18 -17 -18q-8 0 -13 5t-5 13v474q0 7 5 12t13 5q17 0 17 -18v-136q15 56 52 92.5t83.5 54t90.5 17.5q58 0 109.5 -26.5t82.5 -76.5t31 -119v-286q0 -18 -17 -18q-8 0 -13 5t-5 13
v286q0 54 -26 97zM315 -249q-6 -6 -12 -6q-4 0 -6.5 3t-2.5 8l2 9l31 105q6 19 18 19q5 0 9 -5t4 -14q0 -8 -2 -13l-31 -89q-4 -11 -10 -17z" />
    <glyph glyph-name="eng" unicode="&#x14b;" horiz-adv-x="645" 
d="M452.5 492.5q51.5 -26.5 82.5 -76.5t31 -119v-286q0 -72 -20 -120.5t-79 -81.5q-10 -4 -17 2t-7 15q0 11 12 16q34 21 50 45.5t21 52.5t5 71v286q0 54 -26 97t-69.5 67t-93.5 24q-52 0 -104.5 -29t-86.5 -82.5t-34 -123.5v-232q0 -18 -17 -18q-8 0 -13 5t-5 13v474
q0 7 5 12t13 5q17 0 17 -18v-136q15 56 52 92.5t83.5 54t90.5 17.5q58 0 109.5 -26.5z" />
    <glyph glyph-name="ntilde" unicode="&#xf1;" horiz-adv-x="645" 
d="M505 394q-26 43 -69.5 67t-93.5 24q-52 0 -104.5 -29t-86.5 -82.5t-34 -123.5v-232q0 -18 -17 -18q-8 0 -13 5t-5 13v474q0 7 5 12t13 5q17 0 17 -18v-136q15 56 52 92.5t83.5 54t90.5 17.5q58 0 109.5 -26.5t82.5 -76.5t31 -119v-286q0 -18 -17 -18q-8 0 -13 5t-5 13
v286q0 54 -26 97zM228.5 690.5q18.5 14.5 44.5 14.5q17 0 31.5 -9.5t35.5 -28.5q19 -18 31.5 -26.5t26.5 -8.5q24 0 36.5 14.5t21.5 36.5q4 10 12 10q5 0 8.5 -4t3.5 -10t-3 -12q-12 -27 -30.5 -44t-51.5 -17q-18 0 -33.5 10.5t-36.5 30.5q-18 17 -29 25t-22 8
q-21 1 -31.5 -10t-16.5 -33q-3 -9 -13 -9q-7 0 -11 5t-1 15q9 28 27.5 42.5z" />
    <glyph glyph-name="o" unicode="o" horiz-adv-x="616" 
d="M197 13q-51 23 -88 66q-60 74 -60 175q0 57 22 110t63.5 91.5t97.5 54.5q34 9 76 9q37 0 75 -9q79 -22 128 -88t56 -149q6 -114 -60 -194q-37 -43 -88 -66t-111 -23t-111 23zM307 484q-31 0 -63 -8q-73 -20 -116 -84t-43 -142q0 -41 13 -79.5t39 -69.5q31 -37 76 -57
t95 -20q51 0 96.5 20t76.5 57q26 31 39 69t13 79q0 78 -43.5 142.5t-117.5 84.5q-32 8 -65 8z" />
    <glyph glyph-name="oacute" unicode="&#xf3;" horiz-adv-x="616" 
d="M197 13q-51 23 -88 66q-60 74 -60 175q0 57 22 110t63.5 91.5t97.5 54.5q34 9 76 9q37 0 75 -9q79 -22 128 -88t56 -149q6 -114 -60 -194q-37 -43 -88 -66t-111 -23t-111 23zM307 484q-31 0 -63 -8q-73 -20 -116 -84t-43 -142q0 -41 13 -79.5t39 -69.5q31 -37 76 -57
t95 -20q51 0 96.5 20t76.5 57q26 31 39 69t13 79q0 78 -43.5 142.5t-117.5 84.5q-32 8 -65 8zM373 725q8 0 13.5 -5.5t5.5 -12.5q0 -6 -4 -11l-82 -99q-6 -7 -12 -7q-8 0 -12.5 8t0.5 15l77 105q6 7 14 7z" />
    <glyph glyph-name="ocircumflex" unicode="&#xf4;" horiz-adv-x="616" 
d="M197 13q-51 23 -88 66q-60 74 -60 175q0 57 22 110t63.5 91.5t97.5 54.5q34 9 76 9q37 0 75 -9q79 -22 128 -88t56 -149q6 -114 -60 -194q-37 -43 -88 -66t-111 -23t-111 23zM307 484q-31 0 -63 -8q-73 -20 -116 -84t-43 -142q0 -41 13 -79.5t39 -69.5q31 -37 76 -57
t95 -20q51 0 96.5 20t76.5 57q26 31 39 69t13 79q0 78 -43.5 142.5t-117.5 84.5q-32 8 -65 8zM430 604q0 -5 -4.5 -9.5t-10.5 -4.5q-7 0 -13 6l-95 93l-95 -93q-6 -6 -12 -6q-7 0 -11 4.5t-4 9.5t3 8l107 105q7 7 12 7t12 -7l107 -105q4 -4 4 -8z" />
    <glyph glyph-name="odieresis" unicode="&#xf6;" horiz-adv-x="616" 
d="M197 13q-51 23 -88 66q-60 74 -60 175q0 57 22 110t63.5 91.5t97.5 54.5q34 9 76 9q37 0 75 -9q79 -22 128 -88t56 -149q6 -114 -60 -194q-37 -43 -88 -66t-111 -23t-111 23zM307 484q-31 0 -63 -8q-73 -20 -116 -84t-43 -142q0 -41 13 -79.5t39 -69.5q31 -37 76 -57
t95 -20q51 0 96.5 20t76.5 57q26 31 39 69t13 79q0 78 -43.5 142.5t-117.5 84.5q-32 8 -65 8zM226.5 672.5q9.5 -8.5 9.5 -21.5q0 -15 -9.5 -23t-20.5 -8q-13 0 -22 8.5t-9 22.5q0 13 9 21.5t22 8.5q11 0 20.5 -8.5zM419.5 672.5q9.5 -8.5 9.5 -21.5q0 -15 -9 -23t-22 -8
q-11 0 -20.5 8.5t-9.5 22.5q0 13 9.5 21.5t20.5 8.5q12 0 21.5 -8.5z" />
    <glyph glyph-name="ograve" unicode="&#xf2;" horiz-adv-x="616" 
d="M197 13q-51 23 -88 66q-60 74 -60 175q0 57 22 110t63.5 91.5t97.5 54.5q34 9 76 9q37 0 75 -9q79 -22 128 -88t56 -149q6 -114 -60 -194q-37 -43 -88 -66t-111 -23t-111 23zM307 484q-31 0 -63 -8q-73 -20 -116 -84t-43 -142q0 -41 13 -79.5t39 -69.5q31 -37 76 -57
t95 -20q51 0 96.5 20t76.5 57q26 31 39 69t13 79q0 78 -43.5 142.5t-117.5 84.5q-32 8 -65 8zM337 613q2 -2 2 -7q0 -6 -4.5 -11t-9.5 -5q-6 0 -12 7l-82 99q-4 5 -4 11q0 7 5.5 12.5t13.5 5.5t14 -7z" />
    <glyph glyph-name="ohungarumlaut" unicode="&#x151;" horiz-adv-x="616" 
d="M197 13q-51 23 -88 66q-60 74 -60 175q0 57 22 110t63.5 91.5t97.5 54.5q34 9 76 9q37 0 75 -9q79 -22 128 -88t56 -149q6 -114 -60 -194q-37 -43 -88 -66t-111 -23t-111 23zM307 484q-31 0 -63 -8q-73 -20 -116 -84t-43 -142q0 -41 13 -79.5t39 -69.5q31 -37 76 -57
t95 -20q51 0 96.5 20t76.5 57q26 31 39 69t13 79q0 78 -43.5 142.5t-117.5 84.5q-32 8 -65 8zM301 727q7 0 13 -5t6 -12q0 -5 -3 -10l-58 -99q-4 -8 -12 -8t-13 7t-1 14l53 104q4 9 15 9zM409 727q7 0 13 -5t6 -13q0 -6 -2 -9l-59 -99q-4 -8 -12 -8t-13 7t-1 14l53 104
q4 9 15 9z" />
    <glyph glyph-name="omacron" unicode="&#x14d;" horiz-adv-x="616" 
d="M197 13q-51 23 -88 66q-60 74 -60 175q0 57 22 110t63.5 91.5t97.5 54.5q34 9 76 9q37 0 75 -9q79 -22 128 -88t56 -149q6 -114 -60 -194q-37 -43 -88 -66t-111 -23t-111 23zM307 484q-31 0 -63 -8q-73 -20 -116 -84t-43 -142q0 -41 13 -79.5t39 -69.5q31 -37 76 -57
t95 -20q51 0 96.5 20t76.5 57q26 31 39 69t13 79q0 78 -43.5 142.5t-117.5 84.5q-32 8 -65 8zM410 643.5q7 -4.5 7 -10.5t-7 -11t-19 -5h-179q-13 0 -20 4.5t-7 10.5q0 7 7 11.5t20 4.5h179q12 0 19 -4.5z" />
    <glyph glyph-name="oslash" unicode="&#xf8;" horiz-adv-x="617" 
d="M538.5 379.5q29.5 -63.5 29.5 -127.5q0 -74 -33.5 -133.5t-93 -94t-133.5 -34.5q-68 0 -122 28l-44 -77q-6 -10 -13 -10q-5 0 -8 3.5t-3 8.5t3 10l44 77q-55 35 -85.5 93.5t-30.5 128.5q0 84 36.5 144.5t96 91.5t126.5 31q70 0 122 -27l44 76q5 9 13 9q5 0 8 -3.5t3 -8.5
q0 -4 -3 -9l-44 -76q58 -37 87.5 -100.5zM110 139q26 -50 72 -80l230 401q-46 24 -106 24t-111 -28.5t-81 -81.5t-30 -122q0 -63 26 -113zM423 54.5q51 30.5 80 82.5t29 115q0 64 -26.5 115t-72.5 81l-230 -401q46 -23 104 -23q65 0 116 30.5z" />
    <glyph glyph-name="otilde" unicode="&#xf5;" horiz-adv-x="616" 
d="M197 13q-51 23 -88 66q-60 74 -60 175q0 57 22 110t63.5 91.5t97.5 54.5q34 9 76 9q37 0 75 -9q79 -22 128 -88t56 -149q6 -114 -60 -194q-37 -43 -88 -66t-111 -23t-111 23zM307 484q-31 0 -63 -8q-73 -20 -116 -84t-43 -142q0 -41 13 -79.5t39 -69.5q31 -37 76 -57
t95 -20q51 0 96.5 20t76.5 57q26 31 39 69t13 79q0 78 -43.5 142.5t-117.5 84.5q-32 8 -65 8zM203.5 690.5q18.5 14.5 44.5 14.5q17 0 31.5 -9.5t35.5 -28.5q19 -18 31.5 -26.5t26.5 -8.5q24 0 36.5 14.5t21.5 36.5q4 10 12 10q5 0 8.5 -4t3.5 -10t-3 -12q-12 -27 -30.5 -44
t-51.5 -17q-18 0 -33.5 10.5t-36.5 30.5q-18 17 -29 25t-22 8q-21 1 -31.5 -10t-16.5 -33q-3 -9 -13 -9q-7 0 -11 5t-1 15q9 28 27.5 42.5z" />
    <glyph glyph-name="oe" unicode="&#x153;" horiz-adv-x="1101" 
d="M1045 233q-7 -10 -25 -10h-451q8 -67 52 -119q32 -38 78 -59t97 -21q40 0 79.5 13t72.5 38q7 5 13 5q8 0 13 -5.5t4 -13.5q-2 -6 -7 -11q-32 -30 -77 -45t-95 -15q-61 0 -116 24t-90 68q-14 18 -26 43.5t-17 50.5q-5 -26 -17 -52t-26 -42q-37 -44 -88.5 -68t-110.5 -24
q-76 0 -135 35t-91.5 95t-32.5 134q0 82 36.5 142t95.5 91.5t127 31.5q83 0 149 -46t94 -132q26 89 91.5 133.5t149.5 44.5q68 0 126.5 -29.5t95 -89t37.5 -144.5q1 -13 -6 -23zM1017 256q-1 75 -33 127t-82.5 77t-107.5 25q-60 0 -111.5 -27.5t-83 -79.5t-31.5 -122h449z
M196 455.5q-51 -28.5 -81 -81.5t-30 -122q0 -62 28.5 -114t79.5 -83t115 -31q50 0 96 21.5t77 58.5q26 31 39 68.5t13 77.5q0 72 -31.5 125.5t-83.5 81t-111 27.5q-60 0 -111 -28.5z" />
    <glyph glyph-name="p" unicode="p" horiz-adv-x="620" 
d="M310 -10q-64 0 -116.5 31t-76.5 88v-289q0 -18 -17 -18q-8 0 -13 5t-5 13v671q0 8 5 13t13 5q17 0 17 -18v-96q20 54 73 89q59 35 124 35q67 0 125.5 -33.5t93.5 -95.5t35 -143q0 -80 -40 -145.5t-112 -93.5q-42 -18 -106 -18zM117 209q0 -51 25 -92t69 -65.5t99 -26.5
q70 -1 120.5 29t76.5 81t26 114q0 78 -35 131t-85.5 78.5t-96.5 25.5q-52 0 -97.5 -22t-73.5 -64.5t-28 -101.5v-87z" />
    <glyph glyph-name="thorn" unicode="&#xfe;" horiz-adv-x="619" 
d="M526 104q-41 -66 -118 -98q-38 -16 -95 -16q-67 0 -121 31.5t-76 88.5v-281q0 -17 -18 -17q-7 0 -12 4.5t-5 12.5v856q0 8 5 13t13 5q17 0 17 -18v-289q25 59 79.5 91t121.5 32t124.5 -32t91.5 -91.5t34 -138.5q0 -87 -41 -153zM321 25q75 5 123 42q88 70 88 188
q0 64 -27 116t-78 82.5t-120 30.5q-54 0 -96 -25.5t-66.5 -68.5t-28.5 -94v-87q3 -56 29 -97t75 -65q52 -23 101 -22z" />
    <glyph glyph-name="q" unicode="q" horiz-adv-x="621" 
d="M88 392.5q35 61.5 93 94t126 32.5q66 0 120.5 -33t76.5 -91v96q0 18 17 18q8 0 13 -5t5 -13v-671q0 -8 -5 -13t-13 -5q-17 0 -17 18v289q-29 -69 -87.5 -94t-113.5 -25q-67 0 -124 30.5t-91.5 89.5t-34.5 139q0 82 35 143.5zM193.5 452.5q-49.5 -31.5 -77.5 -85.5
t-28 -119q0 -62 26 -112.5t75.5 -80.5t117.5 -30q37 0 80.5 16.5t77.5 58t39 109.5v87q-3 59 -31 101.5t-72.5 64.5t-95.5 22q-62 0 -111.5 -31.5z" />
    <glyph glyph-name="r" unicode="r" horiz-adv-x="337" 
d="M185 473.5q51 35.5 114 35.5q18 0 18 -17t-18 -17q-90 0 -135.5 -65.5t-45.5 -164.5v-226q0 -8 -5 -13t-12 -5q-8 0 -13 5t-5 13v473q0 7 5 12t13 5q7 0 12 -5t5 -12v-111q16 57 67 92.5z" />
    <glyph glyph-name="racute" unicode="&#x155;" horiz-adv-x="337" 
d="M185 473.5q51 35.5 114 35.5q18 0 18 -17t-18 -17q-90 0 -135.5 -65.5t-45.5 -164.5v-226q0 -8 -5 -13t-12 -5q-8 0 -13 5t-5 13v473q0 7 5 12t13 5q7 0 12 -5t5 -12v-111q16 57 67 92.5zM260 725q8 0 13.5 -5.5t5.5 -12.5q0 -6 -4 -11l-82 -99q-6 -7 -12 -7
q-8 0 -12.5 8t0.5 15l77 105q6 7 14 7z" />
    <glyph glyph-name="rcaron" unicode="&#x159;" horiz-adv-x="337" 
d="M185 473.5q51 35.5 114 35.5q18 0 18 -17t-18 -17q-90 0 -135.5 -65.5t-45.5 -164.5v-226q0 -8 -5 -13t-12 -5q-8 0 -13 5t-5 13v473q0 7 5 12t13 5q7 0 12 -5t5 -12v-111q16 57 67 92.5zM203 597q-7 -7 -12 -7t-12 7l-107 105q-3 3 -3 8t4 9.5t10 4.5q7 0 13 -6l95 -93
l95 93q6 6 13 6q6 0 10.5 -4.5t4.5 -9.5q0 -4 -4 -8z" />
    <glyph glyph-name="uni0157" unicode="&#x157;" horiz-adv-x="337" 
d="M185 473.5q51 35.5 114 35.5q18 0 18 -17t-18 -17q-90 0 -135.5 -65.5t-45.5 -164.5v-226q0 -8 -5 -13t-12 -5q-8 0 -13 5t-5 13v473q0 7 5 12t13 5q7 0 12 -5t5 -12v-111q16 57 67 92.5zM63 -248q-6 -6 -12 -6q-4 0 -6.5 3t-2.5 8l2 9l31 105q6 19 18 19q5 0 9 -5t4 -14
q0 -8 -2 -13l-31 -89q-4 -11 -10 -17z" />
    <glyph glyph-name="s" unicode="s" horiz-adv-x="532" 
d="M40 127q5 6 13 6q7 0 11.5 -4.5t5.5 -12.5q9 -44 67 -69t129 -25q36 0 80 12t76 38.5t32 68.5q0 39 -25 59t-62.5 27.5t-101.5 12.5q-73 6 -116.5 15t-74 36.5t-30.5 80.5q0 45 32.5 78.5t81.5 51t98 17.5q177 0 216 -103q3 -12 -2.5 -19t-13.5 -7q-5 0 -10 3.5t-7 9.5
q-31 83 -183 83q-40 0 -81 -12t-69 -38t-28 -64q0 -37 24.5 -56.5t61.5 -26.5t100 -12q74 -7 118.5 -16.5t75.5 -37.5t31 -82q0 -55 -36.5 -89t-87.5 -48t-99 -14q-79 0 -147 27.5t-81 92.5q-3 11 2 17z" />
    <glyph glyph-name="sacute" unicode="&#x15b;" horiz-adv-x="532" 
d="M40 127q5 6 13 6q7 0 11.5 -4.5t5.5 -12.5q9 -44 67 -69t129 -25q36 0 80 12t76 38.5t32 68.5q0 39 -25 59t-62.5 27.5t-101.5 12.5q-73 6 -116.5 15t-74 36.5t-30.5 80.5q0 45 32.5 78.5t81.5 51t98 17.5q177 0 216 -103q3 -12 -2.5 -19t-13.5 -7q-5 0 -10 3.5t-7 9.5
q-31 83 -183 83q-40 0 -81 -12t-69 -38t-28 -64q0 -37 24.5 -56.5t61.5 -26.5t100 -12q74 -7 118.5 -16.5t75.5 -37.5t31 -82q0 -55 -36.5 -89t-87.5 -48t-99 -14q-79 0 -147 27.5t-81 92.5q-3 11 2 17zM341 725q8 0 13.5 -5.5t5.5 -12.5q0 -6 -4 -11l-82 -99q-6 -7 -12 -7
q-8 0 -12.5 8t0.5 15l77 105q6 7 14 7z" />
    <glyph glyph-name="scaron" unicode="&#x161;" horiz-adv-x="532" 
d="M40 127q5 6 13 6q7 0 11.5 -4.5t5.5 -12.5q9 -44 67 -69t129 -25q36 0 80 12t76 38.5t32 68.5q0 39 -25 59t-62.5 27.5t-101.5 12.5q-73 6 -116.5 15t-74 36.5t-30.5 80.5q0 45 32.5 78.5t81.5 51t98 17.5q177 0 216 -103q3 -12 -2.5 -19t-13.5 -7q-5 0 -10 3.5t-7 9.5
q-31 83 -183 83q-40 0 -81 -12t-69 -38t-28 -64q0 -37 24.5 -56.5t61.5 -26.5t100 -12q74 -7 118.5 -16.5t75.5 -37.5t31 -82q0 -55 -36.5 -89t-87.5 -48t-99 -14q-79 0 -147 27.5t-81 92.5q-3 11 2 17zM284 597q-7 -7 -12 -7t-12 7l-107 105q-3 3 -3 8t4 9.5t10 4.5
q7 0 13 -6l95 -93l95 93q6 6 13 6q6 0 10.5 -4.5t4.5 -9.5q0 -4 -4 -8z" />
    <glyph glyph-name="scedilla" unicode="&#x15f;" horiz-adv-x="532" 
d="M455 54.5q-34 -33.5 -82.5 -48.5t-96.5 -16l-27 -50q5 1 16 1q32 0 53.5 -19t21.5 -50q0 -35 -26 -55.5t-63 -20.5q-22 0 -42.5 8t-35.5 23q-6 6 -6 13q0 5 3.5 8.5t8.5 3.5q9 0 17 -7q27 -21 57 -21q24 0 40 13t16 34q0 24 -15 34.5t-36 10.5q-10 0 -14 -1q-3 -1 -8 -1
q-16 0 -16 12q0 3 4 15l23 49q-76 4 -136.5 31.5t-72.5 88.5q-3 11 2 17t13 6q7 0 11.5 -4.5t5.5 -12.5q9 -44 67 -69t129 -25q36 0 80 12t76 38.5t32 68.5q0 39 -25 59t-62.5 27.5t-101.5 12.5q-73 6 -116.5 15t-74 36.5t-30.5 80.5q0 45 32.5 78.5t81.5 51t98 17.5
q177 0 216 -103q3 -12 -2.5 -19t-13.5 -7q-5 0 -10 3.5t-7 9.5q-31 83 -183 83q-40 0 -81 -12t-69 -38t-28 -64q0 -37 24.5 -56.5t61.5 -26.5t100 -12q74 -7 118.5 -16.5t75.5 -37.5t31 -82q0 -53 -34 -86.5z" />
    <glyph glyph-name="uni0219" unicode="&#x219;" horiz-adv-x="532" 
d="M40 127q5 6 13 6q7 0 11.5 -4.5t5.5 -12.5q9 -44 67 -69t129 -25q36 0 80 12t76 38.5t32 68.5q0 39 -25 59t-62.5 27.5t-101.5 12.5q-73 6 -116.5 15t-74 36.5t-30.5 80.5q0 45 32.5 78.5t81.5 51t98 17.5q177 0 216 -103q3 -12 -2.5 -19t-13.5 -7q-5 0 -10 3.5t-7 9.5
q-31 83 -183 83q-40 0 -81 -12t-69 -38t-28 -64q0 -37 24.5 -56.5t61.5 -26.5t100 -12q74 -7 118.5 -16.5t75.5 -37.5t31 -82q0 -55 -36.5 -89t-87.5 -48t-99 -14q-79 0 -147 27.5t-81 92.5q-3 11 2 17zM254 -249q-6 -6 -12 -6q-4 0 -6.5 3t-2.5 8l2 9l31 105q6 19 18 19
q5 0 9 -5t4 -14q0 -8 -2 -13l-31 -89q-4 -11 -10 -17z" />
    <glyph glyph-name="germandbls" unicode="&#xdf;" horiz-adv-x="559" 
d="M115 -162q0 -9 -4.5 -13.5t-11.5 -4.5t-12.5 4.5t-5.5 13.5v644q0 90 55 127t133 37q79 0 137 -38.5t58 -125.5q0 -49 -26.5 -87.5t-73.5 -53.5q67 -14 107.5 -54t40.5 -106q0 -98 -73 -139.5t-181 -41.5h-77q-9 0 -13.5 4.5t-4.5 10.5t5 10.5t13 4.5h77q94 0 156.5 33.5
t62.5 117.5q0 70 -51.5 103.5t-135.5 33.5h-107q-8 0 -12 4.5t-4 11.5t4 11.5t12 4.5h54q83 0 137.5 33t54.5 99q0 71 -49 102.5t-112 31.5t-108 -30.5t-45 -103.5v-644z" />
    <glyph glyph-name="t" unicode="t" horiz-adv-x="385" 
d="M316.5 504q5.5 -5 5.5 -11t-5.5 -11t-14.5 -5h-139v-307q0 -67 21 -106.5t84 -39.5q14 0 31.5 4.5t28.5 10.5q3 2 9 2q7 0 12 -4.5t5 -10.5q0 -10 -13 -17q-33 -17 -73 -17q-77 0 -108 49t-31 129v307h-93q-9 0 -14.5 5t-5.5 11t5.5 11t14.5 5h93v128q0 8 5 12t12 4
t12 -4t5 -12v-128h139q9 0 14.5 -5z" />
    <glyph glyph-name="tbar" unicode="&#x167;" horiz-adv-x="385" 
d="M337 41q7 0 12 -4.5t5 -10.5q0 -10 -13 -17q-33 -17 -73 -17q-77 0 -108 49t-31 129v111h-67q-13 0 -20 4.5t-7 10.5q0 7 7 11.5t20 4.5h67v165h-93q-9 0 -14.5 5t-5.5 11t5.5 11t14.5 5h93v128q0 8 5 12t12 4t12 -4t5 -12v-128h139q9 0 14.5 -5t5.5 -11t-5.5 -11
t-14.5 -5h-139v-165h78q13 0 19.5 -4.5t6.5 -10.5q0 -7 -6.5 -11.5t-19.5 -4.5h-78v-111q0 -67 21 -106.5t84 -39.5q14 0 31.5 4.5t28.5 10.5q3 2 9 2z" />
    <glyph glyph-name="tcaron" unicode="&#x165;" horiz-adv-x="385" 
d="M259 553q-6 -6 -12 -6q-8 0 -8 12q0 5 1 8l19 69q6 19 17 19q6 0 10 -5t4 -14q0 -8 -2 -13l-19 -53q-4 -11 -10 -17zM316.5 504q5.5 -5 5.5 -11t-5.5 -11t-14.5 -5h-139v-307q0 -67 21 -106.5t84 -39.5q14 0 31.5 4.5t28.5 10.5q3 2 9 2q7 0 12 -4.5t5 -10.5
q0 -10 -13 -17q-33 -17 -73 -17q-77 0 -108 49t-31 129v307h-93q-9 0 -14.5 5t-5.5 11t5.5 11t14.5 5h93v128q0 8 5 12t12 4t12 -4t5 -12v-128h139q9 0 14.5 -5z" />
    <glyph glyph-name="uni0163" unicode="&#x163;" horiz-adv-x="385" 
d="M337 41q7 0 12 -4.5t5 -10.5q0 -10 -13 -17q-33 -17 -73 -17q-10 0 -15 1l-1 -2l-27 -51q5 1 16 1q32 0 53.5 -19t21.5 -50q0 -35 -26 -55.5t-63 -20.5q-22 0 -42.5 8t-35.5 23q-6 6 -6 13q0 5 3.5 8.5t8.5 3.5q9 0 17 -7q27 -21 57 -21q24 0 40 13t16 34q0 24 -15 34.5
t-36 10.5q-10 0 -14 -1q-3 -1 -8 -1q-16 0 -16 12q0 3 4 15l26 56q-97 24 -97 173v307h-93q-9 0 -14.5 5t-5.5 11t5.5 11t14.5 5h93v128q0 8 5 12t12 4t12 -4t5 -12v-128h139q9 0 14.5 -5t5.5 -11t-5.5 -11t-14.5 -5h-139v-307q0 -67 21 -106.5t84 -39.5q14 0 31.5 4.5
t28.5 10.5q3 2 9 2z" />
    <glyph glyph-name="uni021B" unicode="&#x21b;" horiz-adv-x="385" 
d="M316.5 504q5.5 -5 5.5 -11t-5.5 -11t-14.5 -5h-139v-307q0 -67 21 -106.5t84 -39.5q14 0 31.5 4.5t28.5 10.5q3 2 9 2q7 0 12 -4.5t5 -10.5q0 -10 -13 -17q-33 -17 -73 -17q-77 0 -108 49t-31 129v307h-93q-9 0 -14.5 5t-5.5 11t5.5 11t14.5 5h93v128q0 8 5 12t12 4
t12 -4t5 -12v-128h139q9 0 14.5 -5zM230 -249q-6 -6 -12 -6q-4 0 -6.5 3t-2.5 8l2 9l31 105q6 19 18 19q5 0 9 -5t4 -14q0 -8 -2 -13l-31 -89q-4 -11 -10 -17z" />
    <glyph glyph-name="u" unicode="u" horiz-adv-x="646" 
d="M141.5 114.5q26.5 -42.5 70 -66.5t93.5 -24q52 0 104 28.5t86 81.5t34 123v234q0 18 17 18q8 0 13 -5t5 -13v-474q0 -7 -5 -12t-13 -5q-17 0 -17 18v140q-15 -55 -51 -93t-81 -56.5t-88 -18.5q-59 0 -111.5 25.5t-85 75.5t-32.5 118v282q0 18 17 18q8 0 13 -5t5 -13v-282
q0 -52 26.5 -94.5z" />
    <glyph glyph-name="uacute" unicode="&#xfa;" horiz-adv-x="646" 
d="M141.5 114.5q26.5 -42.5 70 -66.5t93.5 -24q52 0 104 28.5t86 81.5t34 123v234q0 18 17 18q8 0 13 -5t5 -13v-474q0 -7 -5 -12t-13 -5q-17 0 -17 18v140q-15 -55 -51 -93t-81 -56.5t-88 -18.5q-59 0 -111.5 25.5t-85 75.5t-32.5 118v282q0 18 17 18q8 0 13 -5t5 -13v-282
q0 -52 26.5 -94.5zM397 725q8 0 13.5 -5.5t5.5 -12.5q0 -6 -4 -11l-82 -99q-6 -7 -12 -7q-8 0 -12.5 8t0.5 15l77 105q6 7 14 7z" />
    <glyph glyph-name="ucircumflex" unicode="&#xfb;" horiz-adv-x="646" 
d="M141.5 114.5q26.5 -42.5 70 -66.5t93.5 -24q52 0 104 28.5t86 81.5t34 123v234q0 18 17 18q8 0 13 -5t5 -13v-474q0 -7 -5 -12t-13 -5q-17 0 -17 18v140q-15 -55 -51 -93t-81 -56.5t-88 -18.5q-59 0 -111.5 25.5t-85 75.5t-32.5 118v282q0 18 17 18q8 0 13 -5t5 -13v-282
q0 -52 26.5 -94.5zM454 604q0 -5 -4.5 -9.5t-10.5 -4.5q-7 0 -13 6l-95 93l-95 -93q-6 -6 -12 -6q-7 0 -11 4.5t-4 9.5t3 8l107 105q7 7 12 7t12 -7l107 -105q4 -4 4 -8z" />
    <glyph glyph-name="udieresis" unicode="&#xfc;" horiz-adv-x="646" 
d="M141.5 114.5q26.5 -42.5 70 -66.5t93.5 -24q52 0 104 28.5t86 81.5t34 123v234q0 18 17 18q8 0 13 -5t5 -13v-474q0 -7 -5 -12t-13 -5q-17 0 -17 18v140q-15 -55 -51 -93t-81 -56.5t-88 -18.5q-59 0 -111.5 25.5t-85 75.5t-32.5 118v282q0 18 17 18q8 0 13 -5t5 -13v-282
q0 -52 26.5 -94.5zM250.5 672.5q9.5 -8.5 9.5 -21.5q0 -15 -9.5 -23t-20.5 -8q-13 0 -22 8.5t-9 22.5q0 13 9 21.5t22 8.5q11 0 20.5 -8.5zM443.5 672.5q9.5 -8.5 9.5 -21.5q0 -15 -9 -23t-22 -8q-11 0 -20.5 8.5t-9.5 22.5q0 13 9.5 21.5t20.5 8.5q12 0 21.5 -8.5z" />
    <glyph glyph-name="ugrave" unicode="&#xf9;" horiz-adv-x="646" 
d="M141.5 114.5q26.5 -42.5 70 -66.5t93.5 -24q52 0 104 28.5t86 81.5t34 123v234q0 18 17 18q8 0 13 -5t5 -13v-474q0 -7 -5 -12t-13 -5q-17 0 -17 18v140q-15 -55 -51 -93t-81 -56.5t-88 -18.5q-59 0 -111.5 25.5t-85 75.5t-32.5 118v282q0 18 17 18q8 0 13 -5t5 -13v-282
q0 -52 26.5 -94.5zM361 613q2 -2 2 -7q0 -6 -4.5 -11t-9.5 -5q-6 0 -12 7l-82 99q-4 5 -4 11q0 7 5.5 12.5t13.5 5.5t14 -7z" />
    <glyph glyph-name="uhungarumlaut" unicode="&#x171;" horiz-adv-x="646" 
d="M141.5 114.5q26.5 -42.5 70 -66.5t93.5 -24q52 0 104 28.5t86 81.5t34 123v234q0 18 17 18q8 0 13 -5t5 -13v-474q0 -7 -5 -12t-13 -5q-17 0 -17 18v140q-15 -55 -51 -93t-81 -56.5t-88 -18.5q-59 0 -111.5 25.5t-85 75.5t-32.5 118v282q0 18 17 18q8 0 13 -5t5 -13v-282
q0 -52 26.5 -94.5zM325 727q7 0 13 -5t6 -12q0 -5 -3 -10l-58 -99q-4 -8 -12 -8t-13 7t-1 14l53 104q4 9 15 9zM433 727q7 0 13 -5t6 -13q0 -6 -2 -9l-59 -99q-4 -8 -12 -8t-13 7t-1 14l53 104q4 9 15 9z" />
    <glyph glyph-name="umacron" unicode="&#x16b;" horiz-adv-x="646" 
d="M141.5 114.5q26.5 -42.5 70 -66.5t93.5 -24q52 0 104 28.5t86 81.5t34 123v234q0 18 17 18q8 0 13 -5t5 -13v-474q0 -7 -5 -12t-13 -5q-17 0 -17 18v140q-15 -55 -51 -93t-81 -56.5t-88 -18.5q-59 0 -111.5 25.5t-85 75.5t-32.5 118v282q0 18 17 18q8 0 13 -5t5 -13v-282
q0 -52 26.5 -94.5zM434 643.5q7 -4.5 7 -10.5t-7 -11t-19 -5h-179q-13 0 -20 4.5t-7 10.5q0 7 7 11.5t20 4.5h179q12 0 19 -4.5z" />
    <glyph glyph-name="uogonek" unicode="&#x173;" horiz-adv-x="646" 
d="M586 -135q5 0 8 -3t3 -8q0 -8 -7 -18q-13 -20 -28 -29.5t-38 -9.5q-33 0 -51 18.5t-18 50.5q0 34 20.5 67.5t52.5 69.5l4 4q-3 5 -3 11v140q-15 -55 -51 -93t-81 -56.5t-88 -18.5q-59 0 -111.5 25.5t-85 75.5t-32.5 118v282q0 18 17 18q8 0 13 -5t5 -13v-282
q0 -52 26.5 -94.5t70 -66.5t93.5 -24q52 0 104 28.5t86 81.5t34 123v234q0 18 17 18q8 0 13 -5t5 -13v-474q0 -9 -7 -14q-2 -10 -9 -18q-24 -27 -43 -59.5t-19 -58.5q0 -19 11 -30t26 -11q25 0 40 23q10 16 23 16z" />
    <glyph glyph-name="uring" unicode="&#x16f;" horiz-adv-x="646" 
d="M141.5 114.5q26.5 -42.5 70 -66.5t93.5 -24q52 0 104 28.5t86 81.5t34 123v234q0 18 17 18q8 0 13 -5t5 -13v-474q0 -7 -5 -12t-13 -5q-17 0 -17 18v140q-15 -55 -51 -93t-81 -56.5t-88 -18.5q-59 0 -111.5 25.5t-85 75.5t-32.5 118v282q0 18 17 18q8 0 13 -5t5 -13v-282
q0 -52 26.5 -94.5zM382 709.5q21 -20.5 21 -50.5q0 -31 -21 -51.5t-51 -20.5q-31 0 -52 20.5t-21 51.5q0 30 21 50.5t52 20.5q30 0 51 -20.5zM300 688.5q-13 -12.5 -13 -29.5q0 -18 13 -30.5t31 -12.5q17 0 30 12.5t13 30.5q0 17 -13 29.5t-30 12.5q-18 0 -31 -12.5z" />
    <glyph glyph-name="v" unicode="v" horiz-adv-x="555" 
d="M20 492q0 7 6 12t13 5q11 0 17 -12l224 -443l223 443q5 12 17 12q6 0 10 -3.5t4 -10.5q0 -6 -2 -10l-237 -479q-5 -10 -14 -10t-15 9l-244 480q-2 4 -2 7z" />
    <glyph glyph-name="w" unicode="w" horiz-adv-x="940" 
d="M32 492q0 8 6 12.5t13 4.5q12 0 17 -11l195 -444l192 393q6 11 17 11q13 0 17 -11l195 -394l192 445q5 11 17 11q7 0 12 -4t5 -11q0 -6 -2 -9l-209 -480q-4 -9 -16 -9q-11 0 -16 9l-193 400l-197 -400q-4 -9 -17 -9q-11 0 -17 9l-209 479z" />
    <glyph glyph-name="wacute" unicode="&#x1e83;" horiz-adv-x="940" 
d="M32 492q0 8 6 12.5t13 4.5q12 0 17 -11l195 -444l192 393q6 11 17 11q13 0 17 -11l195 -394l192 445q5 11 17 11q7 0 12 -4t5 -11q0 -6 -2 -9l-209 -480q-4 -9 -16 -9q-11 0 -16 9l-193 400l-197 -400q-4 -9 -17 -9q-11 0 -17 9l-209 479zM538 725q8 0 13.5 -5.5
t5.5 -12.5q0 -6 -4 -11l-82 -99q-6 -7 -12 -7q-8 0 -12.5 8t0.5 15l77 105q6 7 14 7z" />
    <glyph glyph-name="wcircumflex" unicode="&#x175;" horiz-adv-x="940" 
d="M32 492q0 8 6 12.5t13 4.5q12 0 17 -11l195 -444l192 393q6 11 17 11q13 0 17 -11l195 -394l192 445q5 11 17 11q7 0 12 -4t5 -11q0 -6 -2 -9l-209 -480q-4 -9 -16 -9q-11 0 -16 9l-193 400l-197 -400q-4 -9 -17 -9q-11 0 -17 9l-209 479zM595 604q0 -5 -4.5 -9.5
t-10.5 -4.5q-7 0 -13 6l-95 93l-95 -93q-6 -6 -12 -6q-7 0 -11 4.5t-4 9.5t3 8l107 105q7 7 12 7t12 -7l107 -105q4 -4 4 -8z" />
    <glyph glyph-name="wdieresis" unicode="&#x1e85;" horiz-adv-x="940" 
d="M32 492q0 8 6 12.5t13 4.5q12 0 17 -11l195 -444l192 393q6 11 17 11q13 0 17 -11l195 -394l192 445q5 11 17 11q7 0 12 -4t5 -11q0 -6 -2 -9l-209 -480q-4 -9 -16 -9q-11 0 -16 9l-193 400l-197 -400q-4 -9 -17 -9q-11 0 -17 9l-209 479zM391.5 672.5
q9.5 -8.5 9.5 -21.5q0 -15 -9.5 -23t-20.5 -8q-13 0 -22 8.5t-9 22.5q0 13 9 21.5t22 8.5q11 0 20.5 -8.5zM584.5 672.5q9.5 -8.5 9.5 -21.5q0 -15 -9 -23t-22 -8q-11 0 -20.5 8.5t-9.5 22.5q0 13 9.5 21.5t20.5 8.5q12 0 21.5 -8.5z" />
    <glyph glyph-name="wgrave" unicode="&#x1e81;" horiz-adv-x="940" 
d="M32 492q0 8 6 12.5t13 4.5q12 0 17 -11l195 -444l192 393q6 11 17 11q13 0 17 -11l195 -394l192 445q5 11 17 11q7 0 12 -4t5 -11q0 -6 -2 -9l-209 -480q-4 -9 -16 -9q-11 0 -16 9l-193 400l-197 -400q-4 -9 -17 -9q-11 0 -17 9l-209 479zM502 613q2 -2 2 -7
q0 -6 -4.5 -11t-9.5 -5q-6 0 -12 7l-82 99q-4 5 -4 11q0 7 5.5 12.5t13.5 5.5t14 -7z" />
    <glyph glyph-name="x" unicode="x" horiz-adv-x="520" 
d="M35 492q0 7 4.5 12t11.5 5q9 0 15 -7l186 -223l198 223q6 7 14 7q7 0 12.5 -5t5.5 -12q0 -5 -5 -12l-199 -223l206 -227q6 -6 6 -13t-5 -12t-12 -5q-10 0 -17 9l-204 225l-191 -226q-7 -8 -17 -8q-7 0 -11.5 4.5t-4.5 11.5t8 17l192 224l-187 220q-6 8 -6 15z" />
    <glyph glyph-name="y" unicode="y" horiz-adv-x="559" 
d="M21 493q0 7 6 11.5t13 4.5q10 0 17 -11l225 -446l220 444q6 13 18 13q7 0 12.5 -4.5t5.5 -11.5q0 -6 -2 -9l-337 -665q-7 -15 -19 -15q-7 0 -11 4.5t-4 12.5l2 9l93 188l-237 468q-2 4 -2 7z" />
    <glyph glyph-name="yacute" unicode="&#xfd;" horiz-adv-x="559" 
d="M21 493q0 7 6 11.5t13 4.5q10 0 17 -11l225 -446l220 444q6 13 18 13q7 0 12.5 -4.5t5.5 -11.5q0 -6 -2 -9l-337 -665q-7 -15 -19 -15q-7 0 -11 4.5t-4 12.5l2 9l93 188l-237 468q-2 4 -2 7zM351 715q8 0 13.5 -5.5t5.5 -12.5q0 -6 -4 -11l-82 -99q-6 -7 -12 -7
q-8 0 -12.5 8t0.5 15l77 105q6 7 14 7z" />
    <glyph glyph-name="ycircumflex" unicode="&#x177;" horiz-adv-x="559" 
d="M21 493q0 7 6 11.5t13 4.5q10 0 17 -11l225 -446l220 444q6 13 18 13q7 0 12.5 -4.5t5.5 -11.5q0 -6 -2 -9l-337 -665q-7 -15 -19 -15q-7 0 -11 4.5t-4 12.5l2 9l93 188l-237 468q-2 4 -2 7zM408 594q0 -5 -4.5 -9.5t-10.5 -4.5q-7 0 -13 6l-95 93l-95 -93q-6 -6 -12 -6
q-7 0 -11 4.5t-4 9.5t3 8l107 105q7 7 12 7t12 -7l107 -105q4 -4 4 -8z" />
    <glyph glyph-name="ydieresis" unicode="&#xff;" horiz-adv-x="559" 
d="M21 493q0 7 6 11.5t13 4.5q10 0 17 -11l225 -446l220 444q6 13 18 13q7 0 12.5 -4.5t5.5 -11.5q0 -6 -2 -9l-337 -665q-7 -15 -19 -15q-7 0 -11 4.5t-4 12.5l2 9l93 188l-237 468q-2 4 -2 7zM204.5 662.5q9.5 -8.5 9.5 -21.5q0 -15 -9.5 -23t-20.5 -8q-13 0 -22 8.5
t-9 22.5q0 13 9 21.5t22 8.5q11 0 20.5 -8.5zM397.5 662.5q9.5 -8.5 9.5 -21.5q0 -15 -9 -23t-22 -8q-11 0 -20.5 8.5t-9.5 22.5q0 13 9.5 21.5t20.5 8.5q12 0 21.5 -8.5z" />
    <glyph glyph-name="ygrave" unicode="&#x1ef3;" horiz-adv-x="559" 
d="M21 493q0 7 6 11.5t13 4.5q10 0 17 -11l225 -446l220 444q6 13 18 13q7 0 12.5 -4.5t5.5 -11.5q0 -6 -2 -9l-337 -665q-7 -15 -19 -15q-7 0 -11 4.5t-4 12.5l2 9l93 188l-237 468q-2 4 -2 7zM315 603q2 -2 2 -7q0 -6 -4.5 -11t-9.5 -5q-6 0 -12 7l-82 99q-4 5 -4 11
q0 7 5.5 12.5t13.5 5.5t14 -7z" />
    <glyph glyph-name="z" unicode="z" horiz-adv-x="529" 
d="M475 34q8 0 12.5 -5t4.5 -12t-4.5 -12t-12.5 -5h-422q-9 0 -14.5 5t-5.5 12q0 9 7 15l393 443l-367 -1q-9 0 -14 5t-5 12t5 12.5t14 5.5h401q9 0 15 -6t6 -14q0 -7 -6 -15l-398 -442z" />
    <glyph glyph-name="zacute" unicode="&#x17a;" horiz-adv-x="529" 
d="M475 34q8 0 12.5 -5t4.5 -12t-4.5 -12t-12.5 -5h-422q-9 0 -14.5 5t-5.5 12q0 9 7 15l393 443l-367 -1q-9 0 -14 5t-5 12t5 12.5t14 5.5h401q9 0 15 -6t6 -14q0 -7 -6 -15l-398 -442zM332 715q8 0 13.5 -5.5t5.5 -12.5q0 -6 -4 -11l-82 -99q-6 -7 -12 -7q-8 0 -12.5 8
t0.5 15l77 105q6 7 14 7z" />
    <glyph glyph-name="zcaron" unicode="&#x17e;" horiz-adv-x="529" 
d="M475 34q8 0 12.5 -5t4.5 -12t-4.5 -12t-12.5 -5h-422q-9 0 -14.5 5t-5.5 12q0 9 7 15l393 443l-367 -1q-9 0 -14 5t-5 12t5 12.5t14 5.5h401q9 0 15 -6t6 -14q0 -7 -6 -15l-398 -442zM275 587q-7 -7 -12 -7t-12 7l-107 105q-3 3 -3 8t4 9.5t10 4.5q7 0 13 -6l95 -93
l95 93q6 6 13 6q6 0 10.5 -4.5t4.5 -9.5q0 -4 -4 -8z" />
    <glyph glyph-name="zdotaccent" unicode="&#x17c;" horiz-adv-x="529" 
d="M475 34q8 0 12.5 -5t4.5 -12t-4.5 -12t-12.5 -5h-422q-9 0 -14.5 5t-5.5 12q0 9 7 15l393 443l-367 -1q-9 0 -14 5t-5 12t5 12.5t14 5.5h401q9 0 15 -6t6 -14q0 -7 -6 -15l-398 -442zM290.5 666.5q11.5 -10.5 11.5 -25.5q0 -18 -11 -27.5t-25 -9.5q-15 0 -26 10.5
t-11 26.5q0 15 11 25.5t26 10.5q13 0 24.5 -10.5z" />
    <glyph glyph-name="uni0410" unicode="&#x410;" horiz-adv-x="697" 
d="M361 645l319 -627q2 -3 2 -9q0 -7 -5 -11.5t-12 -4.5q-9 0 -14 9l-89 177h-430l-89 -177q-4 -9 -14 -9q-7 0 -12 4.5t-5 11.5q0 6 2 9l318 627q5 9 15 9t14 -9zM147 209h399l-199 396z" />
    <glyph glyph-name="uni0411" unicode="&#x411;" horiz-adv-x="640" 
d="M492 333.5q47 -25.5 73 -67t26 -87.5q0 -44 -27 -85.5t-73.5 -67.5t-103.5 -26h-278q-7 0 -12 5t-5 12v603q0 7 5 11.5t11 4.5h429q8 0 12.5 -5t4.5 -11t-4.5 -10.5t-12.5 -4.5h-412v-246h262q58 0 105 -25.5zM473 52q39 21 62 55t23 72q0 35 -22.5 69.5t-62 57
t-86.5 22.5h-262v-297h262q47 0 86 21z" />
    <glyph glyph-name="uni0412" unicode="&#x412;" horiz-adv-x="687" 
d="M458.5 621.5q54.5 -14.5 94 -51t39.5 -98.5q0 -48 -26 -82t-74 -49q67 -14 107.5 -54t40.5 -106q0 -98 -73 -139.5t-181 -41.5h-276q-7 0 -12.5 5.5t-5.5 12.5v600q0 8 5.5 13t12.5 5h242q52 0 106.5 -14.5zM126 606v-256h239q86 0 139 28.5t53 93.5q0 50 -34.5 79.5
t-81 41.5t-89.5 13h-226zM126 318v-288h260q94 0 156.5 33.5t62.5 117.5q0 70 -51.5 103.5t-135.5 33.5h-292z" />
    <glyph glyph-name="uni0413" unicode="&#x413;" horiz-adv-x="576" 
d="M487 636q8 0 12.5 -5t4.5 -11t-4.5 -10.5t-12.5 -4.5h-360v-586q0 -9 -5 -14t-12 -5t-12 5t-5 14v598q0 19 18 19h376z" />
    <glyph glyph-name="uni0414" unicode="&#x414;" horiz-adv-x="657" 
d="M625 11v-128q0 -19 -13 -19q-15 0 -15 19v117h-528v-117q0 -19 -15 -19q-13 0 -13 19v128q0 19 18 19h3q41 0 61 19t27 45t14 78l63 450q1 6 5.5 10t11.5 4h314q18 0 18 -19v-587h31q18 0 18 -19zM542 605h-282l-61 -433q-8 -57 -20 -90.5t-38 -51.5h401v575z" />
    <glyph glyph-name="uni0415" unicode="&#x415;" horiz-adv-x="639" 
d="M567 32q8 0 12 -4.5t4 -11.5t-4 -11.5t-12 -4.5h-448q-12 0 -19.5 8t-7.5 19v583q0 11 7.5 18.5t19.5 7.5h449q7 0 11 -4.5t4 -10.5t-4 -10.5t-12 -4.5h-442v-276h422q8 0 12 -4.5t4 -10.5t-4 -10.5t-12 -4.5h-422v-268h442z" />
    <glyph glyph-name="uni0401" unicode="&#x401;" horiz-adv-x="639" 
d="M567 32q8 0 12 -4.5t4 -11.5t-4 -11.5t-12 -4.5h-448q-12 0 -19.5 8t-7.5 19v583q0 11 7.5 18.5t19.5 7.5h449q7 0 11 -4.5t4 -10.5t-4 -10.5t-12 -4.5h-442v-276h422q8 0 12 -4.5t4 -10.5t-4 -10.5t-12 -4.5h-422v-268h442zM271.5 789.5q9.5 -8.5 9.5 -21.5
q0 -15 -9.5 -23t-20.5 -8q-13 0 -22 8.5t-9 22.5q0 13 9 21.5t22 8.5q11 0 20.5 -8.5zM464.5 789.5q9.5 -8.5 9.5 -21.5q0 -15 -9 -23t-22 -8q-11 0 -20.5 8.5t-9.5 22.5q0 13 9.5 21.5t20.5 8.5q12 0 21.5 -8.5z" />
    <glyph glyph-name="uni0416" unicode="&#x416;" horiz-adv-x="968" 
d="M944 16q0 -6 -5.5 -11t-12.5 -5q-6 0 -12 6l-319 305l-94 -98v-197q0 -7 -5 -11.5t-12 -4.5t-12 4.5t-5 11.5v197l-94 98l-319 -305q-6 -6 -12 -6q-7 0 -12.5 5t-5.5 11t6 12l319 304l-298 276q-5 4 -5 11t5.5 12t13.5 5q7 0 12 -5l335 -314l55 -64v366q0 7 5 12t12 5
t12 -5t5 -12v-366l55 64l335 314q5 5 12 5q8 0 13.5 -5t5.5 -12t-5 -11l-298 -276l319 -304q6 -6 6 -12z" />
    <glyph glyph-name="uni0417" unicode="&#x417;" horiz-adv-x="646" 
d="M553.5 284q54.5 -37 54.5 -107q0 -69 -43.5 -110.5t-108 -59t-133.5 -17.5q-97 0 -182 33t-107 111q-3 8 2.5 14t12.5 6q5 0 9.5 -3t5.5 -9q14 -49 62 -76.5t102 -37.5t95 -10q57 0 114.5 15t97.5 50t40 93q0 64 -54 97t-159 33h-45q-7 0 -11.5 4.5t-4.5 10.5t4.5 10.5
t11.5 4.5h45q82 2 138.5 34.5t56.5 97.5q0 45 -34.5 79t-88.5 51.5t-110 17.5q-204 0 -243 -107q-4 -12 -16 -12q-6 0 -10 4t-4 10q0 3 2 9q26 70 103.5 98t168.5 28q52 0 113.5 -17t106.5 -57t45 -103q1 -63 -47.5 -104.5t-140.5 -41.5v-2q97 0 151.5 -37z" />
    <glyph glyph-name="uni0418" unicode="&#x418;" horiz-adv-x="687" 
d="M127 62l434 563q8 11 19 11q7 0 11.5 -5.5t4.5 -15.5v-597q0 -9 -5 -13.5t-12 -4.5q-6 0 -11 5t-5 13v557l-435 -563q-9 -11 -20 -11q-6 0 -10.5 5t-4.5 14v597q0 9 5 14t12 5t12 -5t5 -14v-555z" />
    <glyph glyph-name="uni0419" unicode="&#x419;" horiz-adv-x="687" 
d="M127 62l434 563q8 11 19 11q7 0 11.5 -5.5t4.5 -15.5v-597q0 -9 -5 -13.5t-12 -4.5q-6 0 -11 5t-5 13v557l-435 -563q-9 -11 -20 -11q-6 0 -10.5 5t-4.5 14v597q0 9 5 14t12 5t12 -5t5 -14v-555zM435 818q8 0 13 -7t2 -16q-13 -45 -38.5 -66t-70.5 -21t-70.5 21t-38.5 66
q-3 9 2 16t13 7q11 0 17 -16q13 -36 30 -50t47 -13q30 -1 47 13t30 50q6 16 17 16z" />
    <glyph glyph-name="uni041A" unicode="&#x41a;" horiz-adv-x="627" 
d="M557 636q7 0 13 -5.5t6 -11.5q0 -7 -5 -11l-289 -256l310 -324q6 -6 6 -12t-5.5 -11t-12.5 -5q-6 0 -12 6l-310 325l-133 -118v-197q0 -7 -5 -11.5t-12 -4.5t-12 4.5t-5 11.5v603q0 7 5 12t12 5t12 -5t5 -12v-367l420 379q7 5 12 5z" />
    <glyph glyph-name="uni041B" unicode="&#x41b;" horiz-adv-x="688" 
d="M596 617v-598q0 -9 -5 -14t-12 -5t-12 5t-5 14v586h-302l-61 -433q-10 -73 -49 -122.5t-110 -49.5q-8 0 -12.5 4.5t-4.5 10.5t4.5 10.5t12.5 4.5q60 0 87.5 39t36.5 103l63 450q1 6 5.5 10t11.5 4h334q18 0 18 -19z" />
    <glyph glyph-name="uni041C" unicode="&#x41c;" horiz-adv-x="802" 
d="M695 636q7 0 11.5 -4.5t4.5 -13.5v-600q0 -8 -5 -13t-12 -5t-12 4.5t-5 13.5v546l-258 -405q-6 -11 -17 -11q-12 0 -18 11l-258 403v-544q0 -9 -5 -13.5t-12 -4.5t-12 5t-5 13v600q0 9 5 13.5t11 4.5q10 0 16 -10l278 -433l276 433q7 10 17 10z" />
    <glyph glyph-name="uni041D" unicode="&#x41d;" horiz-adv-x="683" 
d="M557 320v297q0 9 5 14t12 5t12 -5t5 -14v-600q0 -8 -5 -12.5t-12 -4.5t-12 4.5t-5 12.5v273l-434 1v-274q0 -8 -5 -12.5t-11 -4.5q-7 0 -12 4.5t-5 12.5v600q0 9 5 14t12 5t11.5 -5t4.5 -14v-297h434z" />
    <glyph glyph-name="uni041E" unicode="&#x41e;" horiz-adv-x="745" 
d="M212 34.5q-74 44.5 -117 122.5t-41 172q3 107 50 178t117.5 105t144.5 34q75 0 149.5 -36t124.5 -110.5t50 -181.5q0 -92 -43.5 -167t-116.5 -118t-158 -43q-86 0 -160 44.5zM127 168.5q39 -68.5 104.5 -108t140.5 -39.5q76 0 141.5 39.5t104.5 108t39 150.5
q0 99 -45 165.5t-112.5 98t-133.5 31.5q-69 0 -132.5 -31.5t-104.5 -98t-41 -165.5q0 -82 39 -150.5z" />
    <glyph glyph-name="uni041F" unicode="&#x41f;" horiz-adv-x="683" 
d="M596 631q5 -5 5 -14v-600q0 -8 -5 -12.5t-12 -4.5t-12 4.5t-5 12.5v589h-444v-589q0 -8 -5 -12.5t-11 -4.5q-7 0 -12 4.5t-5 12.5v600q0 9 5 14t12 5h477q7 0 12 -5z" />
    <glyph glyph-name="uni0420" unicode="&#x420;" horiz-adv-x="640" 
d="M125 17q0 -8 -5 -12.5t-12 -4.5q-6 0 -11 4.5t-5 11.5v603q0 7 5 12t12 5h227q81 0 138.5 -32t87 -84t29.5 -111q0 -60 -28.5 -108t-85.5 -76t-140 -28h-212v-180zM337 228q73 0 122.5 25t73.5 65t24 87q0 51 -26.5 97t-76.5 74.5t-117 28.5h-212v-377h212z" />
    <glyph glyph-name="uni0421" unicode="&#x421;" horiz-adv-x="667" 
d="M512.5 623.5q55.5 -22.5 104.5 -75.5q5 -7 5 -12q0 -6 -4.5 -10t-10.5 -4q-7 0 -13 6q-45 47 -91 66.5t-103 19.5q-30 0 -73 -5q-108 -17 -173.5 -93.5t-65.5 -197.5q0 -81 40 -149t106.5 -107t142.5 -39q72 0 133 32q56 26 93 76q5 8 14 8q7 0 11.5 -4.5t4.5 -11.5
q0 -6 -4 -11q-39 -55 -105 -87q-69 -35 -148 -35q-85 0 -158.5 43t-117.5 118t-44 166q0 85 33.5 154t93.5 113.5t139 57.5q31 4 67 4q68 0 123.5 -22.5z" />
    <glyph glyph-name="uni0422" unicode="&#x422;" horiz-adv-x="589" 
d="M567 636q9 0 13.5 -4.5t4.5 -10.5t-5 -10.5t-13 -4.5h-259l1 -587q0 -9 -5.5 -14t-12.5 -5t-12 5t-5 14v587h-258q-8 0 -13 4.5t-5 10.5t4.5 10.5t13.5 4.5h551z" />
    <glyph glyph-name="uni0423" unicode="&#x423;" horiz-adv-x="669" 
d="M643 629q0 -3 -2 -9l-283 -520q-33 -61 -63 -85.5t-81 -24.5q-8 0 -12.5 4.5t-4.5 10.5t4.5 10.5t12.5 4.5q39 0 64.5 23t51.5 70l29 53l-283 454q-3 5 -3 10q0 8 9 14q4 2 7 2q9 0 14 -8l273 -436l235 434q3 6 10 8t13 -1q9 -4 9 -14z" />
    <glyph glyph-name="uni0424" unicode="&#x424;" horiz-adv-x="857" 
d="M716.5 524.5q85.5 -74.5 85.5 -204.5t-85.5 -204.5t-239.5 -74.5h-31v-34q0 -8 -5.5 -12.5t-12.5 -4.5t-12.5 4.5t-5.5 12.5v34h-31q-154 0 -239.5 74.5t-85.5 204.5t85.5 204.5t239.5 74.5h31v28q0 9 5.5 14t12.5 5t12.5 -5t5.5 -14v-28h31q154 0 239.5 -74.5zM410 72
v495h-31q-138 0 -214.5 -66t-76.5 -181q0 -116 76.5 -182t214.5 -66h31zM691.5 138q76.5 66 76.5 182q0 115 -76.5 181t-214.5 66h-31v-495h31q138 0 214.5 66z" />
    <glyph glyph-name="uni0425" unicode="&#x425;" horiz-adv-x="642" 
d="M565 629q6 7 14 7q6 0 11 -4.5t5 -11.5q0 -5 -5 -12l-249 -283l260 -296q5 -6 5 -14q0 -7 -4 -11t-10 -4q-9 0 -16 8l-255 295l-255 -295q-7 -8 -16 -8q-6 0 -10.5 4t-4.5 11t6 14l258 296l-247 284q-5 5 -5 12t4.5 11t10.5 4q8 0 14 -7l245 -282z" />
    <glyph glyph-name="uni0427" unicode="&#x427;" horiz-adv-x="645" 
d="M140 322q26 -43 69.5 -67t93.5 -24q148 0 225 91v296q0 18 17 18q8 0 13 -5t5 -13v-601q0 -8 -5 -12.5t-12 -4.5t-12.5 5t-5.5 13v258q-79 -79 -226 -79q-58 0 -109.5 26.5t-82.5 76.5t-31 119v199q0 18 17 18q8 0 13 -5t5 -13v-199q0 -54 26 -97z" />
    <glyph glyph-name="uni0426" unicode="&#x426;" horiz-adv-x="683" 
d="M646 11v-128q0 -19 -13 -19q-15 0 -15 19v117h-511q-7 0 -12 5t-5 14v600q0 8 5 12.5t12 4.5q6 0 11 -4.5t5 -12.5v-589h444v589q0 8 5 12.5t12 4.5t12 -4.5t5 -12.5v-589h27q18 0 18 -19z" />
    <glyph glyph-name="uni0428" unicode="&#x428;" horiz-adv-x="831" 
d="M786 631.5q5 -4.5 5 -12.5v-600q0 -9 -5 -14t-12 -5h-358h-1h-358q-7 0 -12 5t-5 14v600q0 8 5 12.5t12 4.5q6 0 11 -4.5t5 -12.5v-589h325v589q0 8 5 12.5t12 4.5t12 -4.5t5 -12.5v-589h325v589q0 8 5 12.5t12 4.5t12 -4.5z" />
    <glyph glyph-name="uni0429" unicode="&#x429;" horiz-adv-x="831" 
d="M837 11v-128q0 -19 -13 -19q-15 0 -15 19v117h-393h-1h-358q-7 0 -12 5t-5 14v600q0 8 5 12.5t12 4.5q6 0 11 -4.5t5 -12.5v-589h325v589q0 8 5 12.5t12 4.5t12 -4.5t5 -12.5v-589h325v589q0 8 5 12.5t12 4.5t12 -4.5t5 -12.5v-589h28q18 0 18 -19z" />
    <glyph glyph-name="uni042C" unicode="&#x42c;" horiz-adv-x="640" 
d="M337 412q125 0 189.5 -53t64.5 -143q0 -58 -29.5 -107.5t-87 -79t-138.5 -29.5h-227q-7 0 -12 5t-5 12v603q0 7 5 11.5t11 4.5q7 0 12 -4.5t5 -12.5v-207h212zM125 31h212q67 0 117 26t76.5 69t26.5 94q0 71 -55 116.5t-165 44.5h-212v-350z" />
    <glyph glyph-name="uni042A" unicode="&#x42a;" horiz-adv-x="643" 
d="M548.5 359q64.5 -53 64.5 -143q0 -58 -29.5 -107.5t-87 -79t-138.5 -29.5h-227q-7 0 -12 5t-5 12v589h-75q-19 0 -19 15q0 6 5 10.5t14 4.5h91q7 0 12 -4.5t5 -12.5v-207h212q125 0 189.5 -53zM476 57q50 26 76.5 69t26.5 94q0 71 -55 116.5t-165 44.5h-212v-350h212
q67 0 117 26z" />
    <glyph glyph-name="uni042B" unicode="&#x42b;" horiz-adv-x="706" 
d="M275 412q125 0 189.5 -53t64.5 -143q0 -58 -29.5 -107.5t-87 -79t-138.5 -29.5h-227q-7 0 -12 5t-5 12v603q0 7 5 11.5t11 4.5q7 0 12 -4.5t5 -12.5v-207h212zM63 31h212q67 0 117 26t76.5 69t26.5 94q0 71 -55 116.5t-165 44.5h-212v-350zM645.5 631q5.5 5 12.5 5
t12.5 -5t5.5 -14v-600q0 -8 -5.5 -12.5t-12.5 -4.5t-12.5 4.5t-5.5 12.5v600q0 9 5.5 14z" />
    <glyph glyph-name="uni042D" unicode="&#x42d;" horiz-adv-x="667" 
d="M567 151q-44 -75 -117.5 -118t-158.5 -43q-74 0 -143.5 32.5t-109.5 89.5q-4 5 -4 11q0 7 5 11.5t11 4.5q9 0 14 -8q38 -51 98.5 -79.5t127.5 -28.5q73 0 138 36.5t105.5 100t45.5 140.5h-367q-7 0 -11.5 4.5t-4.5 10.5t4.5 10.5t11.5 4.5h367q-4 116 -68.5 189
t-170.5 90q-43 5 -73 5q-57 0 -103 -19.5t-91 -66.5q-6 -6 -13 -6q-6 0 -10.5 4t-4.5 10q0 5 5 12q49 53 104.5 75.5t123.5 22.5q36 0 67 -4q79 -13 139 -57.5t93.5 -113.5t33.5 -154q0 -91 -44 -166z" />
    <glyph glyph-name="uni042E" unicode="&#x42e;" horiz-adv-x="965" 
d="M836.5 151q-43.5 -75 -116.5 -118t-158 -43q-81 0 -152.5 40.5t-116 111.5t-49.5 158h-116v-283q0 -8 -5.5 -12.5t-12.5 -4.5t-12.5 4.5t-5.5 12.5v600q0 9 5.5 14t12.5 5t12.5 -5t5.5 -14v-287h116q3 106 50 177.5t117.5 105t144.5 33.5q75 0 149.5 -36t124.5 -110.5
t50 -181.5q0 -92 -43.5 -167zM703.5 60.5q65.5 39.5 104.5 108t39 150.5q0 99 -45 165.5t-112.5 98t-133.5 31.5q-69 0 -132.5 -31.5t-104.5 -98t-41 -165.5q0 -82 39 -150.5t104.5 -108t140.5 -39.5q76 0 141.5 39.5z" />
    <glyph glyph-name="uni042F" unicode="&#x42f;" horiz-adv-x="657" 
d="M349 234l-218 -228q-6 -6 -12 -6t-10.5 4.5t-4.5 11.5t6 13l200 204q-107 8 -162.5 60t-55.5 135q0 58 30 105t88 75t140 28h249q8 0 12.5 -4.5t4.5 -12.5v-603q0 -7 -5 -11.5t-11 -4.5q-7 0 -12 4.5t-5 12.5v217h-234zM583 605h-234q-68 0 -118.5 -24t-77.5 -65.5
t-27 -91.5q0 -71 55.5 -116t164.5 -45h237v342z" />
    <glyph glyph-name="uni0414.loclBGR" horiz-adv-x="657" 
d="M627 12v-113q0 -9 -4.5 -14t-10.5 -5q-15 0 -15 19v101h-548v-101q0 -19 -15 -19q-6 0 -10.5 5t-4.5 14v113q0 19 18 19h34l237 596q5 9 15 9q11 0 15 -9l237 -596h34q18 0 18 -19zM104 31h438l-175 445l-44 125l-44 -125z" />
    <glyph glyph-name="uni041B.loclBGR" horiz-adv-x="635" 
d="M620 15q0 -6 -5 -10.5t-11 -4.5q-11 0 -15 10l-225 476l-48 112l-48 -112l-225 -476q-4 -10 -15 -10q-8 0 -13 7t-1 16l287 604q5 9 15 9q11 0 15 -9l287 -604q2 -6 2 -8z" />
    <glyph glyph-name="uni0424.loclBGR" horiz-adv-x="857" 
d="M648.5 584q73.5 -35 113.5 -102t40 -162t-40 -162t-113.5 -102t-171.5 -35h-31v-34q0 -8 -5.5 -12.5t-12.5 -4.5t-12.5 4.5t-5.5 12.5v34h-31q-98 0 -171.5 35t-113.5 102t-40 162t40 162t113.5 102t171.5 35h31v28q0 9 5.5 14t12.5 5t12.5 -5t5.5 -14v-28h31
q98 0 171.5 -35zM410 52v535h-31q-134 0 -212.5 -69.5t-78.5 -197.5t78.5 -198t212.5 -70h31zM689.5 122q78.5 70 78.5 198t-78.5 197.5t-212.5 69.5h-31v-535h31q134 0 212.5 70z" />
    <glyph glyph-name="uni0430" unicode="&#x430;" horiz-adv-x="616" 
d="M426.5 488q50.5 -31 73.5 -87v90q0 18 17 18q8 0 13 -5t5 -13v-473q0 -8 -5 -13t-13 -5q-17 0 -17 18v86q-26 -57 -77 -85.5t-120 -28.5q-68 0 -126 31.5t-93 92t-35 142.5t36 142t95.5 90.5t126.5 30.5q69 0 119.5 -31zM500 296q0 58 -26 101t-70 65t-95 22
q-70 0 -121 -30.5t-77.5 -82.5t-26.5 -115q0 -65 28 -118t76 -83t107 -30q53 0 100 21t76 62.5t29 100.5v87z" />
    <glyph glyph-name="uni0431" unicode="&#x431;" horiz-adv-x="597" 
d="M490.5 55q-66.5 -65 -183.5 -65q-77 0 -136 30t-91 84.5t-32 127.5v114q0 143 65 216.5t192 73.5q41 0 82 13.5t72 37.5q7 5 13 5q7 0 12 -4.5t5 -10.5q0 -8 -7 -15q-30 -28 -76.5 -44t-96.5 -16q-97 0 -151 -45q-73 -61 -73 -201q34 67 94.5 93t127.5 26q76 0 132.5 -30
t87 -85t30.5 -128q0 -112 -66.5 -177zM461.5 387.5q-61.5 52.5 -154.5 52.5q-61 0 -112 -23.5t-81.5 -70.5t-30.5 -114q0 -97 61 -152.5t163 -55.5q103 0 159.5 55t56.5 153q0 103 -61.5 155.5z" />
    <glyph glyph-name="uni0432" unicode="&#x432;" horiz-adv-x="569" 
d="M481.5 231q32.5 -32 32.5 -86q0 -78 -58.5 -111.5t-145.5 -33.5h-218q-7 0 -12.5 5t-5.5 13v476q0 6 4.5 10.5t12.5 4.5h192q71 0 132 -29t61 -101q0 -38 -21 -65.5t-60 -39.5q54 -11 86.5 -43zM392.5 457q-49.5 21 -109.5 21h-174v-194h184q69 0 109 21.5t40 73.5
q0 57 -49.5 78zM433.5 54.5q46.5 23.5 46.5 90.5q0 56 -38.5 82t-105.5 26h-227v-222h201q77 0 123.5 23.5z" />
    <glyph glyph-name="uni0433" unicode="&#x433;" horiz-adv-x="576" 
d="M457 509q8 0 12.5 -5t4.5 -11t-4.5 -10.5t-12.5 -4.5h-330v-459q0 -9 -5 -14t-12 -5t-12 5t-5 14v471q0 19 18 19h346z" />
    <glyph glyph-name="uni0434" unicode="&#x434;" horiz-adv-x="600" 
d="M553 26q5 -5 5 -14v-115q0 -17 -15 -17q-6 0 -10.5 4.5t-4.5 12.5v103h-472v-103q0 -8 -4.5 -12.5t-10.5 -4.5q-15 0 -15 17v115q0 9 5 14t12 5h18q73 12 90 141l46 323q1 6 5.5 10t11.5 4h278q7 0 12 -5t5 -14v-459h32q7 0 12 -5zM475 477l-245 1l-44 -306
q-6 -43 -22 -80.5t-41 -60.5h352v446z" />
    <glyph glyph-name="uni0435" unicode="&#x435;" horiz-adv-x="619" 
d="M562 233q-7 -10 -25 -10h-450q7 -55 37 -100.5t79.5 -72t109.5 -26.5q40 0 79.5 13t72.5 38q7 5 13 5q7 0 12 -4.5t5 -10.5q0 -8 -7 -15q-32 -30 -77 -45t-95 -15q-76 0 -137 35t-95 96t-34 136q0 84 37.5 143t97 89t124.5 30q68 0 126.5 -29.5t95 -89t37.5 -144.5
q1 -13 -6 -23zM534 256q-1 75 -33 127t-82.5 77t-107.5 25q-60 0 -111.5 -27.5t-82.5 -79.5t-31 -122h448z" />
    <glyph glyph-name="uni0451" unicode="&#x451;" horiz-adv-x="619" 
d="M562 233q-7 -10 -25 -10h-450q7 -55 37 -100.5t79.5 -72t109.5 -26.5q40 0 79.5 13t72.5 38q7 5 13 5q7 0 12 -4.5t5 -10.5q0 -8 -7 -15q-32 -30 -77 -45t-95 -15q-76 0 -137 35t-95 96t-34 136q0 84 37.5 143t97 89t124.5 30q68 0 126.5 -29.5t95 -89t37.5 -144.5
q1 -13 -6 -23zM534 256q-1 75 -33 127t-82.5 77t-107.5 25q-60 0 -111.5 -27.5t-82.5 -79.5t-31 -122h448zM229.5 662.5q9.5 -8.5 9.5 -21.5q0 -15 -9.5 -23t-20.5 -8q-13 0 -22 8.5t-9 22.5q0 13 9 21.5t22 8.5q11 0 20.5 -8.5zM422.5 662.5q9.5 -8.5 9.5 -21.5
q0 -15 -9 -23t-22 -8q-11 0 -20.5 8.5t-9.5 22.5q0 13 9.5 21.5t20.5 8.5q12 0 21.5 -8.5z" />
    <glyph glyph-name="uni0436" unicode="&#x436;" horiz-adv-x="735" 
d="M715 17q0 -7 -5 -12t-12 -5q-6 0 -12 6l-222 264l-79 -77v-175q0 -8 -5 -13t-12 -5t-12.5 5t-5.5 13v175l-79 77l-222 -264q-6 -6 -12 -6q-7 0 -12 5t-5 12t4 12l220 263l-200 186q-7 7 -7 15q0 7 5 11.5t12 4.5q9 0 16 -7l221 -210l59 -62v261q0 9 5 13.5t12 4.5
t12.5 -5t5.5 -13v-261l60 62l220 210q7 7 16 7q7 0 12 -4.5t5 -11.5q0 -8 -7 -15l-200 -186l220 -263q4 -5 4 -12z" />
    <glyph glyph-name="uni0437" unicode="&#x437;" horiz-adv-x="532" 
d="M455.5 225.5q33.5 -28.5 33.5 -84.5q0 -55 -36.5 -89t-87.5 -48t-99 -14q-79 0 -147 27.5t-81 92.5q-3 11 2 17t13 6q7 0 11.5 -4.5t5.5 -12.5q9 -44 67 -69t129 -25q36 0 80 12t76 38.5t32 68.5q0 103 -189 103h-45q-7 0 -11.5 4.5t-4.5 10.5t4.5 10.5t11.5 4.5h44
q73 2 124 26t51 72q0 38 -28 64t-69 38t-81 12q-143 0 -174 -83q-2 -6 -7 -9.5t-10 -3.5q-8 0 -13.5 7t-2.5 19q23 60 79 81.5t128 21.5q49 0 98 -17.5t81.5 -51t32.5 -78.5q0 -43 -30.5 -73.5t-76.5 -36.5v-2q56 -6 89.5 -34.5z" />
    <glyph glyph-name="uni0438" unicode="&#x438;" horiz-adv-x="683" 
d="M540 504.5q5 -4.5 5 -12.5v-473q0 -9 -5 -14t-12 -5t-11.5 5t-4.5 14v433l-384 -442q-9 -10 -21 -10q-7 0 -12 4.5t-5 12.5v473q0 9 5 14t12 5t11.5 -5t4.5 -14v-433l384 442q9 10 21 10q7 0 12 -4.5z" />
    <glyph glyph-name="uni0439" unicode="&#x439;" horiz-adv-x="683" 
d="M540 504.5q5 -4.5 5 -12.5v-473q0 -9 -5 -14t-12 -5t-11.5 5t-4.5 14v433l-384 -442q-9 -10 -21 -10q-7 0 -12 4.5t-5 12.5v473q0 9 5 14t12 5t11.5 -5t4.5 -14v-433l384 442q9 10 21 10q7 0 12 -4.5zM417 691q8 0 13 -7t2 -16q-13 -45 -38.5 -66t-70.5 -21t-70.5 21
t-38.5 66q-3 9 2 16t13 7q11 0 17 -16q13 -36 30 -50t47 -13q30 -1 47 13t30 50q6 16 17 16z" />
    <glyph glyph-name="uni043A" unicode="&#x43a;" horiz-adv-x="493" 
d="M434 509q7 0 12 -4.5t5 -11.5q0 -8 -7 -15l-211 -186l231 -263q4 -5 4 -12t-5 -12t-12 -5q-6 0 -12 6l-233 264l-88 -77v-175q0 -8 -5 -13t-12 -5t-12.5 5t-5.5 13v473q0 9 5.5 13.5t12.5 4.5t12 -5t5 -13v-256l300 267q7 7 16 7z" />
    <glyph glyph-name="uni043B" unicode="&#x43b;" horiz-adv-x="539" 
d="M504 504q5 -5 5 -14v-473q0 -8 -5 -12.5t-12 -4.5t-12 4.5t-5 12.5v462l-235 1l-44 -308q-10 -73 -49 -122.5t-110 -49.5q-8 0 -12.5 4.5t-4.5 10.5t4.5 10.5t12.5 4.5q60 0 87.5 39t36.5 103l46 323q1 6 5.5 10t11.5 4h268q7 0 12 -5z" />
    <glyph glyph-name="uni043C" unicode="&#x43c;" horiz-adv-x="631" 
d="M563.5 504.5q5.5 -4.5 5.5 -13.5v-473q0 -8 -5.5 -13t-12.5 -5t-12 5t-5 13v420l-26 -46l-171 -257q-6 -9 -15 -9q-10 0 -16 9l-171 257l-26 46v-420q0 -8 -5 -13t-12 -5t-12.5 5t-5.5 13v473q0 9 5.5 13.5t12.5 4.5q10 0 14 -7l216 -333l215 333q4 7 14 7q7 0 12.5 -4.5
z" />
    <glyph glyph-name="uni043D" unicode="&#x43d;" horiz-adv-x="683" 
d="M488 282v208q0 9 5 14t12 5t12 -5t5 -14v-473q0 -8 -5 -12.5t-12 -4.5t-12 4.5t-5 12.5v235l-365 1v-236q0 -8 -5 -12.5t-11 -4.5q-7 0 -12 4.5t-5 12.5v473q0 9 5 14t12 5t11.5 -5t4.5 -14v-208h365z" />
    <glyph glyph-name="uni043E" unicode="&#x43e;" horiz-adv-x="616" 
d="M197 13q-51 23 -88 66q-60 74 -60 175q0 57 22 110t63.5 91.5t97.5 54.5q34 9 76 9q37 0 75 -9q79 -22 128 -88t56 -149q6 -114 -60 -194q-37 -43 -88 -66t-111 -23t-111 23zM307 484q-31 0 -63 -8q-73 -20 -116 -84t-43 -142q0 -41 13 -79.5t39 -69.5q31 -37 76 -57
t95 -20q51 0 96.5 20t76.5 57q26 31 39 69t13 79q0 78 -43.5 142.5t-117.5 84.5q-32 8 -65 8z" />
    <glyph glyph-name="uni043F" unicode="&#x43f;" horiz-adv-x="683" 
d="M507 504q5 -5 5 -14v-473q0 -8 -5 -12.5t-12 -4.5t-12 4.5t-5 12.5v463h-355v-463q0 -8 -5 -12.5t-11 -4.5q-7 0 -12 4.5t-5 12.5v473q0 9 5 14t12 5h388q7 0 12 -5z" />
    <glyph glyph-name="uni0440" unicode="&#x440;" horiz-adv-x="620" 
d="M310 -10q-64 0 -116.5 31t-76.5 88v-289q0 -18 -17 -18q-8 0 -13 5t-5 13v671q0 8 5 13t13 5q17 0 17 -18v-96q20 54 73 89q59 35 124 35q67 0 125.5 -33.5t93.5 -95.5t35 -143q0 -80 -40 -145.5t-112 -93.5q-42 -18 -106 -18zM117 209q0 -51 25 -92t69 -65.5t99 -26.5
q70 -1 120.5 29t76.5 81t26 114q0 78 -35 131t-85.5 78.5t-96.5 25.5q-52 0 -97.5 -22t-73.5 -64.5t-28 -101.5v-87z" />
    <glyph glyph-name="uni0441" unicode="&#x441;" horiz-adv-x="531" 
d="M300 486q-59 0 -109 -28t-79.5 -81t-29.5 -125q0 -65 28 -117t79 -81.5t115 -29.5q49 0 93 20t74 58q5 7 12 8h2q13 0 18 -16q0 -10 -4 -14q-35 -44 -87 -67t-109 -23q-75 0 -133.5 34.5t-91 94.5t-32.5 134q0 78 32 138.5t91.5 94t139.5 33.5q53 0 97 -20.5t83 -65.5
q4 -5 4 -10v-2q0 -7 -4 -12t-11 -6h-3q-9 0 -13 7q-66 76 -162 76z" />
    <glyph glyph-name="uni0442" unicode="&#x442;" horiz-adv-x="589" 
d="M486 509q9 0 13.5 -4.5t4.5 -10.5t-5 -10.5t-13 -4.5h-178l1 -460q0 -9 -5.5 -14t-12.5 -5t-12 5t-5 14v460h-175q-8 0 -13 4.5t-5 10.5t4.5 10.5t13.5 4.5h387z" />
    <glyph glyph-name="uni0443" unicode="&#x443;" horiz-adv-x="559" 
d="M21 493q0 7 6 11.5t13 4.5q10 0 17 -11l220 -446l225 444q6 13 18 13q7 0 12.5 -4.5t5.5 -11.5q0 -6 -2 -9l-298 -575q-34 -64 -102 -64q-10 0 -15.5 5t-5.5 12t5.5 12.5t15.5 5.5q25 0 44 10.5t29 29.5l47 93l-233 473q-2 4 -2 7z" />
    <glyph glyph-name="uni0444" unicode="&#x444;" horiz-adv-x="772" 
d="M615 453q51 -29 79.5 -81t28.5 -118q0 -63 -28 -115t-78.5 -82t-116.5 -30q-54 0 -96 19v-102q0 -7 -5 -12t-12 -5q-8 0 -13 5t-5 12v103q-43 -20 -97 -20q-66 0 -116.5 30t-78.5 82t-28 115q0 66 28.5 118t79 81t115.5 29q35 0 64 -7l33 -12v82q0 7 5 12t13 5q7 0 12 -5
t5 -12v-82l31 12q31 7 65 7q64 0 115 -29zM369 73v359q-40 20 -98 20q-53 0 -96.5 -24t-69 -69t-25.5 -105q0 -55 24 -100.5t67.5 -71.5t100.5 -26q60 0 97 17zM600.5 82q43.5 26 67.5 71.5t24 100.5q0 60 -25.5 105t-69.5 69t-96 24q-61 0 -97 -20v-360q38 -16 96 -16
q57 0 100.5 26z" />
    <glyph glyph-name="uni0445" unicode="&#x445;" horiz-adv-x="520" 
d="M35 492q0 7 4.5 12t11.5 5q9 0 15 -7l186 -223l198 223q6 7 14 7q7 0 12.5 -5t5.5 -12q0 -5 -5 -12l-199 -223l206 -227q6 -6 6 -13t-5 -12t-12 -5q-10 0 -17 9l-204 225l-191 -226q-7 -8 -17 -8q-7 0 -11.5 4.5t-4.5 11.5t8 17l192 224l-187 220q-6 8 -6 15z" />
    <glyph glyph-name="uni0447" unicode="&#x447;" horiz-adv-x="524" 
d="M88.5 265q23.5 -43 64.5 -67t91 -24q64 0 123.5 26t91.5 81v210q0 18 17 18q8 0 13 -5t5 -13v-474q0 -8 -5 -12.5t-12 -4.5t-12.5 5t-5.5 13v214q-39 -45 -94 -68.5t-122 -23.5q-58 0 -106.5 26t-77.5 76.5t-29 119.5v129q0 18 17 18q8 0 13 -5t5 -13v-129
q0 -54 23.5 -97z" />
    <glyph glyph-name="uni0446" unicode="&#x446;" horiz-adv-x="683" 
d="M556 25q5 -5 5 -14v-114q0 -17 -15 -17q-6 0 -10.5 4.5t-4.5 12.5v103h-424q-7 0 -12 5t-5 14v473q0 8 5 12.5t12 4.5q6 0 11 -4.5t5 -12.5v-462h355v462q0 8 5 12.5t12 4.5t12 -4.5t5 -12.5v-462h32q7 0 12 -5z" />
    <glyph glyph-name="uni0448" unicode="&#x448;" horiz-adv-x="727" 
d="M682 504.5q5 -4.5 5 -12.5v-473q0 -9 -5 -14t-12 -5h-306h-1h-306q-7 0 -12 5t-5 14v473q0 8 5 12.5t12 4.5q6 0 11 -4.5t5 -12.5v-462h273v462q0 8 5 12.5t12 4.5t12 -4.5t5 -12.5v-462h273v462q0 8 5 12.5t12 4.5t12 -4.5z" />
    <glyph glyph-name="uni0449" unicode="&#x449;" horiz-adv-x="776" 
d="M731 25q5 -5 5 -14v-114q0 -17 -15 -17q-6 0 -10.5 4.5t-4.5 12.5v102l-342 1h-1h-306q-7 0 -12 5t-5 14v473q0 8 5 12.5t12 4.5q6 0 11 -4.5t5 -12.5v-462h273v462q0 8 5 12.5t12 4.5t12 -4.5t5 -12.5v-462h273v462q0 8 5 12.5t12 4.5t12 -4.5t5 -12.5v-462h32
q7 0 12 -5z" />
    <glyph glyph-name="uni044C" unicode="&#x44c;" horiz-adv-x="640" 
d="M450.5 297.5q46.5 -22.5 70 -58.5t23.5 -77q0 -42 -24 -79t-71 -60t-112 -23h-180q-7 1 -11.5 5.5t-4.5 12.5v473q0 9 5.5 13.5t12.5 4.5t12 -4.5t5 -12.5v-172h162q66 0 112.5 -22.5zM433 48.5q39 18.5 58 49t19 64.5q0 54 -44 91.5t-128 37.5h-162v-261h162
q56 0 95 18.5z" />
    <glyph glyph-name="uni044A" unicode="&#x44a;" horiz-adv-x="640" 
d="M450.5 297.5q46.5 -22.5 70 -58.5t23.5 -77q0 -42 -24 -79t-71 -60t-112 -23h-180q-7 1 -11.5 5.5t-4.5 12.5v461h-114q-8 0 -12.5 4.5t-4.5 10.5q0 15 17 15h130h1h1q5 0 10 -3q7 -5 7 -13v0v-1v0v0v-172h162q66 0 112.5 -22.5zM433 48.5q39 18.5 58 49t19 64.5
q0 54 -44 91.5t-128 37.5h-162v-261h162q56 0 95 18.5z" />
    <glyph glyph-name="uni044B" unicode="&#x44b;" horiz-adv-x="836" 
d="M450.5 297.5q46.5 -22.5 70 -58.5t23.5 -77q0 -42 -24 -79t-71 -60t-112 -23h-180q-7 1 -11.5 5.5t-4.5 12.5v473q0 9 5.5 13.5t12.5 4.5t12 -4.5t5 -12.5v-172h162q66 0 112.5 -22.5zM433 48.5q39 18.5 58 49t19 64.5q0 54 -44 91.5t-128 37.5h-162v-261h162
q56 0 95 18.5zM651.5 504.5q5.5 4.5 12.5 4.5t12 -4.5t5 -12.5v-474q0 -8 -5 -13t-12 -5t-12.5 5t-5.5 13v473q0 9 5.5 13.5z" />
    <glyph glyph-name="uni044D" unicode="&#x44d;" horiz-adv-x="531" 
d="M361.5 485.5q59.5 -33.5 91.5 -94t32 -138.5q0 -74 -32.5 -134t-91 -94.5t-133.5 -34.5q-57 0 -108.5 23t-87.5 67q-4 4 -4 10q0 7 5 12.5t12 5.5q11 0 17 -9q31 -38 73.5 -56.5t91.5 -18.5q62 0 111 27.5t78.5 76t32.5 110.5h-236q-7 0 -11.5 4.5t-4.5 10.5t4.5 10.5
t11.5 4.5h236q-3 67 -33.5 116.5t-79 75.5t-105.5 26q-104 0 -162 -76q-6 -9 -17 -9q-7 0 -11.5 4.5t-4.5 11.5t6 16q39 45 83 65.5t97 20.5q80 0 139.5 -33.5z" />
    <glyph glyph-name="uni044E" unicode="&#x44e;" horiz-adv-x="812" 
d="M677 79q-37 -43 -88 -66t-111 -23t-111 23t-88 66q-55 68 -60 159h-102v-220q0 -8 -5 -13t-12 -5t-12.5 5t-5.5 13v473q0 9 5.5 13.5t12.5 4.5t12 -4.5t5 -12.5v-224h102v5q7 83 55.5 149t127.5 88q35 9 76 9q38 0 75 -9q79 -22 128 -88t56 -149q6 -114 -60 -194z
M690 170q13 38 13 79q0 78 -43.5 142.5t-117.5 84.5q-32 8 -65 8q-31 0 -63 -8q-73 -20 -116 -84t-43 -142q0 -41 13 -79.5t39 -69.5q31 -37 76 -57t95 -20q51 0 96.5 20t76.5 57q26 31 39 69z" />
    <glyph glyph-name="uni044F" unicode="&#x44f;" horiz-adv-x="657" 
d="M499 13q0 -5 -5 -9t-12 -4t-12.5 5t-5.5 13v170h-174l-175 -182q-6 -6 -13 -6t-12.5 5.5t-5.5 12.5q0 5 5 12l153 158q-81 9 -122.5 50t-41.5 106q0 46 25.5 83.5t73.5 59.5t114 22h194q11 -4 14 -14v-482zM464 479l-174 1q-81 0 -129 -38t-48 -98q0 -58 44 -92t133 -34
h174v261z" />
    <glyph glyph-name="uni0432.loclBGR" horiz-adv-x="559" 
d="M481.5 287q40.5 -40 40.5 -106q0 -82 -55 -130.5t-151 -50.5h-40q-100 0 -157.5 48.5t-57.5 132.5v261q0 99 54.5 151.5t152.5 52.5h23q74 0 128.5 -40t54.5 -124q0 -49 -26.5 -87.5t-73.5 -53.5q67 -14 107.5 -54zM140.5 571q-45.5 -45 -45.5 -129v-92h211q31 0 62 14.5
t51 44t20 73.5q0 67 -45 100.5t-103 33.5h-24q-81 0 -126.5 -45zM441 71q46 41 46 110q0 70 -49 103.5t-132 33.5h-211v-137q0 -70 48.5 -110.5t132.5 -40.5h40q79 0 125 41z" />
    <glyph glyph-name="uni0433.loclBGR" horiz-adv-x="532" 
d="M413 17.5q-68 -27.5 -147 -27.5q-47 0 -98.5 13t-88 43.5t-36.5 79.5q0 42 30 69t73.5 41.5t115.5 31.5q64 14 102 26.5t64 33.5t26 54q0 55 -55 79.5t-123 24.5q-146 0 -177 -83q-2 -6 -7 -9.5t-10 -3.5q-8 0 -13.5 7t-2.5 19q39 103 210 103q50 0 99 -15t81 -46t32 -76
t-30.5 -73t-74.5 -42.5t-117 -30.5q-64 -14 -101 -25.5t-62 -32t-25 -52.5q0 -35 32.5 -58.5t76.5 -34.5t79 -11q71 0 129 25t67 69q1 8 5.5 12.5t11.5 4.5q8 0 13 -6t2 -17q-13 -65 -81 -92.5z" />
    <glyph glyph-name="uni0434.loclBGR" horiz-adv-x="580" 
d="M530 504q5 -5 5 -13v-432q0 -114 -63.5 -173t-186.5 -59q-44 0 -94 17.5t-89 56.5q-6 7 -6 14t5.5 12.5t12.5 5.5t13 -6q32 -32 75 -49t89 -17q103 0 156 50.5t53 147.5v65q-17 -64 -72 -99t-125 -35q-68 0 -126 31.5t-93 92t-35 142.5t36 142t95.5 90.5t126.5 30.5
q70 0 120 -33.5t73 -94.5v100q0 18 17 18q8 0 13 -5zM395 46q47 21 76 62.5t29 100.5v87q0 58 -26 101t-70 65t-95 22q-70 0 -121 -30.5t-77.5 -82.5t-26.5 -115q0 -65 28 -118t76 -83t107 -30q53 0 100 21z" />
    <glyph glyph-name="uni0436.loclBGR" horiz-adv-x="735" 
d="M715 17q0 -7 -5 -12t-12 -5q-6 0 -12 6l-222 264l-79 -77v-175q0 -8 -5 -13t-12 -5t-12.5 5t-5.5 13v175l-79 77l-222 -264q-6 -6 -12 -6q-7 0 -12 5t-5 12t4 12l220 263l-200 186q-7 7 -7 15q0 7 5 11.5t12 4.5q9 0 16 -7l221 -210l59 -62v408q0 9 5 13.5t12 4.5
t12.5 -4.5t5.5 -13.5v-408l60 62l220 210q7 7 16 7q7 0 12 -4.5t5 -11.5q0 -8 -7 -15l-200 -186l220 -263q4 -5 4 -12z" />
    <glyph glyph-name="uni0438.loclBGR" horiz-adv-x="646" 
d="M141.5 114.5q26.5 -42.5 70 -66.5t93.5 -24q52 0 104 28.5t86 81.5t34 123v234q0 18 17 18q8 0 13 -5t5 -13v-474q0 -7 -5 -12t-13 -5q-17 0 -17 18v140q-15 -55 -51 -93t-81 -56.5t-88 -18.5q-59 0 -111.5 25.5t-85 75.5t-32.5 118v282q0 18 17 18q8 0 13 -5t5 -13v-282
q0 -52 26.5 -94.5z" />
    <glyph glyph-name="uni0439.loclBGR" horiz-adv-x="683" 
d="M417 691q8 0 13 -7t2 -16q-13 -45 -38.5 -66t-70.5 -21t-70.5 21t-38.5 66q-3 9 2 16t13 7q11 0 17 -16q13 -36 30 -50t47 -13q30 -1 47 13t30 50q6 16 17 16zM141.5 114.5q26.5 -42.5 70 -66.5t93.5 -24q52 0 104 28.5t86 81.5t34 123v234q0 18 17 18q8 0 13 -5t5 -13
v-474q0 -7 -5 -12t-13 -5q-17 0 -17 18v140q-15 -55 -51 -93t-81 -56.5t-88 -18.5q-59 0 -111.5 25.5t-85 75.5t-32.5 118v282q0 18 17 18q8 0 13 -5t5 -13v-282q0 -52 26.5 -94.5z" />
    <glyph glyph-name="uni043B.loclBGR" horiz-adv-x="555" 
d="M534 17q0 -7 -6 -12t-13 -5q-11 0 -17 12l-224 443l-223 -443q-4 -12 -17 -12q-6 0 -10 3.5t-4 10.5q0 6 2 10l237 479q5 10 14 10t15 -9l244 -480q2 -4 2 -7z" />
    <glyph glyph-name="uni043F.loclBGR" horiz-adv-x="645" 
d="M505 394q-26 43 -69.5 67t-93.5 24q-52 0 -104.5 -29t-86.5 -82.5t-34 -123.5v-232q0 -18 -17 -18q-8 0 -13 5t-5 13v474q0 7 5 12t13 5q17 0 17 -18v-136q15 56 52 92.5t83.5 54t90.5 17.5q58 0 109.5 -26.5t82.5 -76.5t31 -119v-286q0 -18 -17 -18q-8 0 -13 5t-5 13
v286q0 54 -26 97z" />
    <glyph glyph-name="uni0442.loclBGR" horiz-adv-x="1094" 
d="M954.5 397.5q-25.5 41.5 -69 64.5t-94.5 23q-54 0 -106 -28.5t-85.5 -82.5t-33.5 -124v-232q0 -8 -5 -13t-13 -5t-13 5t-5 13v269q0 61 -25 105.5t-68 68t-96 23.5t-105 -29t-85.5 -82.5t-33.5 -122.5v-232q0 -8 -5 -13t-12 -5t-12.5 5t-5.5 13v474q0 7 5 12t12 5
q8 0 13 -5t5 -12v-138q16 58 53.5 95t82.5 53.5t87 16.5q81 0 142.5 -45.5t74.5 -134.5q25 94 90.5 137t139.5 43q58 0 110.5 -25t85 -73t32.5 -113v-290q0 -8 -5 -13t-13 -5q-17 0 -17 18v287q0 51 -25.5 92.5z" />
    <glyph glyph-name="uni0444.loclBGR" horiz-adv-x="722" 
d="M554 475.5q61 -33.5 94.5 -91.5t33.5 -130q0 -74 -33 -131.5t-94 -90t-142 -32.5h-30v-96q0 -7 -5 -12t-12 -5q-8 0 -13 5t-5 12v96h-30q-81 0 -142 32.5t-94 90t-33 131.5q0 72 33.5 130t94.5 91.5t141 33.5h30v76q0 7 5 12t13 5q7 0 12 -5t5 -12v-76h30q80 0 141 -33.5
zM348 35v439h-31q-65 0 -118 -26.5t-83.5 -77t-30.5 -120.5q0 -62 29 -111t81.5 -76.5t122.5 -27.5h30zM535.5 62.5q52.5 27.5 81.5 76.5t29 111q0 70 -30.5 120.5t-83.5 77t-118 26.5h-31v-439h30q70 0 122.5 27.5z" />
    <glyph glyph-name="uni0446.loclBGR" horiz-adv-x="676" 
d="M646 0v-123q0 -17 -15 -17q-6 0 -10.5 4.5t-4.5 12.5v123h-12q-37 0 -56 27.5t-19 81.5v49q-15 -55 -51 -93t-81 -56.5t-88 -18.5q-59 0 -111.5 25.5t-85 75.5t-32.5 118v282q0 18 17 18q8 0 13 -5t5 -13v-282q0 -52 26.5 -94.5t70 -66.5t93.5 -24q52 0 104 28.5t86 81.5
t34 123v234q0 18 17 18q8 0 13 -5t5 -13v-382q0 -38 10 -58t30 -20h12q30 0 30 -31z" />
    <glyph glyph-name="uni0448.loclBGR" horiz-adv-x="1094" 
d="M139.5 111.5q25.5 -41.5 69 -64.5t94.5 -23q54 0 106 28.5t85.5 82.5t33.5 124v232q0 8 5 13t13 5t13 -5t5 -13v-269q0 -61 25 -105.5t68 -68t96 -23.5t105 29t85.5 82.5t33.5 122.5v232q0 8 5 13t12 5t12.5 -4.5t5.5 -13.5v-474q0 -7 -5 -12t-12 -5q-8 0 -13 5t-5 12
v138q-16 -58 -53.5 -95t-82.5 -53.5t-87 -16.5q-81 0 -142.5 45.5t-74.5 134.5q-25 -94 -90.5 -137t-139.5 -43q-58 0 -110.5 25t-85 73t-32.5 113v290q0 8 5 13t13 5q17 0 17 -18v-287q0 -51 25.5 -92.5z" />
    <glyph glyph-name="uni0449.loclBGR" horiz-adv-x="1134" 
d="M1094 0v-123q0 -17 -15 -17q-6 0 -10.5 4.5t-4.5 12.5v123h-12q-37 0 -56 27.5t-19 81.5v46q-16 -58 -53.5 -95t-82.5 -53.5t-87 -16.5q-81 0 -142.5 45.5t-74.5 134.5q-25 -94 -90.5 -137t-139.5 -43q-58 0 -110.5 25t-85 73t-32.5 113v290q0 8 5 13t13 5q17 0 17 -18
v-287q0 -51 25.5 -92.5t69 -64.5t94.5 -23q54 0 106 28.5t85.5 82.5t33.5 124v232q0 8 5 13t13 5t13 -5t5 -13v-269q0 -61 25 -105.5t68 -68t96 -23.5t105 29t85.5 82.5t33.5 122.5v232q0 8 5 13t12 5t12.5 -4.5t5.5 -13.5v-382q0 -38 10 -58t30 -20h12q30 0 30 -31z" />
    <glyph glyph-name="uni044E.loclBGR" horiz-adv-x="812" 
d="M677 79q-37 -43 -88 -66t-111 -23t-111 23t-88 66q-55 68 -60 159h-102v-220q0 -8 -5 -13t-12 -5t-12.5 5t-5.5 13v620q0 9 5 13.5t12 4.5t12.5 -4.5t5.5 -13.5v-370h102v5q7 83 55.5 149t127.5 88q35 9 76 9q38 0 75 -9q79 -22 128 -88t56 -149q6 -114 -60 -194z
M690 170q13 38 13 79q0 78 -43.5 142.5t-117.5 84.5q-32 8 -65 8q-31 0 -63 -8q-73 -20 -116 -84t-43 -142q0 -41 13 -79.5t39 -69.5q31 -37 76 -57t95 -20q51 0 96.5 20t76.5 57q26 31 39 69z" />
    <glyph glyph-name="zero" unicode="0" horiz-adv-x="536" 
d="M71 538.5q32 53.5 84.5 80.5t112.5 27t112.5 -27t84.5 -80.5t32 -128.5v-184q0 -75 -32 -128.5t-84.5 -80.5t-112.5 -27t-112.5 27t-84.5 80.5t-32 128.5v184q0 75 32 128.5zM437.5 521.5q-27.5 46.5 -73 70t-96.5 23.5q-52 0 -97.5 -23.5t-73 -70t-27.5 -111.5v-184
q0 -65 27.5 -111.5t73 -70t97.5 -23.5q51 0 96.5 23.5t73 70t27.5 111.5v184q0 65 -27.5 111.5z" />
    <glyph glyph-name="one" unicode="1" horiz-adv-x="323" 
d="M234.5 645.5q6.5 2.5 12.5 0.5q7 -2 11 -7.5t4 -11.5v-610q0 -8 -4.5 -12.5t-11.5 -4.5t-11.5 4.5t-4.5 12.5v580l-136 -189q-6 -9 -15 -9q-6 0 -10.5 4.5t-4.5 10.5t4 11l156 213q4 5 10.5 7.5z" />
    <glyph glyph-name="two" unicode="2" horiz-adv-x="568" 
d="M184 31h315q8 0 13 -4.5t5 -10.5t-4.5 -11t-13.5 -5h-423q-14 0 -19 14l-1 5q0 11 9 17q56 41 170 129l149 113q87 63 87 157q0 87 -52 132.5t-135 45.5q-76 0 -126.5 -38t-60.5 -111q-2 -16 -2 -27q0 -6 -4.5 -9t-10.5 -3t-10.5 3t-4.5 9q0 12 2 32q12 86 71 131.5
t147 45.5q85 0 144.5 -46.5t71.5 -130.5q3 -18 3 -35q0 -101 -98 -177l-237 -184l-73 -46z" />
    <glyph glyph-name="three" unicode="3" horiz-adv-x="567" 
d="M145 58.5q54 -37.5 138 -37.5q74 0 125 42.5t61 117.5q2 18 2 28q0 54 -27 99.5t-76 66.5q-29 12 -61 12q-34 0 -65 -14q-5 -3 -10 -3q-7 0 -12.5 5.5t-5.5 12.5q0 11 6 15l218 201h-353q-8 0 -12 4.5t-4 11.5t4 11.5t12 4.5h383q9 0 14.5 -6t5.5 -15q0 -11 -8 -16
l-140 -130l-74 -60q23 8 55 8q34 0 61 -10q58 -23 89 -75t31 -117q0 -20 -3 -41q-12 -85 -71.5 -134.5t-144.5 -49.5q-208 0 -233 180q-2 22 -2 32q0 6 5 10t11 4t10.5 -4t4.5 -10q0 -17 2 -25q10 -81 64 -118.5z" />
    <glyph glyph-name="four" unicode="4" horiz-adv-x="512" 
d="M440 641.5q4 4.5 11 4.5q6 0 10.5 -4.5t4.5 -10.5v-614q0 -8 -4.5 -12.5t-10.5 -4.5t-10.5 4.5t-4.5 11.5v138h-380q-13 0 -21 6t-8 17q0 8 6 18l261 443q5 8 14 8q6 0 10.5 -4t4.5 -11q0 -6 -2 -9l-262 -438h377v447q0 6 4 10.5z" />
    <glyph glyph-name="five" unicode="5" horiz-adv-x="561" 
d="M137.5 55.5q50.5 -35.5 133.5 -35.5q62 0 106 26.5t67 69.5t23 92q0 48 -23 90.5t-68.5 68.5t-109.5 26h-195q-7 0 -11.5 4t-4.5 11v203q0 12 7 18.5t18 6.5h342q7 0 11.5 -4.5t4.5 -11.5q0 -6 -4.5 -10.5t-11.5 -4.5h-336v-181h180q74 0 126 -30t78 -79t26 -105
q0 -57 -26 -107.5t-77 -81.5t-121 -31q-96 0 -155 42t-71 133q-3 17 -3 32q0 6 5 10t11 4t10.5 -4t4.5 -10q0 -9 2 -25q11 -81 61.5 -116.5z" />
    <glyph glyph-name="six" unicode="6" horiz-adv-x="562" 
d="M171 405.5q57 34.5 119 34.5t114.5 -28.5t83 -79t30.5 -114.5q0 -67 -33.5 -119t-88.5 -80.5t-116 -28.5q-68 0 -125 35q-45 27 -71 72t-26 97v188q0 80 21.5 134t82.5 92q58 38 134 38q16 0 24 -1q43 -4 82 -21.5t70 -47.5q5 -5 5 -12q0 -6 -4.5 -10.5t-11.5 -4.5t-13 6
q-30 30 -70.5 45.5t-83.5 15.5q-60 0 -107 -28q-59 -34 -78 -84t-19 -126v-63q24 56 81 90.5zM281 22q53 0 99.5 24.5t74.5 69.5t28 104q0 51 -25.5 94.5t-69 69t-96.5 25.5q-51 0 -96.5 -23t-74 -63.5t-29.5 -90.5l-1 -37q0 -43 21 -82t58 -61q50 -30 111 -30z" />
    <glyph glyph-name="seven" unicode="7" horiz-adv-x="529" 
d="M69 604q-8 0 -13 5t-5 11q0 7 5 11.5t13 4.5h382q13 0 20.5 -5.5t7.5 -13.5q0 -9 -7 -19l-336 -590q-5 -8 -16 -8q-6 0 -11 5t-5 11q0 5 2 9l331 579h-368z" />
    <glyph glyph-name="eight" unicode="8" horiz-adv-x="599" 
d="M117 33q-73 42 -73 142q0 61 38 99t100 48q-54 14 -88 53t-34 95q0 40 18 74q28 54 89.5 78t130.5 24q68 0 128.5 -24.5t88.5 -77.5q19 -36 19 -74q0 -59 -33 -96t-90 -51q63 -9 101 -49t38 -100q0 -99 -73.5 -141.5t-180.5 -42.5q-106 1 -179 43zM446 363.5
q58 30.5 58 104.5q0 21 -5 36q-16 54 -73 83.5t-129 29.5t-129 -29.5t-73 -83.5q-6 -14 -6 -36q0 -74 57.5 -104.5t149.5 -30.5t150 30.5zM135 280q-62 -29 -62 -107q0 -56 34.5 -91t85.5 -50t104 -15q87 0 155.5 36t68.5 120q0 77 -62.5 106.5t-161.5 29.5q-100 0 -162 -29
z" />
    <glyph glyph-name="nine" unicode="9" horiz-adv-x="559" 
d="M390 230.5q-57 -33.5 -120 -33.5q-62 0 -114 28.5t-82 79.5t-30 115q0 67 33 118.5t87.5 79.5t115.5 28q69 0 126 -35q45 -27 70.5 -72t25.5 -97v-187q0 -80 -21.5 -135t-82.5 -93q-58 -37 -134 -37q-53 0 -102 18.5t-85 52.5q-5 5 -5 12t4.5 11.5t11.5 4.5t13 -6
q30 -30 73.5 -46.5t90.5 -16.5q63 0 110 28q58 34 77 84t19 125v62q-24 -55 -81 -88.5zM280 615q-54 0 -101 -24.5t-75.5 -70t-28.5 -104.5q0 -51 26.5 -94.5t71 -68.5t96.5 -25t97.5 23t73.5 63.5t29 90.5l1 36q0 44 -21 82.5t-58 61.5q-50 30 -111 30z" />
    <glyph glyph-name="period" unicode="." horiz-adv-x="141" 
d="M76 43.5q7 -7.5 7 -18.5t-7 -18t-18 -7t-18.5 7t-7.5 18t7.5 18.5t18.5 7.5t18 -7.5z" />
    <glyph glyph-name="comma" unicode="," horiz-adv-x="147" 
d="M33 -104q-7 0 -12 4t-5 11q0 5 2 8l45 101q7 15 19 15q6 0 11 -5t5 -12q0 -5 -3 -11l-48 -102q-4 -9 -14 -9z" />
    <glyph glyph-name="colon" unicode=":" horiz-adv-x="143" 
d="M73.5 490.5q7.5 -7.5 7.5 -18.5t-7.5 -18t-18.5 -7t-18 7t-7 18t7 18.5t18 7.5t18.5 -7.5zM73.5 44.5q7.5 -7.5 7.5 -18.5t-7.5 -18.5t-18.5 -7.5t-18 7.5t-7 18.5t7 18.5t18 7.5t18.5 -7.5z" />
    <glyph glyph-name="semicolon" unicode=";" horiz-adv-x="155" 
d="M86.5 494.5q7.5 -7.5 7.5 -18.5t-7.5 -18t-18.5 -7t-18 7t-7 18t7 18.5t18 7.5t18.5 -7.5zM83 28q0 7 -5 12t-12 5q-12 0 -19 -15l-44 -101q-2 -6 -2 -8q0 -7 5 -11.5t11 -4.5q9 0 15 10l48 102q3 6 3 11z" />
    <glyph glyph-name="ellipsis" unicode="&#x2026;" horiz-adv-x="376" 
d="M87 44q7 -7 7 -18t-7 -18.5t-18 -7.5t-18.5 7.5t-7.5 18.5t7.5 18t18.5 7t18 -7zM207 44q7 -7 7 -18t-7 -18.5t-18 -7.5t-18.5 7.5t-7.5 18.5t7.5 18t18.5 7t18 -7zM327.5 44q7.5 -7 7.5 -18t-7.5 -18.5t-18.5 -7.5t-18 7.5t-7 18.5t7 18t18 7t18.5 -7z" />
    <glyph glyph-name="exclam" unicode="!" horiz-adv-x="183" 
d="M86.5 152.5q-5.5 -4.5 -12.5 -4.5t-12 4.5t-5 12.5v466q0 7 5.5 11t12.5 4t12 -4t5 -11v-466q0 -8 -5.5 -12.5zM87 87.5q-5 4.5 -12 4.5t-12.5 -4.5t-5.5 -12.5v-58q0 -8 5.5 -12.5t12.5 -4.5t12 4.5t5 12.5v58q0 8 -5 12.5z" />
    <glyph glyph-name="exclamdown" unicode="&#xa1;" horiz-adv-x="159" 
d="M65.5 514.5q5.5 4.5 12.5 4.5t12 -4.5t5 -12.5v-58q0 -8 -5 -12t-12 -4t-12.5 4t-5.5 12v58q0 8 5.5 12.5zM65.5 365.5q5.5 4.5 12.5 4.5t12 -4.5t5 -12.5v-466q0 -7 -5 -11t-12 -4t-12.5 4t-5.5 11v466q0 8 5.5 12.5z" />
    <glyph glyph-name="question" unicode="?" horiz-adv-x="621" 
d="M485 547q-38 35 -93.5 49.5t-112.5 14.5q-190 0 -230 -113q-4 -11 -15 -11q-6 0 -10.5 4t-4.5 11q0 5 1 8q24 75 97.5 105.5t162.5 30.5q63 0 127.5 -20t107.5 -63t43 -108q0 -50 -22 -82.5t-53.5 -51t-82.5 -39.5q-42 -18 -66 -31t-40 -33.5t-16 -50.5v-41
q0 -7 -4.5 -11t-11.5 -4t-12 4t-5 11v42q0 38 18.5 63.5t45.5 41t72 33.5q47 19 75 35.5t47.5 44t19.5 69.5q0 57 -38 92zM273.5 -6q-4.5 -4 -11.5 -4t-12 4t-5 12v55q0 8 5 12t12 4t11.5 -4t4.5 -12v-55q0 -8 -4.5 -12z" />
    <glyph glyph-name="questiondown" unicode="&#xbf;" horiz-adv-x="581" 
d="M299 515q5 4 12 4t11.5 -4t4.5 -12v-55q0 -7 -5 -11.5t-11 -4.5q-7 0 -12 4.5t-5 11.5v55q0 8 5 12zM87 -35q38 -35 93.5 -49.5t112.5 -14.5q190 0 230 113q4 11 15 11q6 0 10.5 -4t4.5 -11q0 -5 -1 -8q-24 -75 -97.5 -105.5t-162.5 -30.5q-63 0 -127.5 20t-107.5 63
t-43 108q0 50 22 82.5t53.5 51t82.5 39.5q42 18 66 31t40 33.5t16 50.5v41q0 7 5 11t12 4t11.5 -4t4.5 -11v-42q0 -38 -18.5 -63.5t-45.5 -41t-72 -33.5q-47 -19 -75 -35.5t-47.5 -44t-19.5 -69.5q0 -57 38 -92z" />
    <glyph glyph-name="middot" unicode="&#xb7;" horiz-adv-x="122" 
d="M77 321.5q7 -7.5 7 -18.5t-7 -18t-18 -7t-18.5 7t-7.5 18t7.5 18.5t18.5 7.5t18 -7.5z" />
    <glyph glyph-name="bullet" unicode="&#x2022;" horiz-adv-x="234" 
d="M159 350q20 -20 20 -50q0 -28 -20 -48t-50 -20q-28 0 -48 20t-20 48q0 30 20 50t48 20q30 0 50 -20z" />
    <glyph glyph-name="asterisk" unicode="*" horiz-adv-x="324" 
d="M154 426q0 -7 -4.5 -11.5t-10.5 -4.5t-11 4.5t-5 11.5l3 82l-69 -45q-9 -4 -16.5 1t-7.5 13q0 9 8 14l68 37l-68 38q-8 6 -8 14q0 6 4.5 11t10.5 5t9 -2l69 -45l-4 82q0 7 5 11t11 4t11 -4t5 -11l-3 -81l67 44q9 4 17 -1t8 -14q0 -7 -8 -13l-68 -38l68 -37q7 -6 7 -14
q0 -6 -4.5 -11t-11.5 -5l-8 2l-66 45z" />
    <glyph glyph-name="numbersign" unicode="#" horiz-adv-x="554" 
d="M44 218q-7 0 -12.5 5t-5.5 13q0 7 5.5 12t12.5 5h77l25 142h-77q-7 0 -12.5 4.5t-5.5 12.5t5.5 13t12.5 5h83l32 189q2 17 18 17q9 0 13.5 -6.5t3.5 -15.5l-31 -184h177l32 189q3 17 19 17q8 0 13 -7t3 -15l-31 -184h73q7 0 12.5 -5t5.5 -12q0 -8 -5 -13t-13 -5h-79
l-25 -142h79q7 0 12.5 -4.5t5.5 -12.5t-5 -13t-13 -5h-85l-33 -202q-3 -16 -19 -16q-9 0 -13.5 6.5t-2.5 15.5l33 196h-178l-34 -202q-3 -16 -18 -16q-9 0 -14 6.5t-3 15.5l33 196h-71zM335 253l24 142h-177l-25 -142h178z" />
    <glyph glyph-name="slash" unicode="/" horiz-adv-x="373" 
d="M315 646q6 13 18 13q7 0 12 -4.5t5 -11.5t-2 -10l-311 -728q-6 -13 -17 -13q-7 0 -11.5 5t-4.5 13q0 3 2 9z" />
    <glyph glyph-name="backslash" unicode="\" horiz-adv-x="355" 
d="M340 -83q0 -9 -5.5 -14.5t-12.5 -5.5q-12 0 -17 15l-304 721q-3 6 -3 11q0 7 5 12t12 5q6 0 11 -4t8 -11l304 -719q2 -4 2 -10z" />
    <glyph glyph-name="parenleft" unicode="(" horiz-adv-x="272" 
d="M112 484.5q-36 -91.5 -36 -193.5t35.5 -192.5t103.5 -148.5q8 -6 8 -16q0 -7 -5 -12q-7 -5 -12 -5q-7 0 -13 6q-74 64 -113 161.5t-39 205.5q0 109 39 207.5t113 162.5q5 5 12 5t12.5 -5.5t5.5 -12.5t-7 -13q-68 -58 -104 -149.5z" />
    <glyph glyph-name="parenright" unicode=")" horiz-adv-x="271" 
d="M18 644q0 7 5 12q7 5 12 5q7 0 13 -6q74 -64 113 -161.5t39 -205.5q0 -109 -39 -207.5t-113 -162.5q-6 -6 -13 -6q-5 0 -12 5q-5 5 -5 12q0 10 8 16q68 58 103.5 147.5t35.5 190.5q0 102 -36 194t-104 151q-7 7 -7 16z" />
    <glyph glyph-name="braceleft" unicode="{" horiz-adv-x="261" 
d="M122 243q17 -21 22.5 -51t5.5 -70v-30q-2 -36 -2 -53q0 -12 2 -36q3 -23 7 -37t14 -24q19 -19 53 -19q9 0 13.5 -5.5t4.5 -13.5q0 -7 -4.5 -12.5t-13.5 -5.5q-55 0 -82 32q-18 21 -23.5 52t-5.5 74v30l1 43q0 41 -3.5 66.5t-19.5 41.5q-16 17 -46 17q-8 0 -13 5.5
t-5 12.5t5 12.5t13 5.5q31 2 46 17q16 16 19.5 41.5t3.5 66.5l-1 44l-1 39q0 72 23 116t89 44q9 0 13.5 -4.5t4.5 -11.5q0 -6 -4.5 -11t-13.5 -5q-30 0 -53 -23q-24 -26 -24 -90q0 -7 3 -73q0 -7 0.5 -47.5t-11.5 -72.5t-35 -48q12 -9 18 -17z" />
    <glyph glyph-name="braceright" unicode="}" horiz-adv-x="270" 
d="M125 312.5q-10 33.5 -10 77.5q0 25 1 36l1 29q2 26 2 41q0 67 -24 95q-19 19 -53 19q-8 0 -13 5.5t-5 12.5t5 12.5t13 5.5q66 0 89 -45t23 -119l-1 -37l-2 -44q0 -36 4 -63t19 -42q16 -15 47 -17q9 0 13.5 -5.5t4.5 -12.5t-4.5 -12.5t-13.5 -5.5q-30 0 -47 -17
q-15 -15 -19 -43t-4 -65l2 -46v-30q0 -43 -5.5 -74t-23.5 -52q-27 -32 -82 -32q-8 0 -13 5.5t-5 12.5q0 8 4.5 13.5t13.5 5.5q34 0 53 19q10 10 14 24t7 37q2 24 2 36q0 17 -2 53v31q0 41 5.5 71.5t22.5 51.5q6 8 18 17q-27 18 -37 51.5z" />
    <glyph glyph-name="bracketleft" unicode="[" horiz-adv-x="271" 
d="M116 -78h99q9 0 13.5 -5t4.5 -11q0 -7 -4.5 -11.5t-13.5 -4.5h-112q-10 0 -16.5 6.5t-6.5 16.5v760q0 10 6.5 16.5t16.5 6.5h112q9 0 13.5 -5.5t4.5 -12.5t-4.5 -11.5t-13.5 -4.5h-99v-740z" />
    <glyph glyph-name="bracketright" unicode="]" horiz-adv-x="299" 
d="M37 672q-5 5 -5 11q0 7 5 11.5t13 4.5h113q9 0 16 -6.5t7 -16.5v-764q0 -10 -7 -16.5t-16 -6.5h-113q-9 0 -13.5 5t-4.5 12q0 6 5 11t13 5h100v745h-100q-8 0 -13 5z" />
    <glyph glyph-name="hyphen" unicode="-" horiz-adv-x="411" 
d="M77 283q-9 0 -14 5t-5 12t5 12.5t14 5.5h218q8 0 13 -5t5 -12t-4.5 -12.5t-13.5 -5.5h-218z" />
    <glyph glyph-name="endash" unicode="&#x2013;" horiz-adv-x="406" 
d="M64 284q-9 0 -14 5t-5 12t5 12.5t14 5.5h276q8 0 13 -5t5 -12t-4.5 -12.5t-13.5 -5.5h-276z" />
    <glyph glyph-name="emdash" unicode="&#x2014;" horiz-adv-x="540" 
d="M50 289.5q-5 4.5 -5 11.5t5 12.5t14 5.5h415q9 0 13.5 -5t4.5 -12t-5 -12t-13 -5h-415q-9 0 -14 4.5z" />
    <glyph glyph-name="underscore" unicode="_" horiz-adv-x="434" 
d="M20 -64q-9 0 -14 4.5t-5 11.5t5 12t14 5h372q9 0 14 -4.5t5 -11.5t-5 -12t-14 -5h-372z" />
    <glyph glyph-name="quotesinglbase" unicode="&#x201a;" horiz-adv-x="147" 
d="M33 -104q-7 0 -12 4t-5 11q0 5 2 8l45 101q7 15 19 15q6 0 11 -5t5 -12q0 -5 -3 -11l-48 -102q-4 -9 -14 -9z" />
    <glyph glyph-name="quotedblbase" unicode="&#x201e;" horiz-adv-x="242" 
d="M33 -104q-7 0 -12 4t-5 11q0 5 2 8l45 101q7 15 19 15q6 0 11 -5t5 -12q0 -5 -3 -11l-48 -102q-4 -9 -14 -9zM154 -104q-7 0 -12 4t-5 11q0 5 2 8l45 101q7 15 19 15q6 0 11 -5t5 -12q0 -5 -3 -11l-48 -102q-4 -9 -14 -9z" />
    <glyph glyph-name="quotedblleft" unicode="&#x201c;" horiz-adv-x="230" 
d="M93 645q7 0 12 -4t5 -11q0 -5 -2 -8l-45 -101q-7 -15 -19 -15q-6 0 -11 5t-5 12q0 5 3 11l48 102q4 9 14 9zM191 645q7 0 12 -4t5 -11q0 -5 -2 -8l-45 -101q-7 -15 -19 -15q-6 0 -11 5t-5 12q0 5 3 11l48 102q4 9 14 9z" />
    <glyph glyph-name="quotedblright" unicode="&#x201d;" horiz-adv-x="224" 
d="M43 507q-7 0 -12 4t-5 11q0 5 2 8l45 101q7 15 19 15q6 0 11 -5t5 -12q0 -5 -3 -11l-48 -102q-4 -9 -14 -9zM141 507q-7 0 -12 4t-5 11q0 5 2 8l45 101q7 15 19 15q6 0 11 -5t5 -12q0 -5 -3 -11l-48 -102q-4 -9 -14 -9z" />
    <glyph glyph-name="quoteleft" unicode="&#x2018;" horiz-adv-x="145" 
d="M102 651q7 0 12 -4t5 -11q0 -5 -2 -8l-45 -101q-7 -15 -19 -15q-6 0 -11 5t-5 12q0 5 3 11l48 102q4 9 14 9z" />
    <glyph glyph-name="quoteright" unicode="&#x2019;" horiz-adv-x="116" 
d="M37 507q-7 0 -12 4t-5 11q0 5 2 8l45 101q7 15 19 15q6 0 11 -5t5 -12q0 -5 -3 -11l-48 -102q-4 -9 -14 -9z" />
    <glyph glyph-name="guillemotleft" unicode="&#xab;" horiz-adv-x="404" 
d="M226 94q6 -6 6 -13t-4.5 -12t-12.5 -5t-12 6l-180 173q-8 7 -8 17t10 19l179 173q5 5 11 5q7 0 12 -5t5 -12t-6 -13l-172 -167zM388 81q0 -7 -5 -12t-12 -5t-12 6l-180 173q-8 7 -8 17t10 19l179 173q5 5 11 5q7 0 12 -5t5 -12t-6 -13l-172 -167l172 -166q6 -6 6 -13z
" />
    <glyph glyph-name="guillemotright" unicode="&#xbb;" horiz-adv-x="421" 
d="M33 425q-5 8 -5 13q0 7 4.5 12t11.5 5t12 -5l179 -173q10 -9 10 -19q0 -9 -8 -17l-180 -173q-6 -6 -13 -6t-11.5 5t-4.5 12t6 13l172 166zM184 438q0 7 4.5 12t11.5 5t12 -5l179 -173q10 -9 10 -19q0 -9 -8 -17l-180 -173q-6 -6 -13 -6t-11.5 5t-4.5 12t6 13l172 166
l-173 167q-5 8 -5 13z" />
    <glyph glyph-name="guilsinglleft" unicode="&#x2039;" horiz-adv-x="316" 
d="M262 87q7 -7 7 -14t-5 -12t-13 -5q-7 0 -13 6l-186 180q-8 7 -8 17t10 20l186 179q5 5 11 5q8 0 13 -5t5 -13q0 -5 -6 -13l-179 -173z" />
    <glyph glyph-name="guilsinglright" unicode="&#x203a;" horiz-adv-x="302" 
d="M44 437q0 8 5 13t13 5q6 0 11 -5l186 -179q10 -10 10 -20t-8 -17l-186 -180q-6 -6 -13 -6q-8 0 -13 5t-5 12t7 14l178 172l-179 173q-6 8 -6 13z" />
    <glyph glyph-name="quotedbl" unicode="&#x22;" horiz-adv-x="254" 
d="M70 492q-5 -4 -12 -4t-12 4t-5 12v115q0 8 5 12.5t12 4.5t12 -4.5t5 -12.5v-115q0 -8 -5 -12zM162.5 492q-4.5 -4 -11.5 -4t-12 4t-5 12v115q0 8 5 12.5t12 4.5q6 0 11 -4.5t5 -12.5v-115q0 -8 -4.5 -12z" />
    <glyph glyph-name="quotesingle" unicode="'" horiz-adv-x="208" 
d="M85.5 492q-4.5 -4 -11.5 -4t-12 4t-5 12v115q0 8 5 12.5t12 4.5q6 0 11 -4.5t5 -12.5v-115q0 -8 -4.5 -12z" />
    <glyph glyph-name="Euro" unicode="&#x20ac;" horiz-adv-x="676" 
d="M66 273q-3 26 -3 48q0 24 5 54h-58q-7 0 -11 4t-4 10t4 10t11 4h61q20 85 69 139.5t110.5 79t123.5 24.5q68 0 129 -23.5t103 -69.5q5 -5 5 -13q0 -7 -4.5 -11t-11.5 -4t-13 6q-38 41 -91.5 61.5t-113.5 20.5q-58 0 -113 -22t-98 -69.5t-62 -118.5h174q8 0 12.5 -4
t4.5 -10t-4.5 -10t-12.5 -4h-181q-4 -25 -4 -56q0 -23 3 -46h182q8 0 12.5 -4t4.5 -10t-4.5 -10t-12.5 -4h-175q17 -64 59 -114.5t101 -78.5t124 -28q68 0 128 28.5t100 80.5q5 8 14 8q7 0 11.5 -4.5t4.5 -11.5q0 -6 -4 -11q-40 -57 -111 -90.5t-146 -33.5q-74 0 -140 32
t-112.5 90t-62.5 133h-59q-6 0 -10 4t-4 10t4 10t10 4h56z" />
    <glyph glyph-name="cent" unicode="&#xa2;" horiz-adv-x="510" 
d="M162.5 21q-45.5 22 -76.5 61q-59 71 -59 171q0 88 49 158.5t131 94.5q28 7 53 8v74q0 9 5 13.5t11 4.5t10.5 -5t4.5 -13v-74q50 -4 94 -25t76 -58q4 -5 4 -10v-2q0 -6 -4 -11t-11 -6h-3q-8 0 -13 6q-26 31 -63.5 49t-79.5 21v-451q46 2 87.5 21t69.5 56q6 6 12 7h2
q12 0 18 -15q0 -10 -4 -14q-33 -42 -81.5 -64t-103.5 -24v-80q0 -8 -5 -12.5t-11 -4.5t-10.5 4.5t-4.5 12.5v80q-52 5 -97.5 27zM178 51.5q38 -19.5 82 -23.5v450q-21 -1 -42 -6q-71 -19 -113 -82.5t-42 -140.5q0 -40 12.5 -77.5t37.5 -67.5q27 -33 65 -52.5z" />
    <glyph glyph-name="dollar" unicode="$" horiz-adv-x="699" 
d="M48 152q5 6 13 6q10 0 15 -12q15 -55 77 -84t132 -36q20 -2 31 -2v286q-82 7 -134.5 19.5t-87.5 45.5t-35 95q0 66 53 107t126 56q39 9 78 9v58q0 7 4 11t10 4t10 -4t4 -11v-58q85 -4 154 -32.5t93 -92.5l2 -8q0 -7 -4.5 -11t-10.5 -4q-11 0 -16 11q-35 102 -218 106
v-274q89 -7 142.5 -18.5t90.5 -43.5t37 -94q0 -96 -81 -140t-189 -47v-59q0 -6 -4 -10t-10 -4t-10 4t-4 10v60q-93 3 -171.5 36t-98.5 106q-3 9 2 15zM298 611q-65 -5 -123.5 -31t-76.5 -78q-6 -16 -6 -34q0 -48 29.5 -74t75.5 -36.5t119 -17.5v271h-18zM453.5 40.5
q53.5 15.5 90.5 50t37 89.5q0 50 -31.5 76t-79.5 36t-126 16v-284q56 1 109.5 16.5z" />
    <glyph glyph-name="florin" unicode="&#x192;" horiz-adv-x="438" 
d="M202 5q-10 -73 -50 -122.5t-113 -49.5q-26 -1 -41.5 5.5t-26.5 18.5q-5 7 -5 12q0 7 4.5 12t11.5 5q5 0 12 -5q14 -11 22.5 -14.5t26.5 -3.5q59 0 87 39t37 103l65 464h-80q-7 0 -10.5 3.5t-3.5 8.5q0 7 5.5 12t13.5 5h79l1 6q10 73 50 121t113 48q56 1 89 -27
q6 -4 6 -12q0 -7 -5 -12t-12 -5q-4 0 -11 5q-18 18 -72 18q-59 0 -86 -36t-37 -100l-1 -6h125q15 0 15 -13q0 -6 -5.5 -11t-13.5 -5h-125z" />
    <glyph glyph-name="yen" unicode="&#xa5;" horiz-adv-x="617" 
d="M127.5 143.5q-4.5 4.5 -4.5 10.5t4.5 10t11.5 4h152v89h-152q-7 1 -11.5 5.5t-4.5 10.5t4.5 10t11.5 4h131l-248 331q-6 8 -6 14t4 10t11 4q9 0 16 -8l261 -351l260 350q8 9 15 9q6 0 10.5 -4.5t4.5 -10.5t-5 -14l-247 -330h130q8 0 12 -4.5t4 -10.5t-4 -10.5t-12 -4.5
h-151v-89h151q8 0 12 -4.5t4 -10.5t-4 -10.5t-12 -4.5h-151v-119q0 -9 -5 -14t-12 -5t-12 5t-5 14v119h-152q-7 1 -11.5 5.5z" />
    <glyph glyph-name="plus" unicode="+" horiz-adv-x="567" 
d="M464 311q18 0 18 -17q0 -7 -5 -12t-13 -5h-182v-182q0 -8 -5 -13t-12 -5q-17 0 -17 18v182h-183q-7 0 -12 5t-5 12q0 8 5 12.5t12 4.5h183v183q0 7 4.5 12t12.5 5q7 0 12 -5t5 -12v-183h182z" />
    <glyph glyph-name="divide" unicode="&#xf7;" horiz-adv-x="518" 
d="M262.5 461.5q7.5 -7.5 7.5 -18.5t-7.5 -18t-18.5 -7t-18 7t-7 18t7 18.5t18 7.5t18.5 -7.5zM54 297.5q-5 4.5 -5 11.5t5 12t12 5h366q7 0 11.5 -5t4.5 -12q0 -16 -16 -16h-366q-7 0 -12 4.5zM262.5 204.5q7.5 -7.5 7.5 -18.5t-7.5 -18.5t-18.5 -7.5t-18 7.5t-7 18.5
t7 18.5t18 7.5t18.5 -7.5z" />
    <glyph glyph-name="equal" unicode="=" horiz-adv-x="526" 
d="M52.5 412q-4.5 5 -4.5 12t4.5 12t11.5 5h337q7 0 12 -5t5 -12t-5 -12t-12 -5h-337q-7 0 -11.5 5zM413 289.5q5 -4.5 5 -11.5t-5 -12t-12 -5h-337q-7 0 -11.5 5t-4.5 12q0 16 16 16h337q7 0 12 -4.5z" />
    <glyph glyph-name="greater" unicode="&#x3e;" horiz-adv-x="353" 
d="M50 503q0 8 5 13t13 5q6 0 11 -5l186 -179q10 -10 10 -20t-8 -17l-186 -180q-6 -6 -13 -6q-8 0 -13 5t-5 12t7 14l178 172l-179 173q-6 8 -6 13z" />
    <glyph glyph-name="less" unicode="&#x3c;" horiz-adv-x="317" 
d="M242 143q7 -7 7 -14t-5 -12t-13 -5q-7 0 -13 6l-186 180q-8 7 -8 17t10 20l186 179q5 5 11 5q8 0 13 -5t5 -13q0 -5 -6 -13l-182 -173z" />
    <glyph glyph-name="plusminus" unicode="&#xb1;" horiz-adv-x="474" 
d="M417 335q7 0 11.5 -5.5t4.5 -11.5t-4 -10t-12 -4h-164v-166q0 -7 -5 -11.5t-12 -4.5q-16 0 -16 16v166h-164q-8 0 -12 4.5t-4 10.5q0 7 4 11.5t12 4.5h164v164q0 16 16 16q7 0 12 -4.5t5 -11.5v-164h164zM44.5 5q-4.5 5 -4.5 11q0 7 4.5 12t11.5 5h361q7 0 11.5 -5
t4.5 -12q0 -6 -4.5 -11t-11.5 -5h-361q-7 0 -11.5 5z" />
    <glyph glyph-name="asciitilde" unicode="~" horiz-adv-x="516" 
d="M126 339q54 0 137 -43q44 -23 91 -35q20 -5 34 -5q56 0 69 68q1 6 6 9.5t11 3.5q7 0 11.5 -5t3.5 -13q-7 -47 -33 -71.5t-67 -24.5q-20 0 -42 6q-40 10 -97 37q-43 20 -70 30.5t-53 10.5q-59 0 -68 -73q-1 -7 -5 -11t-10 -4q-8 0 -13.5 6t-4.5 15q18 99 100 99z" />
    <glyph glyph-name="asciicircum" unicode="^" horiz-adv-x="385" 
d="M309 543q4 -5 4 -11q0 -7 -4.5 -11t-10.5 -4q-9 0 -14 8l-105 129l-102 -130q-8 -9 -16 -9q-7 0 -11.5 4t-4.5 11q0 5 5 13l109 136q8 11 21 11q12 0 20 -11z" />
    <glyph glyph-name="percent" unicode="%" horiz-adv-x="640" 
d="M84 -6q-7 0 -12 4.5t-5 11.5q0 6 4 11l449 635q6 7 13 7t11.5 -4.5t4.5 -11.5q0 -5 -3 -11l-449 -635q-4 -7 -13 -7zM243.5 628q29.5 -18 47 -49.5t17.5 -70.5q0 -35 -16 -68t-45.5 -53.5t-67.5 -20.5q-55 0 -92 39.5t-37 102.5q0 35 16 67t45.5 51.5t67.5 19.5
q35 0 64.5 -18zM249.5 582q-27.5 32 -70.5 32q-42 0 -71 -31.5t-29 -74.5q0 -42 27.5 -76t72.5 -34q43 0 69.5 30.5t28.5 79.5q0 42 -27.5 74zM511.5 262q29.5 -18 47 -49.5t17.5 -70.5q0 -35 -16 -68t-45.5 -53.5t-67.5 -20.5q-55 0 -92 39.5t-37 102.5q0 35 16 67
t45.5 51.5t67.5 19.5q35 0 64.5 -18zM517.5 216q-27.5 32 -70.5 32q-42 0 -71 -31.5t-29 -74.5q0 -42 27.5 -76t72.5 -34q43 0 69.5 30.5t28.5 79.5q0 42 -27.5 74z" />
    <glyph glyph-name="perthousand" unicode="&#x2030;" horiz-adv-x="917" 
d="M84 -6q-7 0 -12 4.5t-5 11.5q0 6 4 11l449 635q6 7 13 7t11.5 -4.5t4.5 -11.5q0 -5 -3 -11l-449 -635q-4 -7 -13 -7zM243.5 628q29.5 -18 47 -49.5t17.5 -70.5q0 -35 -16 -68t-45.5 -53.5t-67.5 -20.5q-55 0 -92 39.5t-37 102.5q0 35 16 67t45.5 51.5t67.5 19.5
q35 0 64.5 -18zM249.5 582q-27.5 32 -70.5 32q-42 0 -71 -31.5t-29 -74.5q0 -42 27.5 -76t72.5 -34q43 0 69.5 30.5t28.5 79.5q0 42 -27.5 74zM511.5 262q29.5 -18 47 -49.5t17.5 -70.5q0 -35 -16 -68t-45.5 -53.5t-67.5 -20.5q-55 0 -92 39.5t-37 102.5q0 35 16 67
t45.5 51.5t67.5 19.5q35 0 64.5 -18zM813.5 262q29.5 -18 47 -49.5t17.5 -70.5q0 -35 -16 -68t-45.5 -53.5t-67.5 -20.5q-55 0 -92 39.5t-37 102.5q0 35 16 67t45.5 51.5t67.5 19.5q35 0 64.5 -18zM517.5 216q-27.5 32 -70.5 32q-42 0 -71 -31.5t-29 -74.5q0 -42 27.5 -76
t72.5 -34q43 0 69.5 30.5t28.5 79.5q0 42 -27.5 74zM819.5 216q-27.5 32 -70.5 32q-42 0 -71 -31.5t-29 -74.5q0 -42 27.5 -76t72.5 -34q43 0 69.5 30.5t28.5 79.5q0 42 -27.5 74z" />
    <glyph glyph-name="at" unicode="@" horiz-adv-x="812" 
d="M478 18q-50 -28 -104 -28q-60 0 -112.5 32t-84 87t-31.5 119q0 55 24.5 105t71.5 85q53 40 130 40q60 0 110.5 -27t72.5 -77v85q0 7 4.5 11.5t11.5 4.5t11.5 -4.5t4.5 -11.5v-370q0 -19 10.5 -31.5t29.5 -12.5q44 0 72 100q13 48 13 104q0 66 -25.5 125.5t-70.5 104.5
t-104.5 70t-125.5 25q-89 0 -163.5 -43.5t-118.5 -118t-44 -163.5q0 -80 36 -150.5t102 -116.5q85 -59 188 -59q55 0 107 18q7 2 13 -3.5t6 -12.5q0 -9 -10 -13q-56 -19 -116 -19q-54 0 -107 16.5t-98 48.5q-72 50 -111.5 126.5t-39.5 164.5q0 96 48 177.5t129.5 129.5
t178.5 48q72 0 137 -27.5t114 -76.5t76.5 -114t27.5 -137q0 -62 -14 -112q-34 -122 -100 -122q-31 0 -51.5 21.5t-20.5 52.5v35q-17 -53 -77 -86zM544 324q-20 51 -66 79t-101 28q-69 0 -120 -41q-39 -31 -59 -73.5t-20 -88.5q0 -56 27.5 -103.5t73 -75t97.5 -27.5
q44 0 84 20q29 14 51 37t33 51t11 55v84q0 27 -11 55z" />
    <glyph glyph-name="ampersand" unicode="&#x26;" horiz-adv-x="648" 
d="M108 32.5q-72 41.5 -72 142.5q0 60 37.5 98t99.5 48q-54 13 -88 52.5t-34 96.5q0 59 35 99t89.5 58.5t113.5 18.5q60 -1 115 -19.5t89.5 -58.5t33.5 -100q0 -6 -4 -10t-10 -4t-11 4t-5 10q0 47 -29.5 81t-77 51t-101.5 17t-101.5 -17t-77 -51t-29.5 -81q0 -74 57 -103.5
t150 -29.5h310q6 0 9.5 -4.5t3.5 -10.5t-3.5 -10.5t-9.5 -4.5h-66v-131q0 -101 -69 -142.5t-176 -41.5q-107 1 -179 42.5zM125 278q-61 -27 -61 -105q0 -82 68.5 -118.5t155.5 -36.5q88 0 151.5 35t63.5 120v132h-215q-102 0 -163 -27z" />
    <glyph glyph-name="paragraph" unicode="&#xb6;" horiz-adv-x="481" 
d="M390 -94q0 -7 -4.5 -12t-12.5 -5t-13 5t-5 12v695h-179v-695q0 -7 -4.5 -12t-12.5 -5t-13 5t-5 12v446q-50 8 -83.5 48.5t-33.5 92.5q0 38 19.5 71t52.5 52.5t71 19.5h274q8 0 13 -5t5 -13q0 -17 -18 -17h-51v-695z" />
    <glyph glyph-name="copyright" unicode="&#xa9;" horiz-adv-x="457" 
d="M321.5 493q44.5 -26 70.5 -70.5t26 -97.5t-26 -97.5t-70.5 -70.5t-97.5 -26t-97.5 26t-70.5 70.5t-26 97.5t26 97.5t70.5 70.5t97.5 26t97.5 -26zM144.5 462.5q-36.5 -21.5 -58 -58t-21.5 -79.5t21.5 -79.5t58 -58t79.5 -21.5t79.5 21.5t58 58t21.5 79.5t-21.5 79.5
t-58 58t-79.5 21.5t-79.5 -21.5zM227 411q-28 0 -51 -17q-15 -12 -22.5 -31t-7.5 -39q0 -34 21 -58q22 -26 61 -26q20 0 38 8t29 23q5 5 12 7h2q7 0 12 -4t6 -11v-4q0 -4 -3 -9q-16 -23 -40.5 -34.5t-52.5 -11.5q-25 0 -49 10t-41 29q-30 33 -30 82q0 23 5 38q11 35 38 58
q13 11 31 18t42 7t46.5 -9t37.5 -27q4 -4 5 -9v-3q0 -13 -15 -18h-3q-7 0 -13 6q-22 25 -58 25z" />
    <glyph glyph-name="registered" unicode="&#xae;" horiz-adv-x="421" 
d="M306.5 483q44.5 -26 70.5 -70.5t26 -97.5t-26 -97.5t-70.5 -70.5t-97.5 -26t-97.5 26t-70.5 70.5t-26 97.5t26 97.5t70.5 70.5t97.5 26t97.5 -26zM129.5 452.5q-36.5 -21.5 -58 -58t-21.5 -79.5t21.5 -79.5t58 -58t79.5 -21.5t79.5 21.5t58 58t21.5 79.5t-21.5 79.5
t-58 58t-79.5 21.5t-79.5 -21.5zM278 434q7 0 12.5 -5t5.5 -13q0 -7 -5 -12t-13 -5q-42 0 -67.5 -31t-25.5 -75v-92q0 -8 -5 -13t-13 -5q-17 0 -17 18v212v2q0 7 4.5 11.5t12.5 4.5t13 -5t5 -13v-26q39 47 93 47z" />
    <glyph glyph-name="trademark" unicode="&#x2122;" horiz-adv-x="634" 
d="M260.5 631.5q3.5 -4.5 3.5 -10.5q0 -7 -3.5 -11.5t-10.5 -4.5h-93v-225q0 -8 -5 -12t-11 -4t-11.5 4t-5.5 12v225h-92q-6 0 -9 5t-3 11t3 10.5t9 4.5h218q7 0 10.5 -4.5zM548 636q7 0 11.5 -4.5t4.5 -11.5v-239q0 -6 -4.5 -9.5t-11.5 -3.5t-12 3.5t-5 9.5v187l-85 -135
q-6 -9 -15 -9t-15 9l-84 133v-185q0 -7 -5 -11.5t-11 -4.5q-7 0 -12 4.5t-5 11.5v239q0 7 4.5 11.5t10.5 4.5q10 0 16 -9l102 -158l101 158q6 9 15 9z" />
    <glyph glyph-name="degree" unicode="&#xb0;" horiz-adv-x="195" 
d="M141 651.5q21 -20.5 21 -50.5q0 -31 -21 -51.5t-51 -20.5q-31 0 -52 20.5t-21 51.5q0 30 21 50.5t52 20.5q30 0 51 -20.5zM59 630.5q-13 -12.5 -13 -29.5q0 -18 13 -30.5t31 -12.5q17 0 30 12.5t13 30.5q0 17 -13 29.5t-30 12.5q-18 0 -31 -12.5z" />
    <glyph glyph-name="bar" unicode="|" horiz-adv-x="154" 
d="M63 641q5 5 12 5q8 0 13 -5t5 -13v-714q0 -17 -18 -17q-7 0 -12 4.5t-5 12.5v714q0 8 5 13z" />
    <glyph glyph-name="uni0308" unicode="&#x308;" 
d="M-257.5 662.5q9.5 -8.5 9.5 -21.5q0 -15 -9.5 -23t-20.5 -8q-13 0 -22 8.5t-9 22.5q0 13 9 21.5t22 8.5q11 0 20.5 -8.5zM-64.5 662.5q9.5 -8.5 9.5 -21.5q0 -15 -9 -23t-22 -8q-11 0 -20.5 8.5t-9.5 22.5q0 13 9.5 21.5t20.5 8.5q12 0 21.5 -8.5z" />
    <glyph glyph-name="uni0307" unicode="&#x307;" 
d="M-310.5 666.5q11.5 -10.5 11.5 -25.5q0 -18 -11 -27.5t-25 -9.5q-15 0 -26 10.5t-11 26.5q0 15 11 25.5t26 10.5q13 0 24.5 -10.5z" />
    <glyph glyph-name="gravecomb" unicode="&#x300;" 
d="M-86 730q2 -2 2 -7q0 -6 -4.5 -11t-9.5 -5q-6 0 -12 7l-82 99q-4 5 -4 11q0 7 5.5 12.5t13.5 5.5t14 -7z" />
    <glyph glyph-name="acutecomb" unicode="&#x301;" 
d="M-15 715q8 0 13.5 -5.5t5.5 -12.5q0 -6 -4 -11l-82 -99q-6 -7 -12 -7q-8 0 -12.5 8t0.5 15l77 105q6 7 14 7z" />
    <glyph glyph-name="uni030B" unicode="&#x30b;" 
d="M-382 717q7 0 13 -5t6 -12q0 -5 -3 -10l-58 -99q-4 -8 -12 -8t-13 7t-1 14l53 104q4 9 15 9zM-274 717q7 0 13 -5t6 -13q0 -6 -2 -9l-59 -99q-4 -8 -12 -8t-13 7t-1 14l53 104q4 9 15 9z" />
    <glyph glyph-name="uni0302" unicode="&#x302;" 
d="M-62 594q0 -5 -4.5 -9.5t-10.5 -4.5q-7 0 -13 6l-95 93l-95 -93q-6 -6 -12 -6q-7 0 -11 4.5t-4 9.5t3 8l107 105q7 7 12 7t12 -7l107 -105q4 -4 4 -8z" />
    <glyph glyph-name="uni030C" unicode="&#x30c;" 
d="M-168 587q-7 -7 -12 -7t-12 7l-107 105q-3 3 -3 8t4 9.5t10 4.5q7 0 13 -6l95 -93l95 93q6 6 13 6q6 0 10.5 -4.5t4.5 -9.5q0 -4 -4 -8z" />
    <glyph glyph-name="uni0306" unicode="&#x306;" 
d="M-210 691q8 0 13 -7t2 -16q-13 -45 -38.5 -66t-70.5 -21t-70.5 21t-38.5 66q-3 9 2 16t13 7q11 0 17 -16q13 -36 30 -50t47 -13q30 -1 48 13.5t29 49.5q6 16 17 16z" />
    <glyph glyph-name="uni030A" unicode="&#x30a;" 
d="M-68 699.5q21 -20.5 21 -50.5q0 -31 -21 -51.5t-51 -20.5q-31 0 -52 20.5t-21 51.5q0 30 21 50.5t52 20.5q30 0 51 -20.5zM-150 678.5q-13 -12.5 -13 -29.5q0 -18 13 -30.5t31 -12.5q17 0 30 12.5t13 30.5q0 17 -13 29.5t-30 12.5q-18 0 -31 -12.5z" />
    <glyph glyph-name="tildecomb" unicode="&#x303;" 
d="M-286.5 680.5q18.5 14.5 44.5 14.5q17 0 31.5 -9.5t35.5 -28.5q19 -18 31.5 -26.5t26.5 -8.5q24 0 36.5 14.5t21.5 36.5q4 10 12 10q5 0 8.5 -4t3.5 -10t-3 -12q-12 -27 -30.5 -44t-51.5 -17q-18 0 -33.5 10.5t-36.5 30.5q-18 17 -29 25t-22 8q-21 1 -31.5 -10t-16.5 -33
q-3 -9 -13 -9q-7 0 -11 5t-1 15q9 28 27.5 42.5z" />
    <glyph glyph-name="uni0304" unicode="&#x304;" 
d="M-219 633.5q7 -4.5 7 -10.5t-7 -11t-19 -5h-179q-13 0 -20 4.5t-7 10.5q0 7 7 11.5t20 4.5h179q12 0 19 -4.5z" />
    <glyph glyph-name="uni0326" unicode="&#x326;" 
d="M-469 -248q-6 -6 -12 -6q-4 0 -6.5 3t-2.5 8l2 9l31 105q6 19 18 19q5 0 9 -5t4 -14q0 -8 -2 -13l-31 -89q-4 -11 -10 -17z" />
    <glyph glyph-name="uni0327" unicode="&#x327;" 
d="M-112 -58q32 0 53.5 -19t21.5 -50q0 -35 -26 -55.5t-63 -20.5q-22 0 -42.5 8t-35.5 23q-6 6 -6 13q0 5 3.5 8.5t8.5 3.5q9 0 17 -7q27 -21 57 -21q24 0 40 13t16 34q0 24 -15 34.5t-36 10.5q-10 0 -14 -1q-3 -1 -8 -1q-16 0 -16 12q0 3 4 15l26 56q10 21 22 21
q4 0 6.5 -3t2.5 -8q0 -6 -5 -16l-27 -51q5 1 16 1z" />
    <glyph glyph-name="uni0328" unicode="&#x328;" 
d="M-301 -74.5q-19 -32.5 -19 -58.5q0 -19 11 -30t26 -11q25 0 40 23q10 16 23 16q5 0 8 -3t3 -8q0 -8 -7 -18q-13 -20 -28 -29.5t-38 -9.5q-33 0 -51 18.5t-18 50.5q0 34 20.5 67.5t52.5 69.5q10 12 19 12q10 0 10 -11q0 -9 -9 -19q-24 -27 -43 -59.5z" />
    <glyph glyph-name="acute" unicode="&#xb4;" horiz-adv-x="239" 
d="M224 842q8 0 13.5 -5.5t5.5 -12.5q0 -6 -4 -11l-82 -99q-6 -7 -12 -7q-8 0 -12.5 8t0.5 15l77 105q6 7 14 7z" />
    <glyph glyph-name="breve" unicode="&#x2d8;" horiz-adv-x="600" 
d="M390 818q8 0 13 -7t2 -16q-13 -45 -38.5 -66t-70.5 -21t-70.5 21t-38.5 66q-3 9 2 16t13 7q11 0 17 -16q13 -36 30 -50t47 -13q30 -1 47 13t30 50q6 16 17 16z" />
    <glyph glyph-name="caron" unicode="&#x2c7;" horiz-adv-x="328" 
d="M160 714q-7 -7 -12 -7t-12 7l-107 105q-3 3 -3 8t4 9.5t10 4.5q7 0 13 -6l95 -93l95 93q6 6 13 6q6 0 10.5 -4.5t4.5 -9.5q0 -4 -4 -8z" />
    <glyph glyph-name="cedilla" unicode="&#xb8;" horiz-adv-x="304" 
d="M192 -58q32 0 53.5 -19t21.5 -50q0 -35 -26 -55.5t-63 -20.5q-22 0 -42.5 8t-35.5 23q-6 6 -6 13q0 5 3.5 8.5t8.5 3.5q9 0 17 -7q27 -21 57 -21q24 0 40 13t16 34q0 24 -15 34.5t-36 10.5q-10 0 -14 -1q-3 -1 -8 -1q-16 0 -16 12q0 3 4 15l26 56q10 21 22 21q4 0 6.5 -3
t2.5 -8q0 -6 -5 -16l-27 -51q5 1 16 1z" />
    <glyph glyph-name="circumflex" unicode="&#x2c6;" horiz-adv-x="333" 
d="M271 721q0 -5 -4.5 -9.5t-10.5 -4.5q-7 0 -13 6l-95 93l-95 -93q-6 -6 -12 -6t-10.5 4.5t-4.5 9.5t3 8l107 105q7 7 12 7t12 -7l107 -105q4 -4 4 -8z" />
    <glyph glyph-name="dieresis" unicode="&#xa8;" horiz-adv-x="350" 
d="M92.5 789.5q9.5 -8.5 9.5 -21.5q0 -15 -9.5 -23t-20.5 -8q-13 0 -22 8.5t-9 22.5q0 13 9 21.5t22 8.5q11 0 20.5 -8.5zM285.5 789.5q9.5 -8.5 9.5 -21.5q0 -15 -9 -23t-22 -8q-11 0 -20.5 8.5t-9.5 22.5q0 13 9.5 21.5t20.5 8.5q12 0 21.5 -8.5z" />
    <glyph glyph-name="dotaccent" unicode="&#x2d9;" horiz-adv-x="600" 
d="M289.5 793.5q11.5 -10.5 11.5 -25.5q0 -18 -11 -27.5t-25 -9.5q-15 0 -26 10.5t-11 26.5q0 15 11 25.5t26 10.5q13 0 24.5 -10.5z" />
    <glyph glyph-name="grave" unicode="`" horiz-adv-x="327" 
d="M241 730q2 -2 2 -7q0 -6 -4.5 -11t-9.5 -5q-6 0 -12 7l-82 99q-4 5 -4 11q0 7 5.5 12.5t13.5 5.5t14 -7z" />
    <glyph glyph-name="hungarumlaut" unicode="&#x2dd;" horiz-adv-x="600" 
d="M218 844q7 0 13 -5t6 -12q0 -5 -3 -10l-58 -99q-4 -8 -12 -8t-13 7t-1 14l53 104q5 9 15 9zM326 844q7 0 13 -5t6 -13q0 -6 -2 -9l-59 -99q-4 -8 -12 -8t-13 7t-1 14l53 104q5 9 15 9z" />
    <glyph glyph-name="macron" unicode="&#xaf;" horiz-adv-x="600" 
d="M381.5 760.5q6.5 -4.5 6.5 -10.5q0 -7 -6.5 -11.5t-19.5 -4.5h-179q-13 0 -20 4.5t-7 10.5q0 7 7 11.5t20 4.5h179q13 0 19.5 -4.5z" />
    <glyph glyph-name="ogonek" unicode="&#x2db;" horiz-adv-x="600" 
d="M299 -74.5q-19 -32.5 -19 -58.5q0 -19 11 -30t26 -11q25 0 40 23q10 16 23 16q5 0 8 -3t3 -8q0 -8 -7 -18q-13 -20 -28 -29.5t-38 -9.5q-33 0 -51 18.5t-18 50.5q0 34 20.5 67.5t52.5 69.5q11 12 19 12q10 0 10 -11q0 -9 -9 -19q-24 -27 -43 -59.5z" />
    <glyph glyph-name="ring" unicode="&#x2da;" horiz-adv-x="209" 
d="M141 826.5q21 -20.5 21 -50.5q0 -31 -21 -51.5t-51 -20.5q-31 0 -52 20.5t-21 51.5q0 30 21 50.5t52 20.5q30 0 51 -20.5zM59 805.5q-13 -12.5 -13 -29.5q0 -18 13 -30.5t31 -12.5q17 0 30 12.5t13 30.5q0 17 -13 29.5t-30 12.5q-18 0 -31 -12.5z" />
    <glyph glyph-name="tilde" unicode="&#x2dc;" horiz-adv-x="364" 
d="M77 807.5q19 14.5 45 14.5q17 0 31.5 -9.5t35.5 -28.5q19 -18 31.5 -26.5t26.5 -8.5q24 0 36.5 14.5t21.5 36.5q4 10 12 10q5 0 8.5 -4t3.5 -10t-3 -12q-12 -27 -30.5 -44t-51.5 -17q-18 0 -33.5 10.5t-36.5 30.5q-18 17 -29 25t-22 8q-21 1 -31.5 -10t-16.5 -33
q-3 -9 -13 -9q-7 0 -11 5t-1 15q8 28 27 42.5z" />
    <glyph glyph-name="uni0308.case" 
d="M-252.5 789.5q9.5 -8.5 9.5 -21.5q0 -15 -9.5 -23t-20.5 -8q-13 0 -22 8.5t-9 22.5q0 13 9 21.5t22 8.5q11 0 20.5 -8.5zM-59.5 789.5q9.5 -8.5 9.5 -21.5q0 -15 -9 -23t-22 -8q-11 0 -20.5 8.5t-9.5 22.5q0 13 9.5 21.5t20.5 8.5q12 0 21.5 -8.5z" />
    <glyph glyph-name="uni0307.case" 
d="M-310.5 793.5q11.5 -10.5 11.5 -25.5q0 -18 -11 -27.5t-25 -9.5q-15 0 -26 10.5t-11 26.5q0 15 11 25.5t26 10.5q13 0 24.5 -10.5z" />
    <glyph glyph-name="gravecomb.case" 
d="M-82 735q3 -3 3 -8q0 -6 -4 -11t-10 -5t-12 6l-90 91q-5 5 -5 13q0 7 5.5 12.5t13.5 5.5q7 0 13 -6z" />
    <glyph glyph-name="acutecomb.case" 
d="M-12 834q8 0 14 -5.5t6 -13.5q0 -7 -5 -12l-90 -91q-6 -6 -12 -6t-10 4.5t-4 10.5q0 5 3 9l86 98q4 6 12 6z" />
    <glyph glyph-name="uni030B.case" 
d="M-378 841q8 0 13.5 -5t5.5 -12q0 -6 -4 -11l-66 -93q-6 -7 -12 -7q-8 0 -12.5 7.5t-0.5 14.5l62 99q4 7 14 7zM-270 841q8 0 14 -5t6 -12q0 -3 -4 -11l-67 -93q-6 -7 -12 -7q-8 0 -12.5 7.5t-0.5 14.5l62 99q4 7 14 7z" />
    <glyph glyph-name="uni0302.case" 
d="M-65 721q0 -5 -4 -9.5t-10 -4.5t-11 5l-95 83l-95 -83q-7 -5 -11 -5q-6 0 -10 4.5t-4 9.5q0 8 6 12l102 90q7 7 12 7q4 0 12 -7l102 -90q6 -6 6 -12z" />
    <glyph glyph-name="uni030C.case" 
d="M-168 714q-2 -2 -6 -4.5t-6 -2.5q-3 0 -12 7l-102 90q-6 6 -6 12q0 5 4 9.5t10 4.5t11 -5l95 -83l95 83q7 5 11 5q6 0 10 -4.5t4 -9.5q0 -7 -6 -12z" />
    <glyph glyph-name="uni0306.case" 
d="M-212 817q8 0 13 -7t2 -16q-13 -44 -38 -64.5t-69 -20.5t-69 20.5t-38 64.5q-3 9 2 16t13 7q11 0 17 -16q12 -35 29 -49t46 -13q29 -1 46 13t29 49q6 16 17 16z" />
    <glyph glyph-name="uni030A.case" 
d="M-68 826.5q21 -20.5 21 -50.5q0 -31 -21 -51.5t-51 -20.5q-31 0 -52 20.5t-21 51.5q0 30 21 50.5t52 20.5q30 0 51 -20.5zM-150 805.5q-13 -12.5 -13 -29.5q0 -18 13 -30.5t31 -12.5q17 0 30 12.5t13 30.5q0 17 -13 29.5t-30 12.5q-18 0 -31 -12.5z" />
    <glyph glyph-name="tildecomb.case" 
d="M-287 807.5q19 14.5 45 14.5q17 0 31.5 -9.5t35.5 -28.5q19 -18 31.5 -26.5t26.5 -8.5q24 0 36.5 14.5t21.5 36.5q4 10 12 10q5 0 8.5 -4t3.5 -10t-3 -12q-12 -27 -30.5 -44t-51.5 -17q-18 0 -33.5 10.5t-36.5 30.5q-18 17 -29 25t-22 8q-21 1 -31.5 -10t-16.5 -33
q-3 -9 -13 -9q-7 0 -11 5t-1 15q8 28 27 42.5z" />
    <glyph glyph-name="uni0304.case" 
d="M-219 760.5q7 -4.5 7 -10.5t-7 -11t-19 -5h-179q-13 0 -20 4.5t-7 10.5q0 7 7 11.5t20 4.5h179q12 0 19 -4.5z" />
    <glyph glyph-name="uni0326.case" 
d="M-469 -248q-6 -6 -12 -6q-4 0 -6.5 3t-2.5 8l2 9l31 105q6 19 18 19q5 0 9 -5t4 -14q0 -8 -2 -13l-31 -89q-4 -11 -10 -17z" />
    <glyph glyph-name="uni0327.case" 
d="M-112 -58q32 0 53.5 -19t21.5 -50q0 -35 -26 -55.5t-63 -20.5q-22 0 -42.5 8t-35.5 23q-6 6 -6 13q0 5 3.5 8.5t8.5 3.5q9 0 17 -7q27 -21 57 -21q24 0 40 13t16 34q0 24 -15 34.5t-36 10.5q-10 0 -14 -1q-3 -1 -8 -1q-16 0 -16 12q0 3 4 15l26 56q10 21 22 21
q4 0 6.5 -3t2.5 -8q0 -6 -5 -16l-27 -51q5 1 16 1z" />
    <glyph glyph-name="uni0328.case" 
d="M-301 -74.5q-19 -32.5 -19 -58.5q0 -19 11 -30t26 -11q25 0 40 23q10 16 23 16q5 0 8 -3t3 -8q0 -8 -7 -18q-13 -20 -28 -29.5t-38 -9.5q-33 0 -51 18.5t-18 50.5q0 34 20.5 67.5t52.5 69.5q10 12 19 12q10 0 10 -11q0 -9 -9 -19q-24 -27 -43 -59.5z" />
    <glyph glyph-name="newGlyph" horiz-adv-x="600" 
 />
    <glyph glyph-name="dieresis.case" horiz-adv-x="600" 
 />
    </font>
</defs>
</svg>
